<?xml version="1.0" encoding="UTF-8"?><svg id="Text" xmlns="http://www.w3.org/2000/svg" viewBox="0 0 192 192"><path d="m162.29,62.7c-1.26-.58-2.74-.22-3.61.84-.87,1.06-.89,2.56-.05,3.66.67.87,15.15,20.13,6.55,45.21-1.29-1.93-3.05-3.9-5.43-5.35-1-.59-2.27-.58-3.28.08-.98.66-1.48,1.81-1.27,2.97.04.23,3.44,20.51-8.34,35.2.64-5.34.69-12.09-1.54-18.06-.49-1.32-1.89-2.11-3.28-1.91-1.42.21-2.49,1.37-2.57,2.77,0,.16-.88,13.78-8.41,23.81.26-3.55.1-7.8-1.11-12.32-.34-1.29-1.5-2.19-2.85-2.22-1.37-.04-2.55.82-2.95,2.09-.09.26-8.44,26.33-28.17,37.93-19.68-11.59-28.08-37.67-28.17-37.93-.39-1.24-1.57-2.09-2.88-2.09h-.06c-1.35.03-2.51.92-2.85,2.21-1.22,4.52-1.38,8.77-1.12,12.32-7.54-10.03-8.39-23.64-8.41-23.81-.08-1.4-1.15-2.56-2.56-2.77-1.38-.21-2.78.58-3.28,1.91-2.23,5.97-2.18,12.71-1.55,18.06-11.78-14.69-8.38-34.97-8.34-35.2.2-1.15-.3-2.31-1.28-2.97-.98-.66-2.26-.67-3.27-.08-2.37,1.44-4.14,3.41-5.43,5.35-8.61-25.06,5.88-44.34,6.55-45.21.83-1.08.81-2.59-.05-3.66-.88-1.06-2.37-1.43-3.62-.84-3.03,1.37-5.69,3.54-7.94,5.96,3.73-11.64,11.58-27.43,28-39.21.97-.69,1.43-1.9,1.17-3.07-.27-1.14-1.21-2.03-2.4-2.24-.23-.04-3.07-.51-6.8-.03,7.09-6.4,19.8-13.11,39.93-8.49.23.08,5.89,2.01,14.26,2.24h.18c8.34-.23,13.98-2.15,13.93-2.15,20.6-4.72,33.33,1.99,40.38,8.42-3.8-.52-6.7-.03-6.93,0-1.18.21-2.13,1.1-2.4,2.25-.27,1.15.18,2.36,1.16,3.07,16.43,11.77,24.28,27.57,28.01,39.21-2.26-2.44-4.92-4.61-7.93-5.98h0Zm-8.66-31.62c1.56.63,3.12,1.55,4.52,2.91,1.04,1.01,2.68,1.13,3.86.31,1.2-.83,1.6-2.4.98-3.69-.15-.3-14.91-29.7-54.67-20.57-.05.01-5.03,1.69-12.34,1.9-7.31-.22-12.29-1.89-12.65-1.99C43.91.93,29.13,30.31,28.98,30.61c-.63,1.3-.22,2.86.97,3.69,1.19.83,2.83.71,3.87-.31,1.39-1.36,2.96-2.29,4.52-2.9-24.12,22.35-25.87,51.71-25.92,53.06-.08,1.45.93,2.75,2.38,3.04,1.45.31,2.9-.47,3.43-1.82.01-.04.66-1.64,1.85-3.88-2.85,10.3-3.65,24.22,3.85,39.67.55,1.13,1.78,1.84,3.04,1.67,1.27-.13,2.32-1.04,2.61-2.27,0-.01.2-.77.64-1.84.2,10.38,3.12,26.84,17.92,37.66,1.05.77,2.47.79,3.54.03,1.06-.74,1.52-2.07,1.14-3.29-.01-.05-.63-2.03-1.18-5.02,2.61,5.53,6.54,11.09,12.43,15.02,1.1.74,2.54.67,3.58-.14,1.03-.81,1.41-2.2.93-3.41-.01-.04-1-2.58-1.48-6.44,4.94,9.7,13.74,22.94,27.45,30.3.45.24.95.37,1.45.37s1-.13,1.44-.37c13.7-7.36,22.51-20.6,27.46-30.3-.47,3.86-1.46,6.4-1.48,6.44-.47,1.21-.11,2.59.93,3.41,1.03.8,2.48.87,3.57.14,5.89-3.93,9.81-9.49,12.43-15.01-.55,2.98-1.15,4.96-1.17,5.01-.38,1.23.08,2.56,1.14,3.29,1.06.74,2.49.74,3.53-.03,14.81-10.81,17.73-27.27,17.92-37.66.44,1.08.64,1.83.64,1.86.3,1.22,1.35,2.13,2.61,2.26,1.36.09,2.49-.54,3.04-1.67,7.5-15.45,6.69-29.38,3.84-39.68,1.19,2.24,1.84,3.85,1.86,3.89.53,1.35,1.97,2.13,3.43,1.82,1.44-.31,2.45-1.59,2.37-3.04-.08-1.35-1.83-30.71-25.95-53.06h0Z" fill="#b6913c"/><path d="m134.58,92.22l-8.8,9.19c-1.87-3.67-4.05-6.92-6.03-9.34-1.05-1.27-2.95-1.47-4.23-.44-1.29,1.03-1.5,2.89-.46,4.16.18.22,17.49,21.68,4.15,32.91-1.09.91-2.7,1.1-4.06.49l-.08-.03-.05-.03-12.48-5.8c-1.1-.51-2.23-.87-3.39-1.11.41-2.81,1.86-7.37,7-9.63,1.31-.56,2.03-1.96,1.72-3.32-.3-1.36-1.53-2.35-2.95-2.35h-17.88c-1.43,0-2.65.99-2.95,2.35-.3,1.37.42,2.76,1.72,3.32,5.16,2.26,6.62,6.8,7.02,9.63-1.16.24-2.3.6-3.4,1.11l-12.62,5.85c-1.34.62-2.97.42-4.06-.49-13.34-11.23,3.97-32.69,4.15-32.91,1.04-1.27.83-3.13-.46-4.16-1.28-1.04-3.18-.83-4.23.44-1.99,2.43-4.18,5.66-6.03,9.33l-8.79-9.18c-5.36-5.58-7.33-13.59-5.18-20.91,3.95-13.45,14.67-28.34,43.19-22.97.37.07.77.07,1.13,0,28.54-5.38,39.25,9.52,43.2,22.97,2.16,7.33.18,15.34-5.16,20.91h0Zm-24.76,48.49c-.3.19-1.12.59-2.11.11-7.45-3.55-16.01-3.55-23.45,0-.97.48-1.81.09-2.11-.11-.31-.19-1.02-.75-1.02-1.81v-5.14l10.87-5.04c1.26-.58,2.61-.88,3.97-.88h.01c1.35,0,2.71.29,3.96.87l10.89,5.05v5.14c0,1.06-.71,1.62-1.02,1.81h0Zm-13.83-98.3c-34.3-6.17-45.77,14.37-49.55,27.25-2.74,9.33-.23,19.53,6.57,26.62l10.62,11.1c-3.04,8.81-3.2,18.74,5.21,25.81,1.77,1.49,3.99,2.27,6.27,2.29v3.41c0,2.79,1.44,5.36,3.84,6.85,1.34.82,2.84,1.24,4.36,1.24,1.22,0,2.44-.26,3.59-.81,5.78-2.77,12.41-2.77,18.2,0,2.56,1.22,5.52,1.05,7.94-.43,2.4-1.49,3.85-4.05,3.85-6.85v-3.5c2.26-.01,4.48-.69,6.24-2.19,8.41-7.08,8.25-17.01,5.22-25.81l10.63-11.11c6.79-7.1,9.31-17.3,6.57-26.62-3.79-12.89-15.24-33.44-49.56-27.26h0Z" fill="#b6913c"/><path d="m71.84,72.11l4.45.82c1.12.21,2.11.84,2.75,1.77l.02.04-4.45-.83c-1.19-.21-2.15-.9-2.77-1.81h0Zm5.57-5l-14.64-2.71c-1.65-.3-3.21.76-3.52,2.36-.31,1.61.77,3.16,2.4,3.46l3.53.66c.5,4.32,3.75,8.02,8.31,8.87l5.66,1.05-.43,2.25c-.31,1.61.77,3.15,2.4,3.46.19.03.37.05.57.05,1.42,0,2.68-.99,2.96-2.42l1-5.18c.52-2.66-.07-5.37-1.62-7.6-1.56-2.23-3.91-3.74-6.62-4.25h0Z" fill="#b6913c"/><path d="m120.13,72.15c-.65.93-1.62,1.56-2.76,1.77l-4.44.82c.61-.91,1.59-1.59,2.78-1.81l4.45-.82-.03.03h0Zm9.08-7.76l-14.63,2.71c-5.59,1.04-9.28,6.35-8.24,11.88l1,5.18c.27,1.43,1.54,2.41,2.96,2.41.18,0,.37-.01.57-.05,1.63-.31,2.71-1.86,2.39-3.47l-.43-2.26,5.67-1.05c2.71-.51,5.07-2.02,6.63-4.26.97-1.38,1.4-2.98,1.58-4.59l3.63-.67c1.63-.31,2.71-1.86,2.4-3.46-.32-1.61-1.84-2.7-3.53-2.36h0Z" fill="#b6913c"/></svg>