<?xml version="1.0" encoding="UTF-8"?><svg id="Text" xmlns="http://www.w3.org/2000/svg" viewBox="0 0 512 512"><path d="m424.74,171.25c-3.2-1.47-6.98-.55-9.19,2.14-2.21,2.71-2.27,6.53-.13,9.31,1.71,2.21,38.56,51.25,16.67,115.07-3.27-4.92-7.77-9.92-13.83-13.6-2.54-1.5-5.77-1.49-8.34.2-2.5,1.68-3.76,4.62-3.24,7.55.09.58,8.76,52.2-21.22,89.6,1.62-13.59,1.75-30.78-3.92-45.96-1.24-3.36-4.8-5.36-8.34-4.86-3.61.53-6.33,3.49-6.55,7.06-.02.41-2.23,35.08-21.4,60.61.67-9.04.25-19.85-2.82-31.35-.86-3.27-3.83-5.57-7.25-5.64-3.49-.11-6.49,2.09-7.5,5.32-.23.67-21.49,67.01-71.7,96.55-50.1-29.49-71.48-95.88-71.7-96.55-.99-3.17-3.99-5.31-7.32-5.31h-.16c-3.43.07-6.38,2.35-7.25,5.63-3.09,11.5-3.51,22.33-2.84,31.35-19.19-25.53-21.36-60.18-21.4-60.61-.22-3.57-2.93-6.53-6.53-7.06-3.53-.53-7.09,1.49-8.34,4.86-5.67,15.2-5.54,32.36-3.94,45.96-29.98-37.4-21.33-89-21.22-89.6.52-2.92-.77-5.89-3.25-7.55-2.5-1.68-5.75-1.72-8.33-.2-6.04,3.66-10.54,8.69-13.81,13.6-21.9-63.79,14.96-112.85,16.67-115.07,2.12-2.76,2.07-6.6-.13-9.31-2.25-2.71-6.04-3.63-9.21-2.14-7.71,3.49-14.48,9-20.21,15.16,9.5-29.63,29.47-69.82,71.26-99.79,2.48-1.77,3.65-4.83,2.97-7.8-.68-2.9-3.07-5.17-6.11-5.7-.58-.11-7.81-1.31-17.32-.07,18.04-16.29,50.39-33.36,101.64-21.6.59.21,15,5.11,36.29,5.7h.45c21.22-.58,35.59-5.47,35.46-5.47,52.44-12.01,84.85,5.06,102.77,21.42-9.67-1.33-17.05-.07-17.64.02-3,.53-5.43,2.8-6.1,5.73-.68,2.94.47,6,2.95,7.8,41.81,29.97,61.79,70.18,71.28,99.81-5.75-6.21-12.52-11.73-20.19-15.21h0Zm-22.05-80.49c3.97,1.59,7.95,3.95,11.51,7.41,2.64,2.58,6.82,2.88,9.84.78,3.06-2.1,4.08-6.1,2.5-9.39-.38-.76-37.96-75.59-139.16-52.36-.13.04-12.8,4.3-31.42,4.85-18.61-.55-31.29-4.81-32.21-5.08C123.41,14.02,85.79,88.8,85.41,89.56c-1.6,3.31-.56,7.27,2.48,9.39,3.02,2.12,7.19,1.81,9.84-.8,3.54-3.45,7.53-5.82,11.51-7.39-61.39,56.89-65.84,131.61-65.98,135.06-.2,3.7,2.37,6.99,6.06,7.75,3.69.78,7.39-1.19,8.74-4.63.04-.11,1.69-4.17,4.71-9.87-7.25,26.22-9.28,61.65,9.8,100.96,1.4,2.87,4.53,4.69,7.75,4.25,3.24-.34,5.92-2.65,6.65-5.78,0-.04.5-1.96,1.62-4.69.5,26.43,7.95,68.32,45.62,95.85,2.66,1.96,6.29,2,9.01.09,2.7-1.89,3.87-5.27,2.9-8.39-.04-.12-1.6-5.17-3-12.79,6.65,14.06,16.65,28.22,31.63,38.23,2.79,1.88,6.46,1.7,9.1-.35,2.62-2.05,3.58-5.59,2.36-8.67-.04-.11-2.54-6.56-3.76-16.4,12.57,24.7,34.98,58.38,69.87,77.11,1.15.62,2.41.94,3.69.94s2.54-.32,3.67-.94c34.87-18.73,57.29-52.43,69.88-77.11-1.21,9.84-3.72,16.29-3.76,16.4-1.21,3.08-.27,6.6,2.36,8.67,2.62,2.03,6.31,2.21,9.1.35,14.98-10.01,24.98-24.15,31.63-38.19-1.4,7.59-2.93,12.63-2.97,12.75-.97,3.13.2,6.51,2.9,8.39,2.7,1.88,6.35,1.89,8.99-.09,37.69-27.51,45.14-69.4,45.62-95.85,1.13,2.76,1.62,4.65,1.64,4.72.76,3.1,3.43,5.41,6.65,5.75,3.47.23,6.33-1.36,7.73-4.25,19.08-39.33,17.03-74.78,9.78-101,3.04,5.7,4.68,9.8,4.73,9.89,1.35,3.43,5.02,5.41,8.74,4.63,3.67-.78,6.24-4.05,6.04-7.75-.22-3.43-4.66-78.16-66.05-135.05h0Z" fill="#b6913c"/><path d="m354.21,246.38l-22.39,23.4c-4.77-9.34-10.3-17.6-15.36-23.77-2.68-3.24-7.5-3.75-10.77-1.13-3.29,2.62-3.81,7.36-1.17,10.6.45.55,44.51,55.18,10.56,83.76-2.77,2.32-6.87,2.8-10.32,1.24l-.2-.09-.13-.07-31.76-14.75c-2.79-1.29-5.68-2.21-8.63-2.81,1.04-7.16,4.73-18.75,17.82-24.5,3.33-1.43,5.16-4.99,4.39-8.46-.77-3.47-3.9-5.98-7.52-5.98h-45.5c-3.63,0-6.74,2.51-7.5,5.98-.77,3.49,1.08,7.02,4.39,8.46,13.15,5.75,16.85,17.32,17.86,24.5-2.95.62-5.84,1.52-8.65,2.83l-32.12,14.9c-3.42,1.57-7.57,1.08-10.34-1.24-33.95-28.59,10.11-83.21,10.56-83.76,2.64-3.24,2.12-7.98-1.17-10.6-3.26-2.64-8.09-2.11-10.77,1.13-5.07,6.17-10.63,14.42-15.36,23.74l-22.37-23.37c-13.63-14.21-18.65-34.58-13.18-53.23,10.05-34.23,37.35-72.14,109.93-58.47.95.18,1.96.18,2.88,0,72.63-13.69,99.9,24.24,109.95,58.47,5.5,18.65.47,39.04-13.13,53.23h0Zm-63.03,123.42c-.77.49-2.84,1.5-5.36.28-18.97-9.04-40.75-9.04-59.69,0-2.48,1.22-4.6.23-5.38-.28-.79-.48-2.61-1.91-2.61-4.62v-13.09l27.68-12.82c3.2-1.49,6.65-2.23,10.11-2.23h.04c3.43,0,6.89.74,10.09,2.21l27.71,12.84v13.09c.02,2.71-1.8,4.12-2.59,4.62h0Zm-35.21-250.21c-87.29-15.71-116.5,36.58-126.12,69.36-6.98,23.74-.58,49.71,16.72,67.75l27.03,28.25c-7.75,22.41-8.15,47.71,13.25,65.7,4.5,3.8,10.16,5.78,15.95,5.82v8.69c0,7.11,3.67,13.64,9.78,17.42,3.4,2.09,7.23,3.15,11.1,3.15,3.11,0,6.22-.67,9.14-2.05,14.71-7.04,31.6-7.04,46.32,0,6.53,3.1,14.06,2.67,20.21-1.1,6.11-3.79,9.8-10.3,9.8-17.42v-8.9c5.75-.04,11.4-1.77,15.88-5.57,21.4-18.03,21-43.29,13.29-65.68l27.06-28.29c17.28-18.06,23.68-44.03,16.72-67.75-9.64-32.8-38.79-85.11-126.15-69.38h0Z" fill="#b6913c"/><path d="m194.5,195.18l11.33,2.09c2.86.53,5.36,2.14,7,4.51l.05.11-11.33-2.1c-3.02-.53-5.47-2.28-7.05-4.6h0Zm14.17-12.74l-37.26-6.9c-4.21-.76-8.16,1.95-8.96,6.01-.79,4.1,1.96,8.03,6.11,8.81l8.99,1.68c1.28,10.99,9.55,20.41,21.15,22.57l14.41,2.67-1.1,5.73c-.79,4.09,1.96,8.03,6.11,8.81.49.09.95.12,1.44.12,3.61,0,6.83-2.53,7.53-6.16l2.54-13.2c1.31-6.78-.18-13.66-4.12-19.35-3.97-5.68-9.95-9.52-16.85-10.81h0Z" fill="#b6913c"/><path d="m317.41,195.29c-1.65,2.37-4.14,3.98-7.01,4.51l-11.31,2.09c1.56-2.32,4.05-4.05,7.07-4.6l11.33-2.09-.07.09h0Zm23.11-19.74l-37.24,6.9c-14.22,2.64-23.63,16.17-20.97,30.23l2.55,13.18c.68,3.63,3.92,6.14,7.53,6.14.47,0,.95-.04,1.44-.12,4.15-.8,6.89-4.74,6.08-8.83l-1.1-5.75,14.42-2.67c6.9-1.29,12.89-5.13,16.87-10.84,2.46-3.52,3.56-7.57,4.03-11.69l9.24-1.72c4.15-.78,6.89-4.72,6.11-8.81-.81-4.09-4.69-6.88-8.97-6.01h0Z" fill="#b6913c"/></svg>