<svg xmlns="http://www.w3.org/2000/svg" xmlns:xlink="http://www.w3.org/1999/xlink" width="315.048" height="495.643" viewBox="0 0 315.048 495.643">
  <defs>
    <clipPath id="clip-path">
      <rect id="Rechteck_2089" data-name="Rechteck 2089" width="315.048" height="495.643" transform="translate(0 0)" fill="none"/>
    </clipPath>
  </defs>
  <g id="Gruppe_3838" data-name="Gruppe 3838" transform="translate(0 0.001)">
    <g id="Gruppe_3837" data-name="Gruppe 3837" transform="translate(0 -0.001)" clip-path="url(#clip-path)">
      <path id="Pfad_6017" data-name="Pfad 6017" d="M280.624,22.233c-2.9,8.017-5.742,16.061-8.6,24.092q-3.03,9.526-6.061,19.041a4.7,4.7,0,0,1-.272.488c-.1.134-.249.334-.323.321-1-.146.533-2.877-.573-2.955-2.45,5.3-3.595,10.771-5.182,16.138-1.186,4.792-4.36,4.582-6.18,7.774.06-.81.126-1.624.189-2.441,2.273-7.045,4.626-14.076,6.434-21.2.231-.828.449-1.656.612-2.5,1.829-5.407,3.487-10.822,3.711-16.185q.577-1.653,1.151-3.3,3.356-9.421,6.7-18.847c.146-.286.288-.567.437-.851,1.139-2.994,1.495-5.181-1.059-4.372a6.015,6.015,0,0,0-1.45,2.42,22.253,22.253,0,0,0-1.41,4.936c-.021.066-.044.136-.068.212a4.35,4.35,0,0,0-1,1.046,8.2,8.2,0,0,0-1.189,2.914,60.934,60.934,0,0,1-1.719,5.913,8.04,8.04,0,0,1-1.7,2.007c-.373.861-.706,2.161-1.347,2.152-.795-.019-.173-1.388-.066-2.232.111-.919.253-1.851.381-2.77,0-.008-.01-.008-.018-.012a.014.014,0,0,0,.008-.012l.01.024c2.8-3.863,1.6-7.688,2.729-11.535.2-.886.564-2.422.039-2.249-1.289.435-1.363,2.65-2.072,4.016l.027.029a.179.179,0,0,1-.01.03.305.305,0,0,1-.018-.059c-2.341,3.289-3.166,7.229-4.259,11.106-1.829,6.485-3.8,12.954-7.008,18.868-.811,1.487-1.7,3.864-2.953,2.44,1.232-5.078-1.046-6.03-2.875-6.815-2-.863-2.646,3.463-3.907,5.394-.843,1.306-1.23,3.31-2.041,4.737-.842,1.472-.752-.214-1.04-.587-.21.134-.418.274-.622.41-.05.056-.087.123-.132.181-1.5.657-3.007-1.345-4.483,2.542l0,0a9.678,9.678,0,0,0-2.346,6.046.928.928,0,0,0-.018.614,7.468,7.468,0,0,1-1.749,3.2c-.21-.105-.422-.21-.632-.309,1.1-3.381,2.725-6.687,2.934-10.19.058-.793.115-1.59.177-2.386-.54.22-1.067.438-1.608.657-.4-.155-.809-.3-1.213-.455.22-2.019-.577-1.421-1.106-.21-1.071,2.434-1.934,5-2.879,7.511-.669.235-2.465,3.816-1.66-.231a64.8,64.8,0,0,1,2.49-7.783.344.344,0,0,1,.041,0,3.022,3.022,0,0,0,1.063-.86c2.113-2.655,2.286-6.133,3.435-9.206,1.135-8.732.043-10.651-4.384-7.706-.894,2.485-2.191,5.021-3.719,5.694-3.213,1.4-4.076,4.815-4.833,8.664a.324.324,0,0,1,.035.053c-.006,0-.01.013-.016.015l-.019-.068c-.857.465-1.689,3.172-2.574,1.577,1.368-1.977,1.758-3.7.5-4.687-.982-.772-.966-2.356-.8-4.138,1.234-3.628-1.415-3.785-1.073-6.617-.537.227-1.075.458-1.608.69q-1.2,1.443-2.391,2.888c-.729-.107-1.6-.573-2.132,1.318-1.2,4.244-3.523,5.7-5.433,6.11-2.084.453-.76-3.775-1.295-5.6l-.025.014c-.327-.8-.062-2.593-1.285-1.9a4.118,4.118,0,0,0-1.594,2.7,36.278,36.278,0,0,0-1.075,5.789,3.128,3.128,0,0,0-.029.748c-.649,1.839-1.3,3.665-1.95,5.5.432-2.4-.754-2.5-1.623-3.052.206-3.546-1.777-4.932-1.819-8.242.112-.342.214-.688.315-1.03q.79-2.216,1.585-4.434a.851.851,0,0,0,.387-1.11c.109-.354.225-.712.356-1.065a31.787,31.787,0,0,1,.5-3.213c.5-1.984,1.617-4.761-.1-4.73-1.594.034-2.059,3-2.48,4.873a55.2,55.2,0,0,1-2.315,7.659c-.348-3.969-2.752.224-4.012-.138l-.01-.019c-1.127,1.058-1.594,2.767-2.249,4.306-.816,1.922-1.664,2.77-2.506,1.477,1.888-3.27,3.118-6.44,1.635-9.234C181,43.281,180.864,46,179.426,47.057l-.062.062c0-.015.006-.035.006-.05l.056-.012a144.257,144.257,0,0,0,5.06-18.133c-.406-.142-.814-.28-1.215-.42-2.782,4.807-4.4,10.254-6.135,15.538-.8,2.432-2.257,2.646-2.36,2.29-1.059-3.758-2.191,1.1-3.239,1.719a39.951,39.951,0,0,0,1.528-8.178c.2-1.182.389-2.368.587-3.552-2.86-4.06-2.929-4.037-5.443,1.8.006,0,.012.03.012.03-.265.735-.527,1.475-.791,2.212-.684,1.466-.873,3.349-2.282,4.549-.69-1.2-.671-3.581-2.1-3.7q.749-2.187,1.5-4.372c.266-.738.537-1.474.807-2.212-1.495-.834-3.079-.438-4.821,2.016-.527,1.481-1.05,2.964-1.579,4.445-1.11,2.941-2.276,4.761-3.651,2.5l0,0,0,0c-.062-.453-.123-.9-.189-1.357a160.871,160.871,0,0,1,5.313-16.85c.146-2.529-1.133-2.03-2.29-1.653-1.176.393-1.586,1.849-1.987,3.435-.408,1.641-1,3.274-1.5,4.907-1.454,4.412-3.328,8.586-5.169,12.816-2.854,6.553-2.75,6.633-6.386,4.29.879-3.027,2.613-5.95,2.547-9.092,1.988-5.165,2.681-10.6,4.879-15.722a0,0,0,0,0,0-.006c.015,0,.029.006.039,0,1.88-4.911,2.753-9.887,3.9-14.848-.064-.441-.132-.891-.2-1.332l0,0A17.58,17.58,0,0,0,155.77,0c-2.962,3.27-7.793,16.821-8.3,23.306a.242.242,0,0,0,.049-.015,317.345,317.345,0,0,1-9.821,31.452c-1.31,3.671-2.729,7.319-3.878,11.02-.665,2.145-1.868,3.964-2.681,3.647-2.537-.974-2.891,3.3-4.459,5.911,2.259-8.849,4.286-16.792,6.32-24.734l0,.006,0-.006c.455-1.915.917-3.833,1.372-5.748,1.88-6.7,4.3-13.382,5.215-20.131a5.293,5.293,0,0,0,.439-.413,6.263,6.263,0,0,0,1.365-2.956c.019-.476.08-.978.146-1.491a12.627,12.627,0,0,0,1.254-4.483c.138-3.818,2.8-8.042,2.113-11.726l.008-.014c-.367-1.8-1.641-1.712-2.646-2.182-.212-.07-.424-.138-.636-.206-.935.08-1.864.158-2.8.234a9.259,9.259,0,0,0-3.367,7.544q-4.916,15.742-9.821,31.484c.121.318.3.448.527.425-1.946,6.316-5.083,12.346-6.034,18.9q-1.379,3.84-2.756,7.69c-1.011.792-1.8,3.132-2.931,2.708-.6-.226-.266-1.5.13-2.323,2.214-4.6.861-7.152.121-10.07q-.6-.216-1.2-.435c.254-.739.519-1.474.781-2.214-.29-1.512.6-3.266.8-4.876.115-.979,0-1.963-.7-1.537-.455.28-.9,1.438-1.353,2.2-.206-.056-.4-.117-.6-.175q-1.624,4.54-3.233,9.074a179.362,179.362,0,0,0-6.45,17.822c-.1.153-.2.309-.288.472-3.231,5.214-3.752,12.28-7.583,17.184,1.021-3.353,3.379-6.631,2.541-9.975,1.042-3.769,3.215-7.362,3.307-11.274a2.066,2.066,0,0,0,.638-.22c2.059-1.7,2.955-4.541,3.385-7.255.534-3.443,1.5-6.85,2.268-10.27,2.494-5.847,3.586-12.027,5.705-17.959.13-.374.26-.743.391-1.11.867-3.118,3-6.343,1.954-9.3.132-.373.264-.745.392-1.114.63-1.827,1.291-3.654,1.878-5.491.36-1.125.632-2.461-.012-2.832-.752-.435-1.275,1.016-1.781,1.963a65.715,65.715,0,0,0-5.5,11.942c-.149,1.613-.2,3.262-1.571,4.436-3.345,4.912-4.908,10.911-7.08,16.542-.115.467-.264.9-.406,1.334-1.036.469-1.287,1.9-1.536,3.338a18.855,18.855,0,0,1-1.491,2.162c-.41.734-.786,1.506-1.205,2.227-1.433,3.26-2.129,7.084-4.469,9.457.848-2.031,2.8-4.282,1.779-6.453-.449-.953-1.248-.432-2.006.513-.023-.007-.05-.021-.078-.031.053-.8.105-1.608.161-2.416q.985-2.776,1.979-5.552l.022,0c.291-1.09.843-2.424.212-2.972-.71-.62-1.326.595-1.775,1.685A101.788,101.788,0,0,0,86.2,76.416c-.264.735-.527,1.477-.785,2.215-1.357,1.154-1.827,2.6-2.541,4.862-1.561,4.955-2.027,10.427-5.163,14.88-2.578,7.416-5.6,14.719-7.27,22.368a2.525,2.525,0,0,0-.713,2.148c-.029.043-.049.084-.078.126-1,5.9-3.6,11.436-5.406,17.153-1.271,4.011-3.429,7.877-3.639,12.076l0,0c-1.817,6.017-4.823,11.755-5.7,17.984q-2.732,7.718-5.462,15.435c-1.468,6.907-3.763,13.689-5.9,20.516-3.275,10.505-7.181,20.936-9.241,31.64-2.931,8.58-5.725,17.188-7.857,25.918a.449.449,0,0,0,.056-.043c.006.012,0,.025,0,.041-.021,0-.039,0-.058,0q-6.791,21.286-13.582,42.579c-1.679,5.239-3.392,10.462-5.085,15.7Q3.889,332.954,0,343.9c.284.118.568.241.846.358a95.123,95.123,0,0,1,5.843-11.423c1.608-1.236,1.716-4.2,3.589-6.236-1.474,4.152-2.712,7.632-3.952,11.117-1.326,3.81-2.681,7.606-3.95,11.434-.41,1.244-.8,2.832-.179,3.466.764.784,1.433-1.474,2.218-1.825-.75,5.177-3.512,10.917-2.074,15.48.018,1.246.029,2.488.045,3.734,2.125.134,2.949-2.619,3.886-5.152,1.374-3.707,2.309-7.8,5.078-10.31.165.064.338.126.511.187-.092.328-.179.665-.26,1-.945,5.373-4.551,12.482.466,13.971l.4-1.073c1.99,3.437.212,9.362.505,13.92.084,1.7.16,3.394.243,5.089-.82,2.274-.608,3.6.692,3.937l.556.243q-.586,1.656-1.161,3.318l.029-.027c-1,3.317-3.172,6.926-1.4,9.531-.235.291-.478.593-.713.9a4.361,4.361,0,0,0-.431,2.437c-.061.813-.126,1.623-.183,2.436-1.215,4.288,1.028,1.94,2.021,1.982-.122.359-.239.721-.367,1.085q-.988,2.776-1.979,5.554c-.192,1.18-.389,2.364-.579,3.544a51.723,51.723,0,0,0-1.621,4.93c-.389,1.709-1.441,4.788-.187,4.623,1.369-.181,3.033,2.506,4.7-2.284.83-.875,1.786-1.405,2.4-2.9.6-1.034,1.188-2.073,1.784-3.11l.006,0c2.744.589,3.023-3.536,4.195-5.962.2.06.4.115.595.167,1.532-2.782,1.956-5.955,3.157-8.855.268.513.54,1.023.811,1.536-.124.365-.251.735-.379,1.1-.7,2.288-2,4.551-1.732,6.874.928-.074,1.857-.152,2.786-.223-.4,2.358-1.545,5.672-1.046,6.885,1.295,3.132-.3,6.335-1.423,9.7,1.835-.039.189,3.625.7,5-.061.157-.134.3-.2.467-.544,1.584-1.046,3.159-.618,4.483.336-.3.673-.6,1-.9a26.141,26.141,0,0,0,8.252-11.831c1.713-4.72,5.1-5.951,6.866-10.256.127-.307.441.725.443,1.4.708,1.824,1.612,2.83,3.429-.031a.927.927,0,0,1-.3-.28,1.016,1.016,0,0,1,.3.28l0-.006c.507,1.225,1.4.163,2.208-.447-.123.362-.251.725-.373,1.085.855-.508,1.709-1.021,2.564-1.526-.113.363-.225.727-.334,1.09q-1.741,5.82-3.486,11.634c-.426,1.425-1.275,3.145-.367,3.919.785.67,1.809-.521,2.725-1.419a19.462,19.462,0,0,0,3.456-5.577c2.191-4.683,4.323-9.41,6.479-14.117.8.389.754,1.794,1.024,2.817q-.668,2.872-1.336,5.731c-.877,2.282-.653,3.6.611,4.009.01,1.25.025,2.5.037,3.747-.333,1.534-1.89,3.783-.861,4.4.943.566,2.558-.633,3.6-2.838.576-1.213,1-2.528,1.5-3.8,1.157-6.619,6.646-10.5,7.509-17.305.548-.239,1.093-.473,1.637-.712.358.167.717.336,1.073.505a31,31,0,0,1-2.194,10.346,29.274,29.274,0,0,0-1.489,15.726c-.2-.07-.41-.142-.614-.214-.665,3.53-.256,5.748,2.339,2.525,2.679-3.34,3.167-1.928,3.336,1.089a3.041,3.041,0,0,0,1.036,2.523.6.6,0,0,0,.058.472c.087.179.272.093.546-.255l1.392-5.795c.435,1.94-.451,4.817.416,6.45-.67,6.418-.647,6.684,1.648,4.588a2.351,2.351,0,0,0,.181.663,1.678,1.678,0,0,0,1.744.712c5.227-.644,5.218-.646,4.181,7.879a18.95,18.95,0,0,0-.313,3.765c2.681-.418,2.348,2.368,1,5.344-2.237,4.939-2.41,8.755-1.038,12.116a4.93,4.93,0,0,0,1.75-2.752c.254,1.249.628,1.969,2.039-2.1.2.064.4.123.6.173.171.066.342.127.515.189a5.265,5.265,0,0,0-.3,3.814c.675.885,1.232.155,1.936-1.19.764-1.462,1.423-1.555,1.71-.183A15.212,15.212,0,0,0,90.6,487.54c.107.758-.105,1.971.824,1.542.4-1.108.787-2.219,1.184-3.328.26-.741.525-1.475.787-2.218,1.133-1.872,2.253-3.8,3.874-4.156-.025,3.328-1.946,8.6,1.919,7.758a4.97,4.97,0,0,0,.719-.916,1.242,1.242,0,0,0,.626.276c-.047.245-.105.486-.144.733-.377,2.809-3.155,6.361-1.032,8.411,1.547-4.815,3.722-9.467,4.656-14.449.191-1.019.937-3.032,1.427-2.2,2.56,4.4,2.735-1.592,3.676-3.645.5-1.1.352-2.922,1.536-3.223,1-.252.916,1.388.966,2.512.043,1.1-.175,2.376-.414,5.177a17.046,17.046,0,0,1,5.894-9.078,1.253,1.253,0,0,1,1.821.643c.136-.367.266-.734.395-1.1q1.887-4.321,3.759-8.648a9.722,9.722,0,0,0,5.009-4.471c-.08-.441-.157-.888-.239-1.33.14-.366.282-.734.42-1.1,2.284-7.513,6-14.647,7.3-22.415,1.328-3.95,2.138-1.353,3.145-1.287l.072-.064c0,.012,0,.022.006.033-.024.008-.049.019-.078.031-1.54,3.174-.663,6.106-1.874,9.245-.978,2.547-2.027,4.759.488,5.044,1.668.189,3.242,1.085,3.882,4.03.581,2.673,2.451,2.772,4.411-1.182.688-1.4,1.9-3.552,2.243-2.016,1.122,4.963,2.976-.332,4.535-1.585q-1.484,3.231-2.974,6.458c.336,2.852,2.345,2.45,3.606,3.524,2.265,1.935,2.871,5.878,3.174,10.114.07.443.138.886.208,1.33.146.879.29,1.763.432,2.64.4.148.809.29,1.215.432-.039,2.793.947,3.167,2.747,1.7,1.295-1.062,2.6-2.057,3.905-3.083,2.084-4.805,2.605-2.148,3.274-.256,1.5,4.249,4.337,5.332,7.443,2.82a7.051,7.051,0,0,0,1.788-3.108c1.378.494,2.755.991,4.216-2.249,1.88.725,3.736,1.967,5.834-2.924a17.286,17.286,0,0,1,1.487-3.763c3.425-4.456,5.781-9.807,8.473-15.082a70.393,70.393,0,0,1,7.764-11.9c2.232-2.681,4.026-4.862,5.14-8.58.4-1.108.787-2.219,1.184-3.326-.2-.072-.4-.148-.611-.22q1.577-4.429,3.149-8.868l0,0a28.1,28.1,0,0,0,4.339-12.2c.13-.367.259-.731.395-1.1s.247-.756.373-1.132q6.132-17.233,12.268-34.466c.987-2.772,2.012-5.527,1.5-8.071a27.75,27.75,0,0,1,1.75-6.637c2.2-6.794,5.637-13.158,7.1-20.187,1.846-2.02,2.294-5,3.361-7.552q.881-3.432,1.759-6.86c.13-.367.263-.747.393-1.114.465-.665.931-1.33,1.4-2,5.033-14.846,10.834-29.47,15.139-44.541.249-.7.5-1.4.749-2.1.2.021.4-.043.626-.4,1.625-2,1.709-4.191,1.79-6.384q4.919-13.854,9.848-27.711l2.362-6.654a8.989,8.989,0,0,0,1.8-5.709,26.828,26.828,0,0,1,4.57-13.79c1.835-2.933,3.6-6.082,2-9.323-.945-1.925.089-5.221,1.468-7.867,2.444-4.679,3.81-9.8,5.674-14.709.908-2.382,1.33-4.527-.066-5.546q1.376-3.881,2.758-7.758c1.789-6.009,4.9-11.714,5.692-17.955q.793-2.222,1.579-4.43c2.894-6,4.889-12.371,7.082-18.693.859-2.486.787-3.449-.412-3.917l-.006,0c-.2-.072-.41-.142-.614-.22v0l1.571-4.407q1.187-3.342,2.381-6.675c.861-2.271.69-3.424-.262-4.767-.42-.593-2.593-.572-1.176-3.433,1.93-3.9,2.381-7,.886-9.488.426-1.58,1.419-3.7-.021-3.93-1.213-.2-2.292.96-2.8,3.4-.251,1.2-.466,3-1.588,3-1.007,0-.47-1.8-.317-3.013.229-1.839.439-3.657-.181-4.934-1.806,1.036-2.177,3.577-3.021,5.629a34.568,34.568,0,0,0-1.584,6.415c-.138.62-.26,1.234-.35,1.845-1.775,7.054-4.7,13.766-6.969,20.668.391-3.2,2.064-6.215,2.963-9.348.313-1.089.894-3.219.692-3.093-3.431,2.187-.82-3.248-1.988-4.788-1.042,2.937-1.88,5.44-2.823,7.894-.6,1.573-.96,4.08-2.135,4.364-1.712.41-.233-2.861-.686-4.059,1.271-4.322,2.646-8.662,2.5-12.811,3.225-7.072,2.926-8.375-1.888-8.145,0,0,0,0,0-.006l-.61-.23c-.13.37-.26.737-.395,1.1-1.579.591-1.707,2.576-2.181,4.225-.7,2.293-1.961,4.557-1.778,6.891-.346.776-.869,2.374-1.17,1.845-.41-.725-.186-2.373-.233-3.62.066-.816.123-1.629.185-2.441.128-1.262.319-2.551.365-3.768.049-1.3.681-3.265-.587-3.3-1.065-.029-1.825,1.5-2.533,2.811a13.391,13.391,0,0,0-1.372,3.124,79.021,79.021,0,0,1-6.413,17.34c.157,1.866-1.948,3.744-1.415,5.606-.886-.949-1.4-1.269-1.973-.609a5.806,5.806,0,0,0,.36-2.3c-.07-.023-.144-.05-.216-.074l.008-.019c.27-.931.571-1.856.885-2.774.688-3.69,2.891-7.532,2.228-11.074-.2-.08-.4-.154-.595-.229.494-1.571,1.19-3.157.986-4.673.7-2.278,1.956-4.533,1.746-6.847-.064-3.4-3.53-1.611-3.968-4.442.056-.06.1-.107.161-.177a22.857,22.857,0,0,0,1.262-2.332c1.641-6.11,3.231-12.225,5.033-18.32.6-2.043,1.448-4.067,1.05-5.911q-.294-.12-.589-.249c.049-.951,1.666-4.011-.639-1.823a10.146,10.146,0,0,0-2.345,5.091c-.756,3.851-1.732,7.369-4.583,9.847a2.9,2.9,0,0,0-.566,4c-.128.367-.259.736-.389,1.1a22.859,22.859,0,0,0-5.9,12.29c-.274,1.919-1.069,4.253-2.84,4.588q.187-.554.391-1.11c1.518-1.653,1.133-3.139.962-4.646.692-2.337,1.957-4.619,2.142-7,.185-.522.364-1.04.558-1.559,3-7.416,4.561-15.219,7.414-22.682,1.765-6.218,4.294-12.476,4.189-18.623-.155-2.607,1.3-5.093,2.016-7.634.391-1.376,1.6-3.416.649-3.952-1.213-.681-1.87,1.776-2.412,3.269" transform="translate(0 0.001)" fill="#dfeee1"/>
    </g>
  </g>
</svg>
