<svg xmlns="http://www.w3.org/2000/svg" xmlns:xlink="http://www.w3.org/1999/xlink" width="244" height="73" viewBox="0 0 244 73">
  <defs>
    <clipPath id="clip-path">
      <rect id="Rechteck_5348" data-name="Rechteck 5348" width="244" height="73" transform="translate(1348 1010)" fill="none"/>
    </clipPath>
  </defs>
  <g id="Gruppe_maskieren_29" data-name="Gruppe maskieren 29" transform="translate(-1348 -1010)" clip-path="url(#clip-path)">
    <path id="Pfad_11388" data-name="Pfad 11388" d="M237.383,31.644a.718.718,0,0,0,.319-.721c-.266-.36-.9-.684-.531-1.221a.549.549,0,0,0-.154-.753,3.432,3.432,0,0,1-.842-1.222,5.228,5.228,0,0,0-.9-1.222,1.817,1.817,0,0,0-.79-.575,1.352,1.352,0,0,1-1.209-.966,1.588,1.588,0,0,0-.577-.684,41.892,41.892,0,0,0-5.524-3.771,9.879,9.879,0,0,0-4.682-1.363,2.916,2.916,0,0,1-.63-.218,20.832,20.832,0,0,1-2.47-2.836c.418-.214.79-.4,1.208-.575,1.369-.611,2.789-1.185,4.157-1.8a9.556,9.556,0,0,0,2.211-1.291,1.165,1.165,0,0,0,.578-1.436c-.213-.574-.106-1.185-.318-1.76a11.9,11.9,0,0,0-1.262-2.407,4.427,4.427,0,0,0-1.946-1.938c-.265-.11-.366-.433-.471-.684a3.253,3.253,0,0,0-1.633-1.582,1.189,1.189,0,0,0-.79-.1c-.525.141-1,.392-1.521.574a3.468,3.468,0,0,1-.764.1,2.011,2.011,0,0,1,.34-.46c.95-.862.9-1.4-.106-2.084A3.234,3.234,0,0,0,217.031,0a20.461,20.461,0,0,0-2.582.183c-1.367.214-2.523.68-2.889,1.723a2.635,2.635,0,0,1-1.633,1.328c-.419.182-.843.36-1.261.5-3.679,1.295-7.365,2.622-11.1,3.88-5.524,1.8-11.208,3.305-16.831,4.847-5.419,1.545-11,2.909-16.621,4.095-6.467,1.258-13.047,2.48-19.567,3.629-8.466,1.472-16.932,2.836-25.351,4.273-7.942,1.331-15.989,2.48-24.143,3.305-2.942.287-5.943.611-8.885.935-3.207.356-6.474.68-9.734,1-3.366.323-6.68.647-10.046.971-3.626.36-7.31.715-10.936,1-4.21.324-8.473.648-12.676.935-1.74.11-3.473.214-5.206.36-2.583.178-5.212.4-7.788.611-2.205.178-4.417.324-6.628.5-2.417.183-4.787.36-7.2.538-2.683.218-5.312.469-8.048.647A15.833,15.833,0,0,0,.962,37.494a1.336,1.336,0,0,0-.366.287,1.626,1.626,0,0,0-.472,1.869,1.909,1.909,0,0,0,1.734,1.185c.105,0,.158.073.265.11A1.131,1.131,0,0,0,2.7,42.523a1.725,1.725,0,0,1,.9,1.222.936.936,0,0,0,.578.862c.631.178,1.049.611.943,1.076a1.047,1.047,0,0,0,.577.862c.632.506,1.633.757,2.105,1.4a11.518,11.518,0,0,0-.26,1.327,4.1,4.1,0,0,0,.1,1.582A21.433,21.433,0,0,0,8.8,53.694a7.192,7.192,0,0,0,1.893,2.44c1.367,1.116,2.788,2.192,4.21,3.305a2.936,2.936,0,0,0,1.415.684,2.394,2.394,0,0,1,1.474.825,10.657,10.657,0,0,0,6.945,2.44c2.47.037,4.994.182,7.523.255,2.683.069,5.359.106,8.095.178a.33.33,0,0,1,.213.073c-.106.069-.213.251-.312.251-.95.1-1.9.178-2.842.287a2.252,2.252,0,0,0-1.739.788c.212.5.478,1.077.684,1.651a.5.5,0,0,1-.419.433,11.275,11.275,0,0,1-1.156.141l-5.206.218a9.612,9.612,0,0,0-1.739.142,7.24,7.24,0,0,0-3.732,2.12,2.06,2.06,0,0,0,.684,2.763c.106.037.153.073.259.11.95.214,1.845.433,1.527,1.331-.053.106.106.251.213.357a5.957,5.957,0,0,0,2.576,1.222A45.031,45.031,0,0,0,35.729,77a5.486,5.486,0,0,1,1.367.287,7.3,7.3,0,0,0,2.523.356c1.527,0,3.107.037,4.634-.032,2-.073,4.045-.255,6.042-.36,5.159-.251,10.259-.5,15.358-.789,2.948-.182,5.948-.36,8.944-.578,4.05-.32,8.047-.68,12.1-1.04,3.525-.324,7.1-.684,10.623-1q4.024-.43,8.047-.647c.366,0,.79-.037,1.156-.073,3.738-.4,7.417-.825,11.149-1.258,4-.465,7.948-.931,11.992-1.4s8.047-.9,12.044-1.328c4.528-.469,9-.971,13.466-1.509,2.052-.214,4.05-.5,6-.825.843-.182,1.687-.251,2.523-.4,3-.5,6.1-.684,9.156-1.077,1-.182,2.051-.324,3.1-.433a61.156,61.156,0,0,0,7.683-1c2.729-.506,5.572-.611,8.2-1.295,2.317-.1,4.522-.611,6.786-.935a25.965,25.965,0,0,0,5.524-1.112,5.266,5.266,0,0,1,1.68-.251c2.264-.141,4.528-.611,6.839-.647a3.53,3.53,0,0,0,.843-.106c2.257-.323,4.468-.757,6.68-1.294a14.069,14.069,0,0,0,4.363-1.865c-.312-.648-1.1-1.185-.578-1.906.106-.142-.052-.4-.158-.575-.053-.11-.259-.214-.312-.324a5.289,5.289,0,0,0-.737-1.865c-.053-.072.105-.287.212-.323a4.718,4.718,0,0,1,1.049-.324c1.1-.214,2.264-.36,3.366-.575a2.041,2.041,0,0,0,1.527-.825,2.064,2.064,0,0,1,1-.684c.79-.324,1.633-.611,2.524-.935s1.686-.648,2.529-1c.053-.037.053-.182.053-.287,0-.037-.213-.073-.266-.073-.79.037-1.527.106-2.316.179a.473.473,0,0,1-.207-.073c0-.106-.053-.287.053-.32.578-.255,1.209-.469,1.786-.684a6.9,6.9,0,0,0,1.209-.538.779.779,0,0,0,.212-.538c0-.183-.371-.324-.631-.287-.371.068-.737.141-1.108.214a2.6,2.6,0,0,1-1.1-.056,12.867,12.867,0,0,0,2.84-1.056c0-.251-.052-.433-.052-.611-.16-1.044-.632-2.047-.319-3.124a1.017,1.017,0,0,0-.153-.757c-.106-.4-.318-.752-.424-1.149a1.258,1.258,0,0,1,.524-1.473,19.332,19.332,0,0,0,1.793-1.545.413.413,0,0,0-.106-.716c-.318-.178-.577-.433-.419-.684a4.793,4.793,0,0,1,1.049-1.829M212.032,6.356a1.192,1.192,0,0,1-.366.287c-1.422.579-2.789,1.185-4.21,1.76a5.68,5.68,0,0,1-1.315.255,3.272,3.272,0,0,1-.424-.218c-.046-.037.053-.142.106-.178,1.893-.753,3.844-1.509,5.79-2.226.1-.037.312.069.471.141.053,0,0,.146-.052.178m4.468-2.08a4.1,4.1,0,0,1,2.274-1.034c.012.047.029.109-.01.136a3.554,3.554,0,0,1-2.237,1.036c-.04-.056-.069-.108-.027-.137m-1.314,5.494c-.053.069-.16.069-.206.142s.046.109.046.182c-.631-.073-1.261.178-1.839-.037l-.206.287a1.451,1.451,0,0,1,.206-.287,2.329,2.329,0,0,1,1.839.037l-.206-.324c-.106-.145-.053-.251.16-.287h.471c-.053.106-.212.215-.265.287m.63-5.244c0-.037.16-.109.213-.109a2.987,2.987,0,0,1,.449.027c-.083.1-.1.193-.291.259-.212.073-.371,0-.371-.178m.266,9.051c.212-.145.418.069.631.069,0-.178-.16-.5-.106-.538a12.445,12.445,0,0,1,3.155-1.254,1.117,1.117,0,0,1,.265.068c.212.073.212.182,0,.287-.631.287-1.262.538-1.893.83l-1.421.607Zm1.049,1.505c.053-.069.053-.141.105-.178a8.785,8.785,0,0,1,3.054-1.258,2.762,2.762,0,0,1,1.793-.711c-.007-.014,0-.027-.007-.042a.636.636,0,0,0,.072.018.2.2,0,0,1,.293-.091c.053,0-.052.11-.1.11a.823.823,0,0,1-.194-.019c0,.009-.015.009-.019.019s-.031,0-.046.005a.3.3,0,0,1-.165.423,3.179,3.179,0,0,1-1.367.506,7.893,7.893,0,0,1-2.942,1.363,4.171,4.171,0,0,1-.478-.145m15.2,29.989c-.212.037-.318-.033-.212-.141s.195-.17.289-.266c.02.075.048.167.076.3,0,.036-.105.1-.153.1" transform="translate(1354.768 998.18) rotate(5)" fill="#b7923d"/>
    <path id="Pfad_36867" data-name="Pfad 36867" d="M0,0,237.374-3.864l-1.262,63.228L-1.262,63.228Z" transform="translate(1354.769 1007.361) rotate(5)" fill="none"/>
  </g>
</svg>
