<svg xmlns="http://www.w3.org/2000/svg" xmlns:xlink="http://www.w3.org/1999/xlink" width="210" height="99.966" viewBox="0 0 210 99.966">
  <defs>
    <clipPath id="clip-path">
      <rect id="Rechteck_2256" data-name="Rechteck 2256" width="210" height="99.966" transform="translate(0 -0.001)" fill="none"/>
    </clipPath>
  </defs>
  <g id="Gruppe_4077" data-name="Gruppe 4077" transform="translate(0 0)">
    <g id="Gruppe_4076" data-name="Gruppe 4076" clip-path="url(#clip-path)">
      <path id="Pfad_11388" data-name="Pfad 11388" d="M209.709,40.735a1.137,1.137,0,0,0,.282-.928c-.235-.463-.792-.88-.469-1.572a.926.926,0,0,0-.136-.969,4.852,4.852,0,0,1-.744-1.573,7.21,7.21,0,0,0-.792-1.573,1.81,1.81,0,0,0-.7-.74,1.429,1.429,0,0,1-1.068-1.244,2.045,2.045,0,0,0-.51-.881,40.171,40.171,0,0,0-4.88-4.854,6.885,6.885,0,0,0-4.136-1.755c-.135,0-.276-.141-.557-.281a26.485,26.485,0,0,1-2.182-3.651c.369-.276.7-.511,1.067-.74,1.209-.786,2.464-1.526,3.672-2.312A8.466,8.466,0,0,0,200.511,16a1.846,1.846,0,0,0,.511-1.849c-.188-.739-.094-1.526-.281-2.265a18.594,18.594,0,0,0-1.115-3.1,5.221,5.221,0,0,0-1.719-2.495c-.234-.141-.323-.557-.416-.88a3.785,3.785,0,0,0-1.443-2.037.765.765,0,0,0-.7-.135c-.464.182-.88.5-1.344.739a2.169,2.169,0,0,1-.675.129,2.762,2.762,0,0,1,.3-.592c.839-1.11.792-1.8-.094-2.683A2.32,2.32,0,0,0,191.73,0a12.522,12.522,0,0,0-2.281.235A3.009,3.009,0,0,0,186.9,2.453a2.794,2.794,0,0,1-1.443,1.709,12.416,12.416,0,0,1-1.114.645c-3.25,1.667-6.506,3.375-9.8,4.995-4.88,2.313-9.9,4.255-14.869,6.24-4.787,1.989-9.714,3.745-14.683,5.271-5.713,1.619-11.526,3.192-17.286,4.672-7.479,1.895-14.958,3.651-22.4,5.5C98.287,33.2,91.178,34.677,83.975,35.74c-2.6.37-5.25.786-7.849,1.2-2.833.458-5.719.875-8.6,1.292-2.974.416-5.9.833-8.875,1.25-3.2.463-6.458.921-9.661,1.291-3.719.417-7.485.834-11.2,1.2-1.537.141-3.068.276-4.6.464-2.282.229-4.6.51-6.88.786-1.948.229-3.9.417-5.855.646-2.135.235-4.229.464-6.364.693-2.37.281-4.693.6-7.11.833A11.269,11.269,0,0,0,.85,48.266a1.385,1.385,0,0,0-.323.37A2.77,2.77,0,0,0,.11,51.042a1.873,1.873,0,0,0,1.532,1.526c.093,0,.14.094.234.141a1.788,1.788,0,0,0,.51,2.031,2.359,2.359,0,0,1,.792,1.573,1.317,1.317,0,0,0,.511,1.109,1.3,1.3,0,0,1,.833,1.385,1.478,1.478,0,0,0,.51,1.11c.558.651,1.443.974,1.86,1.807-.094.552-.183,1.151-.23,1.708a7.62,7.62,0,0,0,.089,2.037A35.7,35.7,0,0,0,7.777,69.12a9.653,9.653,0,0,0,1.672,3.141c1.208,1.437,2.463,2.822,3.719,4.255a2.4,2.4,0,0,0,1.25.88c.651.089.932.6,1.3,1.062A7.881,7.881,0,0,0,21.855,81.6c2.182.047,4.412.234,6.646.328,2.37.089,4.734.136,7.151.229a.244.244,0,0,1,.188.094c-.094.089-.188.323-.276.323-.839.135-1.678.229-2.511.37a1.827,1.827,0,0,0-1.536,1.015c.187.646.422,1.386.6,2.125a.6.6,0,0,1-.37.558,7.012,7.012,0,0,1-1.021.182l-4.6.281a5.906,5.906,0,0,0-1.536.183,6.379,6.379,0,0,0-3.3,2.729,3.442,3.442,0,0,0,.6,3.557c.094.047.135.094.229.141.839.276,1.63.557,1.349,1.713-.047.136.094.323.188.459a4.823,4.823,0,0,0,2.276,1.573c1.859.557,3.625,1.479,5.62,1.666a3.581,3.581,0,0,1,1.208.37A4.612,4.612,0,0,0,35,99.953c1.349,0,2.745.047,4.094-.041,1.765-.094,3.573-.328,5.338-.464C48.991,99.125,53.5,98.8,58,98.432c2.6-.234,5.255-.463,7.9-.744,3.578-.412,7.109-.875,10.688-1.339,3.114-.417,6.27-.88,9.385-1.292q3.555-.553,7.109-.833a7.5,7.5,0,0,0,1.021-.094c3.3-.51,6.552-1.062,9.849-1.619,3.531-.6,7.021-1.2,10.594-1.8s7.109-1.157,10.64-1.709c4-.6,7.948-1.25,11.9-1.943,1.813-.276,3.578-.645,5.3-1.062.745-.234,1.49-.323,2.229-.51,2.651-.646,5.391-.881,8.089-1.386a25.678,25.678,0,0,1,2.739-.557,38.17,38.17,0,0,0,6.787-1.292c2.411-.651,4.922-.786,7.245-1.667a43.669,43.669,0,0,0,5.995-1.2,16.833,16.833,0,0,0,4.88-1.432,3.333,3.333,0,0,1,1.484-.323c2-.182,4-.786,6.042-.833a2.2,2.2,0,0,0,.745-.136,45.378,45.378,0,0,0,5.9-1.666,10.893,10.893,0,0,0,3.854-2.4c-.276-.834-.974-1.526-.511-2.453.094-.183-.046-.511-.14-.74-.047-.141-.229-.276-.276-.417a8.846,8.846,0,0,0-.651-2.4c-.047-.093.093-.369.187-.416a3.3,3.3,0,0,1,.927-.417c.974-.276,2-.464,2.974-.74a1.777,1.777,0,0,0,1.349-1.062,2,2,0,0,1,.88-.88c.7-.417,1.443-.787,2.23-1.2s1.489-.834,2.234-1.292c.047-.047.047-.234.047-.37,0-.047-.188-.094-.235-.094-.7.047-1.349.136-2.046.23a.343.343,0,0,1-.183-.094c0-.136-.047-.37.047-.412.511-.328,1.068-.6,1.578-.88a5.409,5.409,0,0,0,1.068-.693,1.294,1.294,0,0,0,.187-.692c0-.235-.328-.417-.557-.37-.328.088-.651.182-.979.276a1.6,1.6,0,0,1-.973-.072,9.479,9.479,0,0,0,2.509-1.36c0-.323-.046-.558-.046-.787a13.007,13.007,0,0,1-.282-4.021,1.815,1.815,0,0,0-.135-.974c-.094-.51-.281-.968-.375-1.479a2.051,2.051,0,0,1,.463-1.9,21.071,21.071,0,0,0,1.584-1.989.66.66,0,0,0-.094-.922c-.281-.229-.51-.557-.37-.88a7.257,7.257,0,0,1,.927-2.354m-22.4-32.553a1.235,1.235,0,0,1-.323.37c-1.256.745-2.464,1.526-3.719,2.266a3.666,3.666,0,0,1-1.162.328,2.728,2.728,0,0,1-.375-.281c-.041-.047.047-.183.094-.229,1.672-.969,3.4-1.943,5.115-2.865.088-.047.276.089.416.182.047,0,0,.188-.046.229m3.947-2.677a3.284,3.284,0,0,1,2.009-1.331c.011.061.026.14-.009.175a2.876,2.876,0,0,1-1.976,1.333c-.035-.072-.061-.139-.024-.177M190.1,12.578c-.047.089-.141.089-.182.183s.041.14.041.234c-.557-.094-1.114.229-1.625-.047l-.182.37a2.03,2.03,0,0,1,.182-.37,1.477,1.477,0,0,1,1.625.047l-.182-.417c-.094-.187-.047-.323.141-.37h.416a2.773,2.773,0,0,1-.234.37m.557-6.75c0-.047.141-.14.188-.14a1.824,1.824,0,0,1,.4.035c-.073.128-.09.249-.257.334-.187.094-.328,0-.328-.229m.235,11.651c.187-.187.369.089.557.089,0-.229-.141-.646-.094-.693a9.374,9.374,0,0,1,2.787-1.614.748.748,0,0,1,.234.088c.187.094.187.234,0,.37-.557.37-1.115.693-1.672,1.068l-1.255.781Zm.927,1.938c.047-.089.047-.182.093-.229a6.724,6.724,0,0,1,2.7-1.62,2.118,2.118,0,0,1,1.584-.915c-.006-.018,0-.035-.006-.054a.424.424,0,0,0,.064.023c.055-.157.177-.2.259-.117.047,0-.046.141-.088.141a.509.509,0,0,1-.171-.024c0,.011-.013.011-.017.024s-.027.006-.041.007a.469.469,0,0,1-.146.545,2.355,2.355,0,0,1-1.208.651,6.324,6.324,0,0,1-2.6,1.755c-.094,0-.282-.14-.422-.187m13.432,38.6c-.187.047-.281-.042-.187-.182s.172-.219.255-.342c.018.1.042.215.067.389a.207.207,0,0,1-.135.135" fill="#b7923d"/>
    </g>
  </g>
</svg>
