<svg xmlns="http://www.w3.org/2000/svg" xmlns:xlink="http://www.w3.org/1999/xlink" width="343.703" height="123.929" viewBox="0 0 343.703 123.929">
  <defs>
    <clipPath id="clip-path">
      <path id="Pfad_2428" data-name="Pfad 2428" d="M60.248,219.37l-1.6,6.718v86.9L185.759,343.3H390.565l11.784-49.412V223.434l-15.932-3.8-1.112-.265Z" transform="translate(-58.646 -219.37)" fill="none"/>
    </clipPath>
  </defs>
  <g id="Gruppe_2627" data-name="Gruppe 2627" transform="translate(-58.646 -219.37)">
    <g id="Gruppe_2626" data-name="Gruppe 2626" transform="translate(58.646 219.37)" clip-path="url(#clip-path)">
      <path id="Pfad_2427" data-name="Pfad 2427" d="M388.509,318.5a2.618,2.618,0,0,0,1.879.764q.841-.037,1.682-.075c.393.016.846.441.757.815a2.171,2.171,0,0,1-.569,1.053,8.785,8.785,0,0,1-1.992.716c-.934.253-1.94.488-2.891.817-.167.04-.183.432-.235.658a.575.575,0,0,0,.263.221c1.161.119,2.246.218,3.391.411.075.019.357.165.338.24-.054.225-.125.524-.218.582-1.379.465-2.664.871-4.1,1.243s-2.779.684-4.065,1.092a3.36,3.36,0,0,0-1.764,1.085,2.938,2.938,0,0,1-2.587,1.209c-1.682.073-3.4-.019-5.085.056a5.539,5.539,0,0,0-1.661.317c-.167.04-.5.435-.461.6a14.7,14.7,0,0,1,.12,4.151c.021.244.268.54.289.782.061.411.16.991-.061,1.255-1.107,1.322-.252,2.715-.124,4.172a17.926,17.926,0,0,1-7.155,2.417,74.079,74.079,0,0,1-10.168.43,3.5,3.5,0,0,1-1.254-.061c-3.317-.712-6.774-.5-10.07-.973a5.474,5.474,0,0,0-2.525-.047c-2.814.834-5.661.474-8.428.448-3.387-.094-6.786.205-10.14-.357-4.089.533-8.193-.209-12.343-.087a63.172,63.172,0,0,1-11.45-.51,42.485,42.485,0,0,0-4.639-.155c-4.547-.212-9.06-.891-13.584-.862-1.273.014-2.508-.122-3.8-.033-2.934.014-5.928-.065-8.959-.312-6.643-.4-13.268-.866-19.949-1.428-5.913-.458-11.829-.918-17.835-1.318s-11.864-.768-17.8-1.151c-5.539-.369-11-.721-16.524-1.165a12.625,12.625,0,0,1-1.685-.244q-5.843-.917-11.8-1.386c-5.186-.522-10.464-.987-15.648-1.512-5.954-.627-11.832-1.234-17.767-1.936-4.383-.569-8.747-1.214-13.036-1.841-7.416-1.133-14.815-2.344-22.291-3.57-2.9-.454-5.917-.777-8.8-1.308-2.21-.367-4.442-.979-6.617-1.5a7.621,7.621,0,0,1-3.42-1.609,6.084,6.084,0,0,0-1.806-1.066c-3.154-1.069-5.645-3.249-8.43-4.864a8.026,8.026,0,0,1-3.067-3.427c-.1-.261-.251-.615-.122-.822.9-1.769-.27-2.523-1.512-3.295-.132-.111-.19-.2-.322-.315a5.782,5.782,0,0,1,.4-6.009,10.618,10.618,0,0,1,6.38-3.157,9.579,9.579,0,0,1,2.546.291q3.766.658,7.531,1.32a13.1,13.1,0,0,0,1.722.092,1,1,0,0,0,.815-.758c-.014-1.271-.1-2.561-.153-3.683a3.009,3.009,0,0,1,2.87-1.061c1.4.1,2.788.268,4.192.365.15.035.39-.3.576-.418a.4.4,0,0,0-.265-.221c-3.864-1.081-7.671-2.067-11.46-3.129-3.563-1.008-7.091-2.168-10.6-3.082-4.181-1.078-6.866-3.779-8.683-7.464-.421-.893-.674-1.825-1.687-2.225a4,4,0,0,1-1.686-1.909c-1.47-2.809-2.959-5.543-4.353-8.334a16.3,16.3,0,0,1-1.482-5.745,59.626,59.626,0,0,1-.237-6.321,12.37,12.37,0,0,1,.638-3.336c.289-.883.672-1.823,1.036-2.687-.352-1.512-1.653-2.377-2.3-3.641a2.474,2.474,0,0,1-.4-2,2.184,2.184,0,0,0-.813-2.573,2.232,2.232,0,0,1-.4-2,3.907,3.907,0,0,0-.667-2.854,3.008,3.008,0,0,1-.037-3.5c-.132-.112-.172-.279-.322-.315a3.115,3.115,0,0,1-1.884-3.065,4.636,4.636,0,0,1,1.606-3.74,2.061,2.061,0,0,1,.669-.475c3.5-1.7,7.019-2.847,11.007-2.292s7.864.923,11.8,1.386c3.539.447,7,.876,10.542,1.323,3.239.376,6.46.827,9.7,1.2,3.782.427,7.639.871,11.4,1.37,2.548.291,5.074.656,7.6,1.02,6.144.831,12.378,1.6,18.539,2.359,5.318.634,10.746,1.135,16.1,1.62,4.961.468,9.846.919,14.807,1.39,4.81.434,9.621.867,14.375,1.207,4.36.325,8.8.67,13.139,1.071,12.035,1.046,24.081,1.383,36.067,1.306,12.714-.139,25.467-.111,38.273-.308,9.872-.185,19.855-.5,29.7-.926,8.614-.562,17.243-1.517,25.737-2.9,8.794-1.313,17.643-2.534,26.413-4.407,5.95-1.356,11.86-2.88,17.755-4.329.67-.157,1.36-.39,2.049-.622a4.642,4.642,0,0,0,2.986-2.222c1.045-2.05,2.927-2.631,4.984-2.617a20.783,20.783,0,0,1,3.765.5,3.831,3.831,0,0,1,2.6,2.048c1.085,1.766.892,2.908-.888,4.386a4.805,4.805,0,0,0-.775.926,5.45,5.45,0,0,0-3.819,1.388c-.092.058-.054.226-.014.394a2.628,2.628,0,0,0-.732-.254c-.075-.017-.336.078-.353.153-.091.376.1.58.435.5s.388-.3.592-.493a4.755,4.755,0,0,0,3.744-1.407c.092-.058.071-.3.089-.376a3.454,3.454,0,0,0,1.254.061c.839-.195,1.64-.561,2.46-.681a1.255,1.255,0,0,1,1.073.493,6.283,6.283,0,0,1,1.538,3.855c.024.561.012,1.273.334,1.586a8.8,8.8,0,0,1,1.807,4.714,31.751,31.751,0,0,1,.6,5.455c.012,1.273-.441,2.513-.427,3.784a3.078,3.078,0,0,1-1.541,2.8,14,14,0,0,1-3.794,1.95c-2.253.811-4.564,1.529-6.819,2.339-.688.233-1.3.482-2.009.789a43.792,43.792,0,0,0,2.11,6.769c.4.333.568.611.792.665,2.607.7,4.345,2.384,5.994,4.442a66.739,66.739,0,0,1,6,9.755,3.5,3.5,0,0,1,.486,1.623,2.389,2.389,0,0,0,1.241,2.436,2.972,2.972,0,0,1,.838,1.469,11.862,11.862,0,0,1,.667,2.854,8.177,8.177,0,0,0,.592,2.837,1.553,1.553,0,0,1-.151,1.63c-.792,1-.054,1.889.143,2.731a1.864,1.864,0,0,1-.808,1.393c-1.168.911-1.658,2.3-2.412,3.469-.352.472-.1,1.085.259,1.569a1.1,1.1,0,0,1-.209,1.536,37.961,37.961,0,0,1-3.319,2.617,3.409,3.409,0,0,0-1.482,2.9c-.047.862.073,1.684.026,2.544a2.971,2.971,0,0,1-.15,1.63c-.987,2.144-.813,4.4-1.108,6.635-.089.374-.1.768-.228,1.292a15.574,15.574,0,0,1-4.905,1.29c-.2.188-.388.3-.592.493s-.091.374.228.371a.348.348,0,0,0,.279-.171c.051-.543.029-.787.082-1.012M378.3,240.021l-.442.529a4.388,4.388,0,0,1,.442-.529c.717.648,1.743.336,2.607.7.036-.152-.1-.261.014-.394s.261-.1.373-.228a4.442,4.442,0,0,0,.517-.512c-.225-.052-.449-.106-.674-.16-.319,0-.447.211-.369.547l.139.747a2.456,2.456,0,0,0-2.607-.7m11.317,9.043a3.513,3.513,0,0,0-2.983.874,11.074,11.074,0,0,0-4.975,1.588c-.092.058-.129.207-.24.34.207.129.454.427.6.461a10.521,10.521,0,0,0,4.879-1.849,3.947,3.947,0,0,0,2.2-.585.817.817,0,0,0,.458-.923.7.7,0,0,0,.357.165c.075.017.279-.173.2-.19-.113-.186-.357-.163-.5.119m-8.082-.341,2.328-.792c1.043-.387,2.069-.7,3.112-1.083.353-.153.407-.378.143-.6a1.284,1.284,0,0,0-.34-.24,15.526,15.526,0,0,0-5.125,1.553c-.092.057-.03.785-.118,1.161-.3-.072-.493-.594-.864-.366ZM368.945,234.7a6.056,6.056,0,0,0,2-.078c2.311-.717,4.564-1.529,6.875-2.246a2.065,2.065,0,0,0,.669-.475c.092-.056.238-.34.164-.357-.188-.2-.435-.5-.6-.461-3.132.839-6.283,1.754-9.358,2.685-.094.058-.3.247-.24.34a4.26,4.26,0,0,0,.493.594" transform="translate(-59.388 -219.668)" fill="#dfeee1"/>
    </g>
  </g>
</svg>
