<svg id="Gruppe_7497" data-name="Gruppe 7497" xmlns="http://www.w3.org/2000/svg" width="109.864" height="47.009" viewBox="0 0 109.864 47.009">
  <g id="Gruppe_7496" data-name="Gruppe 7496">
    <path id="Pfad_18558" data-name="Pfad 18558" d="M363.617,224.829a.815.815,0,0,0-.967.225.784.784,0,0,0-.013.979,13.526,13.526,0,0,1,1.754,12.107,4.7,4.7,0,0,0-1.455-1.431.83.83,0,0,0-.878.021.788.788,0,0,0-.341.795c.009.061.921,5.492-2.233,9.427a10.6,10.6,0,0,0-.412-4.835.817.817,0,0,0-.878-.512.8.8,0,0,0-.689.743,13.352,13.352,0,0,1-2.252,6.376,9.935,9.935,0,0,0-.3-3.3.8.8,0,0,0-.762-.594.794.794,0,0,0-.789.56c-.025.071-2.261,7.05-7.543,10.158-5.271-3.1-7.52-10.087-7.543-10.158a.806.806,0,0,0-.77-.558h-.017a.8.8,0,0,0-.762.592,9.894,9.894,0,0,0-.3,3.3,13.341,13.341,0,0,1-2.251-6.376.8.8,0,0,0-.687-.743.813.813,0,0,0-.878.512,10.632,10.632,0,0,0-.414,4.835c-3.154-3.934-2.244-9.363-2.233-9.427a.793.793,0,0,0-.342-.795.822.822,0,0,0-.876-.021,4.69,4.69,0,0,0-1.453,1.431,13.525,13.525,0,0,1,1.754-12.107.789.789,0,0,0-.013-.979.815.815,0,0,0-.969-.225,6.8,6.8,0,0,0-2.126,1.6,20.469,20.469,0,0,1,7.5-10.5.789.789,0,0,0,.312-.821.8.8,0,0,0-.643-.6,6.514,6.514,0,0,0-1.822-.008c1.9-1.714,5.3-3.51,10.693-2.272a13.808,13.808,0,0,0,3.818.6h.047a13.643,13.643,0,0,0,3.731-.575c5.517-1.264,8.926.532,10.813,2.254a6.559,6.559,0,0,0-1.856,0,.791.791,0,0,0-.331,1.424,20.464,20.464,0,0,1,7.5,10.5,6.792,6.792,0,0,0-2.125-1.6Zm-2.319-8.468a3.684,3.684,0,0,1,1.211.78.819.819,0,0,0,1.035.082.786.786,0,0,0,.263-.988c-.04-.08-3.994-7.952-14.64-5.509a12.518,12.518,0,0,1-3.305.51,12.682,12.682,0,0,1-3.388-.534c-10.557-2.414-14.515,5.453-14.555,5.533a.786.786,0,0,0,.261.988.814.814,0,0,0,1.035-.084,3.654,3.654,0,0,1,1.211-.778,22.406,22.406,0,0,0-6.942,14.21.793.793,0,0,0,.637.815.806.806,0,0,0,.92-.488c0-.011.178-.439.5-1.039a14.781,14.781,0,0,0,1.031,10.622.812.812,0,0,0,1.515-.162,3.943,3.943,0,0,1,.17-.493c.053,2.781.836,7.188,4.8,10.084a.811.811,0,0,0,.948.009.79.79,0,0,0,.3-.882,12.831,12.831,0,0,1-.316-1.346,9.764,9.764,0,0,0,3.328,4.022.818.818,0,0,0,.957-.037.789.789,0,0,0,.248-.912,7.942,7.942,0,0,1-.4-1.725c1.322,2.6,3.68,6.142,7.35,8.113a.809.809,0,0,0,.774,0c3.668-1.971,6.028-5.516,7.352-8.113a7.828,7.828,0,0,1-.4,1.725.793.793,0,0,0,.248.912.823.823,0,0,0,.957.037,9.767,9.767,0,0,0,3.328-4.018,13.547,13.547,0,0,1-.312,1.342.788.788,0,0,0,.3.882.811.811,0,0,0,.946-.009c3.966-2.894,4.749-7.3,4.8-10.084a4.157,4.157,0,0,1,.172.5.812.812,0,0,0,1.513.158,14.789,14.789,0,0,0,1.029-10.626c.32.6.492,1.031.5,1.04a.806.806,0,0,0,.919.488.794.794,0,0,0,.636-.815,22.484,22.484,0,0,0-6.949-14.208Z" transform="translate(-323.481 -210.241)" fill="#a57c25"/>
    <path id="Pfad_18559" data-name="Pfad 18559" d="M422.975,299.746l-2.355,2.462a14.318,14.318,0,0,0-1.616-2.5.815.815,0,0,0-1.133-.119.786.786,0,0,0-.123,1.115c.047.058,4.683,5.805,1.111,8.812a1.042,1.042,0,0,1-1.086.13l-.021-.009-.013-.007-3.341-1.552a4.112,4.112,0,0,0-.908-.3,3.2,3.2,0,0,1,1.875-2.578.786.786,0,0,0,.462-.89.81.81,0,0,0-.791-.629h-4.787a.8.8,0,0,0-.789.629.787.787,0,0,0,.462.89,3.178,3.178,0,0,1,1.879,2.578,4.16,4.16,0,0,0-.91.3l-3.379,1.567a1.043,1.043,0,0,1-1.088-.13c-3.572-3.008,1.063-8.755,1.111-8.812a.786.786,0,0,0-.123-1.115.814.814,0,0,0-1.133.119,14.034,14.034,0,0,0-1.616,2.5l-2.354-2.459a5.766,5.766,0,0,1-1.387-5.6c1.057-3.6,3.93-7.59,11.566-6.151a.83.83,0,0,0,.3,0c7.642-1.441,10.51,2.55,11.568,6.151a5.762,5.762,0,0,1-1.381,5.6Zm-6.631,12.985a.569.569,0,0,1-.564.03,7.267,7.267,0,0,0-6.28,0,.584.584,0,0,1-.84-.516v-1.377l2.912-1.349a2.527,2.527,0,0,1,1.063-.235h0a2.552,2.552,0,0,1,1.061.233l2.915,1.351v1.377a.562.562,0,0,1-.273.486Zm-3.7-26.324c-9.184-1.653-12.256,3.849-13.268,7.3a7.341,7.341,0,0,0,1.759,7.128l2.844,2.972c-.815,2.358-.857,5.019,1.394,6.912a2.616,2.616,0,0,0,1.678.612v.914a2.149,2.149,0,0,0,1.029,1.833,2.233,2.233,0,0,0,2.129.115,5.622,5.622,0,0,1,4.873,0,2.226,2.226,0,0,0,2.126-.115,2.149,2.149,0,0,0,1.031-1.833v-.936a2.574,2.574,0,0,0,1.671-.586c2.251-1.9,2.21-4.554,1.4-6.911l2.847-2.976a7.353,7.353,0,0,0,1.76-7.128c-1.014-3.451-4.081-8.954-13.272-7.3Z" transform="translate(-390.26 -277.254)" fill="#a57c25"/>
    <path id="Pfad_18560" data-name="Pfad 18560" d="M434.25,341.127l1.192.22a1.143,1.143,0,0,1,.736.475l.006.011-1.192-.221a1.133,1.133,0,0,1-.742-.484Zm1.491-1.34-3.92-.726a.807.807,0,0,0-.942.633.794.794,0,0,0,.643.927l.946.177a2.74,2.74,0,0,0,2.225,2.375l1.516.281-.115.6a.8.8,0,0,0,.643.927.83.83,0,0,0,.151.013.805.805,0,0,0,.793-.648l.267-1.388a2.667,2.667,0,0,0-.433-2.036,2.768,2.768,0,0,0-1.773-1.137Z" transform="translate(-418.337 -324.021)" fill="#a57c25"/>
    <path id="Pfad_18561" data-name="Pfad 18561" d="M542.411,341.113a1.147,1.147,0,0,1-.738.475l-1.19.22a1.14,1.14,0,0,1,.743-.484l1.192-.219-.008.009Zm2.431-2.077-3.918.726a2.73,2.73,0,0,0-2.206,3.181l.268,1.387a.8.8,0,0,0,.793.646.859.859,0,0,0,.151-.013.794.794,0,0,0,.639-.929l-.115-.6,1.517-.281a2.763,2.763,0,0,0,1.775-1.141,2.619,2.619,0,0,0,.424-1.23l.972-.18a.794.794,0,1,0-.3-1.56Z" transform="translate(-513.567 -323.997)" fill="#a57c25"/>
  </g>
  <g id="Gruppe_7495" data-name="Gruppe 7495" transform="translate(56.152 7.702)">
    <path id="Pfad_18562" data-name="Pfad 18562" d="M284.907,680.737V667.892A1.054,1.054,0,0,1,286,666.8a1.019,1.019,0,0,1,1.048,1.093v11.931h7.114a.994.994,0,0,1,1,.981,1.019,1.019,0,0,1-1,1.026H286a1.067,1.067,0,0,1-1.093-1.093" transform="translate(-284.907 -666.71)" fill="#251d1b"/>
    <path id="Pfad_18563" data-name="Pfad 18563" d="M407.959,682.008a1.067,1.067,0,0,1-1.093-1.093V667.892a1.054,1.054,0,0,1,1.093-1.093,1.019,1.019,0,0,1,1.048,1.093v13.024a1.044,1.044,0,0,1-1.048,1.093" transform="translate(-392.638 -666.71)" fill="#251d1b"/>
    <path id="Pfad_18564" data-name="Pfad 18564" d="M470.988,681.422a7.7,7.7,0,1,1,7.538-7.694,7.426,7.426,0,0,1-7.538,7.694m0-13.448c-3.457,0-5.4,2.7-5.4,5.754s1.94,5.754,5.4,5.754,5.4-2.7,5.4-5.754-1.94-5.754-5.4-5.754" transform="translate(-442.622 -666.034)" fill="#251d1b"/>
    <path id="Pfad_18565" data-name="Pfad 18565" d="M641.321,682.008a.935.935,0,0,1-.8-.379l-8.541-10.883V681a1.015,1.015,0,0,1-2.029,0v-13.18A.955.955,0,0,1,631,666.8a1,1,0,0,1,.8.424l8.519,10.838V667.825a.972.972,0,0,1,1.026-1.026.954.954,0,0,1,1,1.026V681a.965.965,0,0,1-1.026,1" transform="translate(-589.696 -666.71)" fill="#251d1b"/>
    <path id="Pfad_18566" data-name="Pfad 18566" d="M297.716,834.994a.876.876,0,0,1,.845-.57.825.825,0,0,1,.884.884V846.92a.894.894,0,1,1-1.788,0v-7.958l-4.087,8.311a.894.894,0,0,1-1.65,0l-4.087-8.311v7.958a.894.894,0,1,1-1.788,0V835.308a.825.825,0,0,1,.884-.884.875.875,0,0,1,.845.57l4.971,10.2Z" transform="translate(-285.912 -814.78)" fill="#251d1b"/>
    <path id="Pfad_18567" data-name="Pfad 18567" d="M443.891,846.547a.966.966,0,0,1,.1.393.844.844,0,0,1-.884.884.857.857,0,0,1-.845-.55l-1.316-2.869h-6.17l-1.316,2.869a.857.857,0,0,1-.845.55.844.844,0,0,1-.884-.884.965.965,0,0,1,.1-.393l5.187-11.573a.924.924,0,0,1,1.69,0Zm-6.032-9.373-2.4,5.561h4.794Z" transform="translate(-414.601 -814.78)" fill="#251d1b"/>
    <path id="Pfad_18568" data-name="Pfad 18568" d="M552.053,837.54h-3.674v10.512a.92.92,0,0,1-.924.963.94.94,0,0,1-.963-.963V837.54h-3.714a.884.884,0,1,1,0-1.768h9.274a.884.884,0,1,1,0,1.768" transform="translate(-511.898 -815.971)" fill="#251d1b"/>
    <path id="Pfad_18569" data-name="Pfad 18569" d="M673.162,848.858h-7.545a.924.924,0,0,1-.963-.943v-11.2a.948.948,0,0,1,.963-.943h7.25a.865.865,0,1,1,0,1.729H666.54v3.792h3.576a.859.859,0,0,1,.865.865.847.847,0,0,1-.865.865H666.54v4.107h6.622a.857.857,0,0,1,.9.864.881.881,0,0,1-.9.865" transform="translate(-620.354 -815.971)" fill="#251d1b"/>
  </g>
</svg>
