<svg xmlns="http://www.w3.org/2000/svg" width="93.696" height="150.396" viewBox="0 0 93.696 150.396">
  <g id="Gruppe_8745" data-name="Gruppe 8745" transform="translate(-1464.427 -4003.415)">
    <path id="Pfad_93" data-name="Pfad 93" d="M393.493,235.687a1.421,1.421,0,0,0-1.686.393,1.367,1.367,0,0,0-.023,1.708,23.594,23.594,0,0,1,3.059,21.119,8.2,8.2,0,0,0-2.538-2.5,1.448,1.448,0,0,0-1.531.036,1.374,1.374,0,0,0-.594,1.386c.016.107,1.607,9.58-3.895,16.444a18.494,18.494,0,0,0-.719-8.434,1.425,1.425,0,0,0-1.531-.893,1.4,1.4,0,0,0-1.2,1.3c0,.075-.409,6.438-3.927,11.123a17.333,17.333,0,0,0-.518-5.753,1.4,1.4,0,0,0-1.33-1.036,1.386,1.386,0,0,0-1.376.977c-.043.123-3.944,12.3-13.158,17.719-9.195-5.412-13.118-17.6-13.158-17.719a1.406,1.406,0,0,0-1.343-.974h-.03a1.4,1.4,0,0,0-1.33,1.032,17.262,17.262,0,0,0-.522,5.753c-3.521-4.685-3.921-11.045-3.927-11.123a1.4,1.4,0,0,0-1.2-1.3,1.418,1.418,0,0,0-1.531.893,18.546,18.546,0,0,0-.723,8.434c-5.5-6.863-3.914-16.333-3.894-16.444a1.383,1.383,0,0,0-.6-1.386,1.435,1.435,0,0,0-1.528-.036,8.184,8.184,0,0,0-2.535,2.5,23.593,23.593,0,0,1,3.059-21.119,1.376,1.376,0,0,0-.023-1.708,1.422,1.422,0,0,0-1.69-.393,11.864,11.864,0,0,0-3.709,2.782,35.7,35.7,0,0,1,13.079-18.314,1.375,1.375,0,0,0,.545-1.432,1.394,1.394,0,0,0-1.122-1.045,11.366,11.366,0,0,0-3.178-.013c3.31-2.99,9.247-6.123,18.653-3.964a24.085,24.085,0,0,0,6.66,1.045h.083a23.8,23.8,0,0,0,6.508-1c9.624-2.2,15.571.929,18.861,3.932a11.447,11.447,0,0,0-3.237,0,1.38,1.38,0,0,0-.578,2.484A35.7,35.7,0,0,1,397.2,238.48a11.848,11.848,0,0,0-3.706-2.792Zm-4.046-14.771a6.422,6.422,0,0,1,2.112,1.36,1.428,1.428,0,0,0,1.805.143,1.372,1.372,0,0,0,.459-1.724c-.069-.14-6.967-13.872-25.538-9.609a21.84,21.84,0,0,1-5.766.89,22.125,22.125,0,0,1-5.911-.932c-18.416-4.211-25.32,9.512-25.39,9.652a1.371,1.371,0,0,0,.455,1.724,1.42,1.42,0,0,0,1.805-.146,6.371,6.371,0,0,1,2.112-1.357A39.085,39.085,0,0,0,323.483,245.7a1.383,1.383,0,0,0,1.112,1.422,1.405,1.405,0,0,0,1.6-.851c.007-.02.31-.766.865-1.812a25.783,25.783,0,0,0,1.8,18.528,1.417,1.417,0,0,0,2.643-.282,6.876,6.876,0,0,1,.3-.86c.092,4.85,1.459,12.538,8.373,17.59a1.415,1.415,0,0,0,1.653.016,1.378,1.378,0,0,0,.531-1.539,22.342,22.342,0,0,1-.551-2.347,17.033,17.033,0,0,0,5.805,7.016,1.427,1.427,0,0,0,1.67-.065,1.377,1.377,0,0,0,.432-1.591,13.866,13.866,0,0,1-.69-3.01c2.307,4.532,6.419,10.714,12.822,14.152a1.41,1.41,0,0,0,1.35,0c6.4-3.438,10.515-9.623,12.825-14.152a13.64,13.64,0,0,1-.69,3.01,1.383,1.383,0,0,0,.432,1.591,1.437,1.437,0,0,0,1.67.065,17.035,17.035,0,0,0,5.805-7.009,23.6,23.6,0,0,1-.545,2.341,1.375,1.375,0,0,0,.531,1.539,1.415,1.415,0,0,0,1.65-.016c6.918-5.048,8.284-12.736,8.373-17.59a7.231,7.231,0,0,1,.3.867,1.416,1.416,0,0,0,2.64.276,25.8,25.8,0,0,0,1.8-18.535c.558,1.045.858,1.8.868,1.815a1.405,1.405,0,0,0,1.6.851,1.386,1.386,0,0,0,1.109-1.422,39.22,39.22,0,0,0-12.122-24.784Z" transform="translate(1148.795 3793.174)" fill="#a57c25"/>
    <path id="Pfad_94" data-name="Pfad 94" d="M440.763,309.9l-4.109,4.3a24.974,24.974,0,0,0-2.818-4.363,1.422,1.422,0,0,0-1.977-.208,1.371,1.371,0,0,0-.215,1.945c.083.1,8.168,10.126,1.937,15.372a1.818,1.818,0,0,1-1.894.227l-.036-.016-.023-.013-5.828-2.708a7.169,7.169,0,0,0-1.584-.516,5.573,5.573,0,0,1,3.271-4.5,1.37,1.37,0,0,0,.805-1.552,1.413,1.413,0,0,0-1.38-1.1h-8.35a1.4,1.4,0,0,0-1.376,1.1,1.372,1.372,0,0,0,.805,1.552,5.544,5.544,0,0,1,3.277,4.5,7.259,7.259,0,0,0-1.587.52l-5.894,2.734a1.819,1.819,0,0,1-1.9-.227c-6.231-5.246,1.855-15.272,1.937-15.372a1.37,1.37,0,0,0-.214-1.945,1.419,1.419,0,0,0-1.977.208,24.463,24.463,0,0,0-2.818,4.357l-4.106-4.289a10.058,10.058,0,0,1-2.419-9.769c1.845-6.282,6.855-13.24,20.175-10.73a1.449,1.449,0,0,0,.528,0c13.33-2.513,18.333,4.448,20.178,10.73a10.052,10.052,0,0,1-2.409,9.769ZM429.2,332.552a.993.993,0,0,1-.984.052,12.677,12.677,0,0,0-10.954,0,1.019,1.019,0,0,1-1.465-.9v-2.4l5.079-2.354a4.4,4.4,0,0,1,1.855-.409h.007a4.449,4.449,0,0,1,1.851.406l5.086,2.357v2.4a.981.981,0,0,1-.475.847Zm-6.462-45.919c-16.02-2.883-21.38,6.714-23.145,12.729a12.806,12.806,0,0,0,3.069,12.434l4.96,5.185c-1.422,4.113-1.495,8.756,2.432,12.058a4.565,4.565,0,0,0,2.927,1.068V331.7a3.749,3.749,0,0,0,1.8,3.2,3.9,3.9,0,0,0,3.713.2,9.807,9.807,0,0,1,8.5,0,3.883,3.883,0,0,0,3.709-.2,3.749,3.749,0,0,0,1.8-3.2v-1.633a4.491,4.491,0,0,0,2.914-1.023c3.927-3.308,3.855-7.944,2.439-12.055l4.967-5.191a12.826,12.826,0,0,0,3.069-12.434c-1.769-6.019-7.119-15.619-23.151-12.733Z" transform="translate(1088.582 3732.748)" fill="#a57c25"/>
    <path id="Pfad_95" data-name="Pfad 95" d="M436.771,342.675l2.079.383a1.994,1.994,0,0,1,1.284.828l.01.02-2.079-.386a1.977,1.977,0,0,1-1.294-.844Zm2.6-2.338-6.838-1.266a1.408,1.408,0,0,0-1.644,1.1,1.386,1.386,0,0,0,1.122,1.617l1.65.309a4.78,4.78,0,0,0,3.881,4.143l2.644.49-.2,1.052a1.387,1.387,0,0,0,1.122,1.617,1.461,1.461,0,0,0,.264.023,1.4,1.4,0,0,0,1.383-1.13l.465-2.422a4.652,4.652,0,0,0-.756-3.552,4.828,4.828,0,0,0-3.092-1.984Z" transform="translate(1063.264 3690.58)" fill="#a57c25"/>
    <path id="Pfad_96" data-name="Pfad 96" d="M545.2,342.671a2,2,0,0,1-1.287.828l-2.076.383a1.988,1.988,0,0,1,1.3-.844l2.079-.383-.013.016Zm4.241-3.623-6.835,1.266a4.763,4.763,0,0,0-3.848,5.548l.469,2.419a1.4,1.4,0,0,0,1.383,1.127,1.49,1.49,0,0,0,.264-.023,1.385,1.385,0,0,0,1.115-1.62l-.2-1.055,2.647-.49a4.82,4.82,0,0,0,3.1-1.99,4.565,4.565,0,0,0,.739-2.146l1.7-.315a1.386,1.386,0,1,0-.525-2.721Z" transform="translate(977.396 3690.602)" fill="#a57c25"/>
    <path id="Pfad_97" data-name="Pfad 97" d="M284.907,691.112V668.705a1.838,1.838,0,0,1,1.906-1.906,1.778,1.778,0,0,1,1.828,1.906v20.812h12.409a1.735,1.735,0,0,1,1.751,1.711,1.777,1.777,0,0,1-1.751,1.79H286.813a1.861,1.861,0,0,1-1.906-1.906" transform="translate(1179.52 3429.525)" fill="#251d1b"/>
    <path id="Pfad_98" data-name="Pfad 98" d="M408.772,693.33a1.861,1.861,0,0,1-1.906-1.906V668.705a1.838,1.838,0,0,1,1.906-1.906,1.777,1.777,0,0,1,1.828,1.906v22.718a1.82,1.82,0,0,1-1.828,1.906" transform="translate(1082.379 3429.525)" fill="#251d1b"/>
    <path id="Pfad_99" data-name="Pfad 99" d="M476.6,692.876c-7.9,0-13.148-6.108-13.148-13.421s5.251-13.421,13.148-13.421,13.148,6.108,13.148,13.421S484.5,692.876,476.6,692.876m0-23.458c-6.03,0-9.414,4.707-9.414,10.036s3.384,10.037,9.414,10.037,9.414-4.707,9.414-10.037-3.385-10.036-9.414-10.036" transform="translate(1037.311 3430.135)" fill="#251d1b"/>
    <path id="Pfad_100" data-name="Pfad 100" d="M649.788,693.33a1.632,1.632,0,0,1-1.4-.661l-14.9-18.984v17.894a1.77,1.77,0,0,1-3.54,0v-22.99a1.667,1.667,0,0,1,1.828-1.79,1.747,1.747,0,0,1,1.4.739l14.86,18.906V668.589a1.7,1.7,0,0,1,1.79-1.79,1.664,1.664,0,0,1,1.75,1.79v22.99a1.683,1.683,0,0,1-1.789,1.751" transform="translate(904.693 3429.525)" fill="#251d1b"/>
    <path id="Pfad_101" data-name="Pfad 101" d="M306.4,835.418a1.528,1.528,0,0,1,1.474-.994,1.439,1.439,0,0,1,1.542,1.542v20.256a1.56,1.56,0,1,1-3.119,0V842.341l-7.129,14.5a1.56,1.56,0,0,1-2.879,0l-7.129-14.5v13.881a1.56,1.56,0,1,1-3.119,0V835.966a1.439,1.439,0,0,1,1.542-1.542,1.527,1.527,0,0,1,1.474.994l8.672,17.788Z" transform="translate(1178.613 3296.012)" fill="#251d1b"/>
    <path id="Pfad_102" data-name="Pfad 102" d="M452.945,855.572a1.686,1.686,0,0,1,.171.685,1.473,1.473,0,0,1-1.542,1.542,1.5,1.5,0,0,1-1.474-.959l-2.3-5H437.042l-2.3,5a1.5,1.5,0,0,1-1.474.959,1.473,1.473,0,0,1-1.542-1.542,1.686,1.686,0,0,1,.171-.685l9.048-20.188a1.611,1.611,0,0,1,2.948,0Zm-10.522-16.349-4.182,9.7H446.6Z" transform="translate(1062.576 3296.012)" fill="#251d1b"/>
    <path id="Pfad_103" data-name="Pfad 103" d="M559.629,838.857H553.22v18.337a1.6,1.6,0,0,1-1.611,1.679,1.64,1.64,0,0,1-1.68-1.679V838.857h-6.478a1.543,1.543,0,1,1,0-3.085h16.178a1.543,1.543,0,1,1,0,3.085" transform="translate(974.844 3294.938)" fill="#251d1b"/>
    <path id="Pfad_104" data-name="Pfad 104" d="M679.495,858.6H666.333a1.612,1.612,0,0,1-1.679-1.645V837.417a1.653,1.653,0,0,1,1.679-1.645h12.647a1.51,1.51,0,1,1,0,3.016H667.944V845.4h6.238a1.5,1.5,0,0,1,1.508,1.508,1.478,1.478,0,0,1-1.508,1.508h-6.238v7.163h11.551a1.5,1.5,0,0,1,1.577,1.508,1.537,1.537,0,0,1-1.577,1.508" transform="translate(877.051 3294.938)" fill="#251d1b"/>
  </g>
</svg>
