<svg xmlns="http://www.w3.org/2000/svg" width="22.75" height="22.75" viewBox="0 0 22.75 22.75">
  <path id="Pfad_24680" data-name="Pfad 24680" d="M27.437,1.875H9.562A2.439,2.439,0,0,0,7.125,4.313V22.188a2.439,2.439,0,0,0,2.437,2.437h6.97V16.891h-3.2V13.25h3.2V10.475c0-3.156,1.879-4.9,4.757-4.9a19.383,19.383,0,0,1,2.819.246v3.1H22.52a1.82,1.82,0,0,0-2.053,1.967V13.25H23.96L23.4,16.891H20.468v7.734h6.97a2.439,2.439,0,0,0,2.437-2.437V4.313A2.439,2.439,0,0,0,27.437,1.875Z" transform="translate(-7.125 -1.875)" fill="#707070"/>
</svg>
