<svg xmlns="http://www.w3.org/2000/svg" width="16.769" height="16.77" viewBox="0 0 16.769 16.77">
  <path id="Pfad_18618" data-name="Pfad 18618" d="M22.1,1.875H8.922a1.8,1.8,0,0,0-1.8,1.8V16.848a1.8,1.8,0,0,0,1.8,1.8h5.138v-5.7H11.7V10.26h2.358V8.215A3.275,3.275,0,0,1,17.565,4.6a14.288,14.288,0,0,1,2.078.181V7.068H18.473a1.342,1.342,0,0,0-1.513,1.45V10.26h2.575l-.412,2.684H16.96v5.7H22.1a1.8,1.8,0,0,0,1.8-1.8V3.672A1.8,1.8,0,0,0,22.1,1.875Z" transform="translate(-7.125 -1.875)" fill="#fff"/>
</svg>
