<svg xmlns="http://www.w3.org/2000/svg" xmlns:xlink="http://www.w3.org/1999/xlink" width="79" height="80" viewBox="0 0 79 80">
  <defs>
    <clipPath id="clip-path">
      <rect id="Rechteck_2095" data-name="Rechteck 2095" width="23.346" height="63.463" fill="#707070"/>
    </clipPath>
  </defs>
  <g id="Gruppe_4091" data-name="Gruppe 4091" transform="translate(-0.221)">
    <ellipse id="Ellipse_5" data-name="Ellipse 5" cx="39.5" cy="40" rx="39.5" ry="40" transform="translate(0.221)" fill="#b1c7b5"/>
    <g id="Gruppe_3848" data-name="Gruppe 3848" transform="translate(27.751 7.834)">
      <g id="Gruppe_3847" data-name="Gruppe 3847" transform="translate(0 0)" clip-path="url(#clip-path)">
        <path id="Pfad_6025" data-name="Pfad 6025" d="M9.165,72.457H6.618A4.884,4.884,0,0,1,1.8,68.377l2.545,0a4.891,4.891,0,0,1,4.821,4.082M.928,66.767a.809.809,0,0,0-.808.805,6.49,6.49,0,0,0,6.5,6.5l3.416,0a.812.812,0,0,0,.808-.808,6.5,6.5,0,0,0-6.5-6.494l-3.416,0" transform="translate(-0.05 -28.065)" fill="#707070"/>
        <path id="Pfad_6026" data-name="Pfad 6026" d="M28.245,64.554H30.79a4.91,4.91,0,0,1-4.827,4.088l-2.548,0a4.918,4.918,0,0,1,4.83-4.091m2.313,3.787a6.5,6.5,0,0,0,1.912-4.6.807.807,0,0,0-.805-.8l-3.419,0a6.517,6.517,0,0,0-6.507,6.509.8.8,0,0,0,.805.8l3.416,0a6.487,6.487,0,0,0,4.6-1.912" transform="translate(-9.138 -26.458)" fill="#707070"/>
        <path id="Pfad_6027" data-name="Pfad 6027" d="M25.975,52.917l-2.545,0a4.913,4.913,0,0,1,4.827-4.089l2.548,0a4.912,4.912,0,0,1-4.831,4.089m6.272-5.467a.8.8,0,0,0-.567-.235l-3.419,0a6.522,6.522,0,0,0-6.507,6.51.8.8,0,0,0,.8.805l3.419,0a6.522,6.522,0,0,0,6.507-6.51.8.8,0,0,0-.235-.57" transform="translate(-9.144 -19.847)" fill="#707070"/>
        <path id="Pfad_6028" data-name="Pfad 6028" d="M25.988,37.2H23.444a4.913,4.913,0,0,1,4.827-4.088l2.548,0a4.916,4.916,0,0,1-4.83,4.091m2.286-5.7a6.522,6.522,0,0,0-6.51,6.506.805.805,0,0,0,.805.805l3.419,0a6.526,6.526,0,0,0,6.506-6.51.8.8,0,0,0-.235-.566.78.78,0,0,0-.57-.235l-3.416,0" transform="translate(-9.149 -13.24)" fill="#707070"/>
        <path id="Pfad_6029" data-name="Pfad 6029" d="M25.02,22.455l-2.545,0A4.913,4.913,0,0,1,27.3,18.367l2.545,0a4.908,4.908,0,0,1-4.827,4.091m2.286-5.7a6.517,6.517,0,0,0-6.51,6.506.805.805,0,0,0,.805.805l3.419,0a6.526,6.526,0,0,0,6.506-6.506.8.8,0,0,0-.8-.805l-3.416,0" transform="translate(-8.742 -7.043)" fill="#707070"/>
        <path id="Pfad_6030" data-name="Pfad 6030" d="M9.042,56.872H6.5a4.887,4.887,0,0,1-4.821-4.08l2.545,0a4.885,4.885,0,0,1,4.821,4.082M0,51.987a6.5,6.5,0,0,0,6.495,6.5l3.419,0a.821.821,0,0,0,.57-.238.807.807,0,0,0,.235-.57,6.485,6.485,0,0,0-6.494-6.495l-3.419,0A.829.829,0,0,0,0,51.987" transform="translate(0 -21.513)" fill="#707070"/>
        <path id="Pfad_6031" data-name="Pfad 6031" d="M1.692,37.067l2.545,0a4.891,4.891,0,0,1,4.821,4.082l-2.548,0a4.89,4.89,0,0,1-4.818-4.082M6.51,42.76l3.419,0a.808.808,0,0,0,.805-.808,6.485,6.485,0,0,0-6.495-6.495l-3.419,0a.83.83,0,0,0-.805.808A6.5,6.5,0,0,0,6.51,42.76" transform="translate(-0.006 -14.903)" fill="#707070"/>
        <path id="Pfad_6032" data-name="Pfad 6032" d="M9.073,25.423l-2.548,0a4.883,4.883,0,0,1-4.819-4.082H4.252a4.886,4.886,0,0,1,4.821,4.08M.031,20.541a6.5,6.5,0,0,0,6.495,6.495l3.416,0a.807.807,0,0,0,.808-.8,6.49,6.49,0,0,0-6.5-6.5l-3.416,0a.832.832,0,0,0-.805.808" transform="translate(-0.013 -8.294)" fill="#707070"/>
        <path id="Pfad_6033" data-name="Pfad 6033" d="M13.872,9.35a5.65,5.65,0,0,1-.525-7.366l1.1,1.1a5.649,5.649,0,0,1,.522,7.363Zm1.716-7.408L13.881.235a.8.8,0,0,0-1.139,0,7.25,7.25,0,0,0-.01,10.252L14.439,12.2a.808.808,0,0,0,1.14,0,7.26,7.26,0,0,0,.009-10.254" transform="translate(-4.462 0)" fill="#707070"/>
        <rect id="Rechteck_2094" data-name="Rechteck 2094" width="1.612" height="17.088" transform="translate(11.408 46.373)" fill="#707070"/>
      </g>
    </g>
  </g>
</svg>
