<svg xmlns="http://www.w3.org/2000/svg" width="22.75" height="22.75" viewBox="0 0 22.75 22.75">
  <path id="Pfad_24682" data-name="Pfad 24682" d="M17.5,10.541a2.709,2.709,0,1,0,2.71,2.709A2.71,2.71,0,0,0,17.5,10.541Zm6.333-2.082a2.745,2.745,0,0,0-1.544-1.544c-1.066-.421-3.605-.327-4.789-.327s-3.72-.1-4.789.327a2.745,2.745,0,0,0-1.544,1.544c-.42,1.066-.327,3.608-.327,4.79s-.094,3.721.329,4.791a2.745,2.745,0,0,0,1.544,1.544c1.066.421,3.605.327,4.789.327s3.719.1,4.789-.327a2.745,2.745,0,0,0,1.544-1.544c.424-1.066.327-3.608.327-4.79s.1-3.72-.327-4.79ZM17.5,17.414a4.164,4.164,0,1,1,4.164-4.164v.005a4.161,4.161,0,0,1-4.159,4.159Zm4.336-7.531h0a.972.972,0,1,1,.972-.972v0a.97.97,0,0,1-.969.97Zm4.6-8.008H8.562A2.439,2.439,0,0,0,6.125,4.313V22.188a2.439,2.439,0,0,0,2.437,2.437H26.437a2.439,2.439,0,0,0,2.437-2.437V4.313A2.439,2.439,0,0,0,26.437,1.875ZM25.568,16.6A4.832,4.832,0,0,1,24.255,20a4.834,4.834,0,0,1-3.4,1.313c-1.341.076-5.362.076-6.7,0A4.841,4.841,0,0,1,10.748,20a4.817,4.817,0,0,1-1.313-3.4c-.076-1.342-.076-5.363,0-6.7a4.816,4.816,0,0,1,1.313-3.4,4.843,4.843,0,0,1,3.4-1.309c1.341-.076,5.362-.076,6.7,0a4.835,4.835,0,0,1,3.4,1.313,4.834,4.834,0,0,1,1.313,3.4C25.644,11.241,25.644,15.259,25.568,16.6Z" transform="translate(-6.125 -1.875)" fill="#707070"/>
</svg>
