<svg xmlns="http://www.w3.org/2000/svg" xmlns:xlink="http://www.w3.org/1999/xlink" width="79" height="80" viewBox="0 0 79 80">
  <defs>
    <clipPath id="clip-path">
      <rect id="Rechteck_2092" data-name="Rechteck 2092" width="36.892" height="44.175" fill="#707070"/>
    </clipPath>
  </defs>
  <g id="Gruppe_4088" data-name="Gruppe 4088" transform="translate(-0.401)">
    <ellipse id="Ellipse_3" data-name="Ellipse 3" cx="39.5" cy="40" rx="39.5" ry="40" transform="translate(0.401)" fill="#b1c7b5"/>
    <g id="Gruppe_3844" data-name="Gruppe 3844" transform="translate(21.193 17.692)">
      <g id="Gruppe_3843" data-name="Gruppe 3843" transform="translate(0 0)" clip-path="url(#clip-path)">
        <path id="Pfad_6020" data-name="Pfad 6020" d="M7.476,34.1l-2.508-2.52V22.966a2.484,2.484,0,1,0-4.967,0V38.642a.726.726,0,0,0,.151.44l6.236,8v6.166H7.806V46.835a.722.722,0,0,0-.15-.437l-6.236-8V22.966a1.064,1.064,0,1,1,2.129,0v8.906a.711.711,0,0,0,.209.5l1.037,1.043a2.722,2.722,0,0,0-1.159,4.536l4.377,4.4,1.005-1.008-4.379-4.4a1.325,1.325,0,0,1-.379-.922A1.3,1.3,0,0,1,6.471,35.1l.125.125,6.175,6.2V53.248H14.19V41.135a.716.716,0,0,0-.209-.5Z" transform="translate(0 -9.073)" fill="#707070"/>
        <path id="Pfad_6021" data-name="Pfad 6021" d="M52.479,20.472a2.494,2.494,0,0,0-2.485,2.494v8.611L47.488,34.1h0L40.98,40.631a.717.717,0,0,0-.209.5V53.248H42.19V41.431l6.178-6.2.124-.125a1.285,1.285,0,0,1,.913-.379,1.3,1.3,0,0,1,.918,2.224l-4.379,4.4,1.005,1.008,4.377-4.4a2.722,2.722,0,0,0-1.159-4.536L51.2,32.376a.708.708,0,0,0,.209-.5V22.966a1.064,1.064,0,1,1,2.129,0V38.4l-6.233,8a.7.7,0,0,0-.151.438v6.412h1.417V47.082l6.236-8a.709.709,0,0,0,.151-.44V22.966a2.493,2.493,0,0,0-2.482-2.494" transform="translate(-18.069 -9.073)" fill="#707070"/>
        <path id="Pfad_6022" data-name="Pfad 6022" d="M32.738,25.794c2.155-2.164,1.987-5.729,1.978-5.877a.708.708,0,0,0-.669-.672c-.151-.009-3.7-.18-5.854,1.984a5.327,5.327,0,0,0-.565.678V19.224a7.9,7.9,0,0,0,5.109-1.978c2.158-2.166,1.987-5.729,1.978-5.879a.706.706,0,0,0-.669-.672c-.148-.012-3.7-.179-5.854,1.984a5.571,5.571,0,0,0-.565.678v-2.34c.759-.672,2.838-2.751,2.838-5.318,0-3.064-2.983-5.448-3.11-5.546a.7.7,0,0,0-.875,0c-.128.1-3.111,2.482-3.111,5.546,0,2.566,2.08,4.646,2.839,5.318v2.34a5.952,5.952,0,0,0-.565-.678c-2.158-2.163-5.7-1.993-5.857-1.984a.7.7,0,0,0-.667.672c-.008.15-.179,3.713,1.976,5.879a7.908,7.908,0,0,0,5.112,1.978v2.682a5.952,5.952,0,0,0-.565-.678c-2.155-2.164-5.7-1.993-5.854-1.984a.707.707,0,0,0-.669.672c-.008.148-.179,3.713,1.978,5.877a7.887,7.887,0,0,0,5.109,1.981v4.287h1.419V27.775a7.894,7.894,0,0,0,5.109-1.981M29.2,22.237a6.491,6.491,0,0,1,4.093-1.558,6.524,6.524,0,0,1-1.552,4.11,6.507,6.507,0,0,1-4.093,1.558,6.521,6.521,0,0,1,1.552-4.11m0-8.55a6.491,6.491,0,0,1,4.093-1.558,6.524,6.524,0,0,1-1.552,4.11A6.488,6.488,0,0,1,27.643,17.8a6.522,6.522,0,0,1,1.552-4.11m-7.1,2.552a6.554,6.554,0,0,1-1.55-4.113,6.475,6.475,0,0,1,4.09,1.561,6.561,6.561,0,0,1,1.552,4.11A6.462,6.462,0,0,1,22.1,16.238m0,8.55a6.555,6.555,0,0,1-1.55-4.113,6.476,6.476,0,0,1,4.09,1.561,6.56,6.56,0,0,1,1.552,4.11A6.461,6.461,0,0,1,22.1,24.789M24.79,5.7c0-1.752,1.393-3.328,2.129-4.032.733.7,2.126,2.28,2.126,4.032s-1.393,3.331-2.126,4.035c-.736-.7-2.129-2.28-2.129-4.035" transform="translate(-8.472 0)" fill="#707070"/>
      </g>
    </g>
  </g>
</svg>
