<svg id="Gruppe_4054" data-name="Gruppe 4054" xmlns="http://www.w3.org/2000/svg" xmlns:xlink="http://www.w3.org/1999/xlink" width="119.37" height="119.37" viewBox="0 0 119.37 119.37">
  <defs>
    <clipPath id="clip-path">
      <rect id="Rechteck_2243" data-name="Rechteck 2243" width="119.37" height="119.37" transform="translate(0 0)" fill="none"/>
    </clipPath>
  </defs>
  <g id="Gruppe_4053" data-name="Gruppe 4053" clip-path="url(#clip-path)">
    <path id="Pfad_7243" data-name="Pfad 7243" d="M101.885,17.484a59.665,59.665,0,0,0-84.4,0,59.659,59.659,0,0,0,0,84.4,59.662,59.662,0,0,0,84.4,0,59.671,59.671,0,0,0,0-84.4m-2.526,81.87A56.1,56.1,0,1,1,20.015,20.01,56.1,56.1,0,0,1,99.359,99.354" fill="#849489"/>
    <path id="Pfad_7244" data-name="Pfad 7244" d="M63.437,67.412A4.239,4.239,0,0,0,62.708,64a9.986,9.986,0,0,1,.729,3.412m2.99-7.073a9.228,9.228,0,0,1,.807,4.651c.589-.813.011-4.151-.807-4.651m10.406-3.016c.073,1.042.115-.468-.333,4.563-.011.094.109.2.172.3.312-.359.26.224.333-4.229.005-.214-.021-.433-.031-.646a1.336,1.336,0,0,0-.141.01m-5.323.157c.75,5.812.063,5.291.495,5.494.37-.708.016-5.088-.495-5.494M50.286,51.24c-.119.724-.234,1.448-.354,2.167a4.4,4.4,0,0,0,.459-2.151l-.1-.016m-5.807,2.042c-.187-.214-.333-.511-.568-.625a1.062,1.062,0,0,1-.6-.865c-.229-1.271-.661-1.214-2.823-1.693-.192-.047-.416.006-.422.266-.005.328.256.2.427.208,1.261.089,2.245.344,2.527,1.641.177.792.9.792,1.307,1.219.052-.052.1-.1.156-.151m50.625-9.5a18.9,18.9,0,0,0,.656,2.651c.964,3.963.886,4.3-.1,8.448.032.01.058.01.089.021,1.552-3.8.9-7.48-.537-11.131-.041.006-.072.006-.109.011M70.677,34.938a.976.976,0,0,1-.974-.047,6.481,6.481,0,0,1-1.8-.917,8.949,8.949,0,0,0-1.693-.453,7.065,7.065,0,0,0-1.583.12.336.336,0,0,0-.328.417,3.375,3.375,0,0,1,.812-.115c2.61.37,2.245.594,2.755.787a9.44,9.44,0,0,1,1.37.473,1.791,1.791,0,0,0,1.729.042c.256-.109.709.1,1.7.37a6.007,6.007,0,0,1,2.6,1.859c.011-.692-.567-.922-.8-1.328.881-.1,1.375.521,1.922,1.042A1.775,1.775,0,0,0,75.3,35.933a6.962,6.962,0,0,1-2.5-1.485,3.146,3.146,0,0,0-2.771-.479c-.906-.026-1.625-.661-2.5-.818a6.59,6.59,0,0,0-1.229-.63c-.031.057-.068.11-.1.167a11.9,11.9,0,0,0,2.438,1.4c1.474.812,1.765.156,2.5.187a2.6,2.6,0,0,1,1.968,1.094c-1.682-.516-1.958-.682-2.437-.427M83.2,55.86c-.052.005-.1.005-.146.005v2.62h.12c-.177-.875.37-1.745.026-2.625M58.4,94.49c.567-.328-.459-1.318-.953-1.021.3.323.609.651.953,1.021M89.479,28.37c1-.359,1.922.162,2.88.266a2.9,2.9,0,0,0-2.88-.266M46.151,79.448c.057,0,.115.005.177.011.141-.615.828-.974.714-1.724a7.369,7.369,0,0,0-.933,1.213c-.067.12.026.334.042.5M82.6,54.12l.156-.062c-.041-.49.219.02-.979-2.188a2.964,2.964,0,0,0-.182-.255,1.034,1.034,0,0,0-.12.1L82.6,54.12M60.255,67.563c-.01.052-.208.989-.031.995.943.036.833-.073.948-.328.047-.1-.058-.136-.917-.667m-.323-31.948c.526.391,1.042.776,1.584,1.177.041-.2.093-.443.151-.724-.641-.042-1.058-.7-1.735-.453m37.974,7.693c-.041.036-.083.067-.12.1.49.635.98,1.26,1.469,1.89a2.527,2.527,0,0,0-1.349-1.989M47.6,89.188c-.37,1.015-.771,2.12-1.172,3.229A3.4,3.4,0,0,0,47.6,89.188M32.266,54.4c1.5-.078,1.1-.151,2.005.88.036-.031.073-.062.114-.093-.573-1.021-.739-1.672-1.468-1.443-.3.094-.672.125-.651.656M54.333,94.511a1.7,1.7,0,0,0,1.156.63c.125-.937-.041-.536.568-1.589a3.31,3.31,0,0,0-1.724.959M35.213,93.6c.99,0,1.875-1.692,1.589-2.812-.5.9-1.042,1.838-1.589,2.812m-5.333-8.89.094-.016c.161-1.536.281-3-.865-4.031.266,1.4.516,2.724.771,4.047M56.849,95.261v0c.083,0,.786.083.943-.255.1-.219-.032-1.011-1.084-.813-.25.047-.474.391-.651.646s-.068.4.255.412c.177.01.355.005.537.005m1.2-29.167c-.011.011-.031.026-.026.031a.635.635,0,0,0,.073.162c1.031,1.234.755,1.745,1.328,2.239.521.448.63-.942.14-1.39a3.3,3.3,0,0,0-1.515-1.042m31.1-2.172c.583.9,1.151,1.776,1.729,2.667a2.806,2.806,0,0,0-.844-2.583.627.627,0,0,0-.885-.084m11.062-14.151c1.063-.953.828-1.807.078-3.609a4.338,4.338,0,0,0-.51-.755c-.052.02-.109.041-.167.067.979,1.313.4,2.823.6,4.3M83.724,57.193c-.917,4.391-.63,2.651-.63,4.516-.167-.11-.266-.177-.391-.261-.016.167-.026.308-.042.438.99.276,1.339-.016,1.131-.948-.235-1.016-.068-1.125-.068-3.745m-15.3,21.214c1.656,2.984-1.323,4.427.109,5.8a1.68,1.68,0,0,0,.714-1.677c-.151-.646.448-1.042.255-2.245a2.258,2.258,0,0,0-1.078-1.88m6.708-18.62h-.167c-.031-.511-.067-1.021-.1-1.531a.588.588,0,0,0-.093.01v1.865l.276-.068c.2.823.031-.318-.521,2.88.865-.057,1.281-.016,1.333-.328.146-.865.521-1.682-.786-5.068a10.859,10.859,0,0,1,.057,2.24M65.864,29.761c.032.067.063.135.094.2,2.281-.578,2.016-.558,2.375-.438,1.323.438,1.094-1,2.922-1.734,1.4-.563,1.156-.12,2.552-.193,0-.042.021-.083.026-.125-.8-.5-.719-.3-1.51-.271-2.688.084-2.151,2.13-4.214,1.354a.806.806,0,0,0-.833.073c-.484.365-.943.756-1.412,1.136M47.281,82.151c-.036.016-.073.026-.109.042.323-1.4-1.281-1.87-1.188-2.776-.385.375.1.792.292,1.6A31.982,31.982,0,0,0,47.8,86.709a.556.556,0,0,1,.1-.011,12.736,12.736,0,0,0-.432-4.338c-.016-.078-.125-.141-.188-.209M73.614,42.813a1.15,1.15,0,0,0-.083.13c2.719,1.787.255-.26,4.511,4.365a10.058,10.058,0,0,1,1.239,1.364c-.281-2.844-1.6-3.786-3.39-5.062a3.019,3.019,0,0,0-2.277-.8m-1.6-.427a.66.66,0,0,0,.026-.1,4.38,4.38,0,0,0-1.166-.308,4.005,4.005,0,0,1-2.172-.64c-1.172-.683-2.084-.354-3.3,0a6.812,6.812,0,0,1-3.229.932c.057.37-.136.354-.438.224.037.255.073.479.1.682.417.042.771.068,1.12.12,1.635.234.063-3.141,6.057-.672.823.344,1.229-.463,2.146-.245a3.578,3.578,0,0,0,.854.011M99.1,50.969a19.779,19.779,0,0,0,.38-4.323c-.026-.515.214-.12-1.88-2.739-.026.02-.057.041-.083.057l.093.25a5.849,5.849,0,0,1,.547,2.005c0,.792.063,1.578.005,2.365a49.687,49.687,0,0,1-.692,4.989c.036.016.078.026.119.042,1.37-1.818,1.214-1.656,1.4-1.865.912-1.052.828-1.01.828-4.64h-.1a9.958,9.958,0,0,1-.609,3.859M71.146,64.693c.875.261,1.9.089,2.823,1.688a20.8,20.8,0,0,0,2.672,2.442c.171.151.255.412.427.563a4.538,4.538,0,0,1,1.369,2.864c.427,2.391.886,1.948,1.136,2.709.349,1.078,1.041,1.021,1.344,1.979.6,1.932-.631,2.656-.3,2.989.187.193.932.011,1.036-.229a3.725,3.725,0,0,0-.109-3.312A17.156,17.156,0,0,0,80.1,73.912a1.023,1.023,0,0,1-.286-1.287,1.185,1.185,0,0,0-.2-1.208c-.692-1.031-.984-1.844-2.041-2.193-.854-.281-1.985-1.994-3.276-3.265-.459-.448-.8-1.12-1.6-1.047.078-.391.078-.391.474-.573a2.665,2.665,0,0,0-2.021.354M86.208,26.511c.021-.047.042-.094.063-.146,1.771-.057,1.672.745,2.208,1.13.188.13.386.25.641.412-.115-.006-.042.01.13-.042,1.922-.662,2.114.062,3.292.1.484.021.828-1.255.062-1.979-.411-.391-.422-.912-.953-.76-1.135.328-1.26-.8-2.849-.438.745.411.745.411.729.552a3.1,3.1,0,0,0-3.026.349c.724.219,1.563.344,1.792,1.1-.662-.234-1.12-.8-1.771-.651a2.114,2.114,0,0,0-1.583.922,19.619,19.619,0,0,1,2.916.677c-.01.042-.021.094-.036.141l-.542-.115c.625.714,1.115.9,1.474.61A6.211,6.211,0,0,0,87.713,27.1a6.019,6.019,0,0,0-1.5-.594m-11.62.63c-.161-.927.115-1.9-.911-2.406-.083-.042-.13-.157-.193-.235A2.608,2.608,0,0,0,73,23.969a1.963,1.963,0,0,1-.812-1.187c-.188-.75-.865-.589-1.235-.8a1.68,1.68,0,0,0-2.057.677,3.434,3.434,0,0,1-.844,1.146c-.1.119-.2.244-.3.364.349.11.433-.031,1.979-.469.073-.02.178.042.266.063-.234.26.245.042-2.057.865a2.765,2.765,0,0,0-1.735,1.687c1.74-1.193,2.422-1.854,3.24-1.5a2.325,2.325,0,0,0-.734.2,12.914,12.914,0,0,0-1.881,1.4A13.763,13.763,0,0,0,65.5,28.146c-.01.016.016.052.031.094.386-.3.756-.615,1.151-.891s.813-.494,1.2-.76c.792-.542.943-.609,1.24-.516-1.292.865-2.8,1.511-3.568,3.026.823-.932,2.052-.942,3.037-1.484.02.042.047.088.067.13-.156.1-.312.193-.51.323a1.5,1.5,0,0,0,1.531-.193,3.962,3.962,0,0,1,4.094-.979c.24.063.474.141.812.245M51.167,57.948c-1.62-1.156-1.49-1.172-2.1-1.177-1.3,0-2.365.849-3.625.995-.146.016-3.636,2.255-4.318,3.927-.3.734-.781,1.391-1.13,2.1a.7.7,0,0,0,.744,1.084c1.157-.157,2.115-.849,3.922-1.99a33.436,33.436,0,0,0,5.521-4.036c.344-.282.656-.6.985-.907m9.078,6.735c.047-.032.093-.058.14-.089.448.688.714.651.979,2.714.162,1.307,1.167,1.276,2.079.656.468-.318.906-.672,1.364-1,.438-.318.438-.37.245-.88-.88-2.339-.984-3.125-1.313-3.323a8.274,8.274,0,0,0-2.572-1.188c-1.891-.349-1.526-2.26-4.068-3.89-.948-.615-1.448.14-2.766.2-.375.021-1.307-.417-1.984.177-1,.88-2.042,1.713-3.068,2.573.073.036.146.073.255.13-1.015.349-.161-.1-2.312,1.427,2.708-.344,1.6-.26,3.646.068a3.622,3.622,0,0,0,.536,0c-.3-.417-.906-.432-.989-.984,4.291,2.588.979,1.468,5.208,3.567a18.532,18.532,0,0,0,3.016.933c.963-.375.713.958,2.427,1.7a5.389,5.389,0,0,0-.823-2.8m-33,21.812-.11.047a11.547,11.547,0,0,1-.677-2.641c-1.073-4.229-1.166-4.52-1.469-4.546-.4-.032-.88.614-.807,1.02.042.25.1.5.136.75A26.383,26.383,0,0,0,25.8,86.75l-.146.037c-1.229-2.052-1.526-4.38-1.859-6.755-1.193.442-1.354.213-.87,1.89,1.8,6.209,1.479,4.891,1.578,5.521a.556.556,0,0,1-.1.021,2.023,2.023,0,0,1-.161-.3,41.825,41.825,0,0,1-1.782-6.156c-.208-.787-1.177.01-1.031.6,1.516,6.021,1.021,3.755,1.36,5.646-.047.005-.094.015-.136.02-.562-1.916-1.12-3.823-1.687-5.744a1.508,1.508,0,0,0-.818,1.869c.932,3.563,1.365,4.886,1.531,5.808-.041.01-.078.015-.109.021q-.962-3.063-1.917-6.136a1.436,1.436,0,0,0-.859,1.2c.182,1.459.192.927.146,1.4a.747.747,0,0,1-.105.011c-.109-.386-.213-.782-.338-1.245-.729.885-.5,1.536-.25,3.713-.026.011-.052.011-.078.021-.136-.588-.271-1.177-.4-1.765-.62.911-.526,1.234-1.115,2.885-.1.287-.328.62-.265.87a6.3,6.3,0,0,0,.776,2.109,4.433,4.433,0,0,0,3.458,2.068c2.4.578,3.734-.5,5.745-2.01.385-.287.619-.5,2.916-4.4a3.1,3.1,0,0,0,.391-3.135c-1.276-5.042-1.2-4.823-1.3-4.891a8.173,8.173,0,0,0-.761-.406c-.057.912-.255-.14.735,3.7.588,2.266.458,1.839.484,2.318l-.12.015c-.427-1.26-.151-.947-1.687-5.734-.052-.146-.151-.338-.266-.375a9.284,9.284,0,0,0-1.114-.213c.547,2.5,1.073,4.885,1.6,7.265M83.276,62.9c.052.453.427.61.687.849.506.464,1.047.891,1.521,1.375a1.936,1.936,0,0,1,.5,1.526,3.993,3.993,0,0,0-1.583-2.182,10.867,10.867,0,0,1-1.495-1.318c-.39-.4-.651-.469-1.187-.088,1.276,1.047,1.9,3.385,1.833,4.984-.182-.177-.291-1.307-.765-2.917a2.457,2.457,0,0,0-3.094-1.89,6.926,6.926,0,0,1,1.109,1.922c-.036.02-.078.041-.114.062-1.058-1.6-1.646-2.521-3.188-1.552A4.056,4.056,0,0,1,79.37,67c-.292-.385-.282-1.458-1.151-2.354-.412-.432-.849-.943-1.469-.916a6.762,6.762,0,0,0-2.828.416c.984.49,3.073,1.224,3.062,2.688-.625-1.5-1.911-2.021-3.479-2.328.448.692.047.281,1.5,1.7,2.583,2.506,2.406,2.516,2.99,2.761.791.333,1.166.927,2.14,2.385.328.485.131.537.094,1.448-.026.683.552.943,1.1,2.063.7,1.416,1.563,2.823.8,4.468-.042.089-.031.292.016.318a.6.6,0,0,0,.38.021c.2-.073,2.807-1.135,4.375-1.766a3.059,3.059,0,0,0,.463-.151c2.886-1.625,3.469-1.948,4.011-2.708.26-.359,2-2.807,2.208-3.281,1.157-2.625.594-3,.761-3.714a3.775,3.775,0,0,0-.3-2.125c-.136-.364-1.329-1.1-1.657-1.323a1.1,1.1,0,0,1-.093.068c.072.484.145.969.224,1.448l-.152.031a4.688,4.688,0,0,1-.208-.87,1.787,1.787,0,0,0-.542-1.13c-.208-.224-.755-.291-.854-.1-.182.365.631,1.578.214,3.036-.37,1.313.906,1.678.984,4.12.011.412-.344,2.677-.416,3.078a2,2,0,0,1-.209.49.566.566,0,0,1-.1-.042,33.192,33.192,0,0,0,.354-3.666c-.021-1.245-.989-2.578-.969-3.136.047-1.51-.713-2.109-1.385-3.286-.484-.849.151-1.323-1.557-1.474-.016.2-.11.432-.031.594,1.088,2.312,2.114,2.4,2.468,3.9.886,3.677.6,2.135.651,2.849.063.932.5,1.458.058,2.942a13.661,13.661,0,0,1-.584,1.438.61.61,0,0,0-.1-.042,1.311,1.311,0,0,1,.042-.292c1.156-2.52-.125-5.666-.193-6.02a4.065,4.065,0,0,0-1.38-2.474l-.078.062c.021.313.041.63.057.875a10.44,10.44,0,0,0-1.719-3.406,1.255,1.255,0,0,0-1.073-.609c-.4,0-.791-.11-1.192-.125-.422-.016-.849.026-1.318.041M51.151,39.834c.458.229.693.8,1.3.776a2.163,2.163,0,0,1,1.411.453c.282.2.5.495.787.7a2.117,2.117,0,0,1,.823,1.51,25.336,25.336,0,0,0,1,2.932c.02.063-.042.146-.089.287a1.612,1.612,0,0,1-.224-.276c-.281-.688-.573-1.37-.823-2.063-.338-.937.021-.77-.771-1.984-.073-.109-.2-.177-.281-.292a2.064,2.064,0,0,0-1.661-.885c-1.188-.094-1.282-1.031-1.9-1.115a11.861,11.861,0,0,1-1.787-.666A9.213,9.213,0,0,0,47.463,39a1.973,1.973,0,0,0-2.151,1.313c-1.067,3.125-.588,2.2-1.026,2.792-.036-.152-.052-.23-.078-.339a2.589,2.589,0,0,1-.734.443c-1.188.208-4.146,2.963-5.026,3.786.75-.177.5.62.979.714-.286.26-.422.135-.557-.026a.656.656,0,0,0-1.136.015c.7.584.792,1.5,1.224,2.25a2.94,2.94,0,0,1-.937-1.312c-.526-1.167-1.282-.084-3.068,1.646-.187.177-2.094,2.812-2.24,3a.737.737,0,0,0,.068.125c1.115-.219,1.344.64,1.886,1.458.114.182.244.469.406.5.651.1,1.219.8,1.937.234a.449.449,0,0,1-.2.641c-.526.307-.958-.318-1.885-.292a1.386,1.386,0,0,0,1.651.672c.427-.146.64-.078.755.255a3.451,3.451,0,0,1-.755.219c-.656.052-1.344.115-1.813-.526-1.271-1.734-1.276-1.859-1.76-1.859-.255.005-.521.125-.776.125a.7.7,0,0,0-.677.416c-1.1,2.256-1.266,2.188-1.74,6.146a9.576,9.576,0,0,0,.047,1.964,4,4,0,0,0,.292.916,1.154,1.154,0,0,0,.13-.01c.255-.38.526-.75.766-1.135a.648.648,0,0,1,1.041-.183c.865.849,1.011,1.4,1.448,1.193a16.129,16.129,0,0,0,1.474-.875,1.349,1.349,0,0,1-1.229.073,11.682,11.682,0,0,1,1.875-.776c1.312-.636,1.87-.073,3.016.411.885.375.739.063,1.791-1.656.151-.239.479-.437.11-.755-.1-.089.328-2.261-1.079-2.932a.675.675,0,0,1,.8.265,3.771,3.771,0,0,1,.7,2.24c.036-.005.073-.016.1-.021a3.376,3.376,0,0,0-1.11-3.875c.9.083,1.568,1.411,1.667,3.411.485-.39.912-.739,1.37-1.114a1.868,1.868,0,0,1-.224-.1c1.443-.979.2.01,2.37-1.318.078-.052.192-.13.2-.213a4.458,4.458,0,0,0-.146-2.938c.182.037.406.094.443.208a4.886,4.886,0,0,1,.3,2.042l.156.016a2.89,2.89,0,0,0,.12-.922c-.208-1.031-.542-2.531-1.412-3.1-.5-.328-1.13-.573-1.276-1.282-.01-.057-.093-.109-.151-.156-.968-.9-1.505-1.75-2.76-1.375a.38.38,0,0,1-.135.016c-.355.01-.485-.162-.428-.531,1.7,0,2.172-.219,2.631.453a7.03,7.03,0,0,1,1.375,1.312c.645,1.156,1.635,1.136,1.812,1.974a20.154,20.154,0,0,0,.86,2.255,2.588,2.588,0,0,1-.407,1.787.539.539,0,0,0,.151.01,6.631,6.631,0,0,1,2.276-.7c.365.006.547-.244.61-.593.052-.276.125-.547.192-.823l.1.031c-.25,1.062-.427,1.349.057,1.4.943.1,1.109,1.344,1.453.375.313-.88.63-1.755.958-2.63,1.349-3.558.7-2.662,1.125-3.334,1.006.7.016.177-1.786,6.636l.141.109a1.782,1.782,0,0,0,.39-.265c.016-.016,1.328-2.292,1.339-2.308a13.029,13.029,0,0,0,1.281-4.64c.057,0,.109.005.161.01.474,1.917-1.39,5.083-2.343,6.813.026.026.057.046.088.073,1.755-1.62,1.932-1.745,2.052-2.016a30.965,30.965,0,0,0,1.948-7.495.516.516,0,0,1,.219.391,30.756,30.756,0,0,1-1.37,6.14c2.172-2.416,1.656-2.192,2.261-4.5.349-1.338-.36-2.3-.855-3.807a11.046,11.046,0,0,0-1.088-2.979,6.377,6.377,0,0,0-1.354-1.9c.026-.026.052-.057.078-.083,1.969,1.468,1.375,1.812,1.989,2.619a2.433,2.433,0,0,1,.474,1.224,6.629,6.629,0,0,0,1.141,2.959c.1-.459-.089-.938.406-1.287a33.242,33.242,0,0,1-.875,5.12,3.205,3.205,0,0,0,.37-.286c.323-.349.8-.646.922-1.058a17.884,17.884,0,0,0,.8-4.51,3.048,3.048,0,0,1,.052-.385c.057,0,.12.005.177.01.2.594.073.807-.422,4.115l.141.031c1.974-2.516,1.385-2.8,1.463-6.584.079-4.083.3-4.854-.041-5.489a2.141,2.141,0,0,0-1.74-1.016,2.006,2.006,0,0,1-.489-.213c0-.042.005-.089.005-.136-.344.162-.688.328-1.047.495a4.892,4.892,0,0,1,.885.464,6.736,6.736,0,0,1,1.953,2.75c-.036.02-.062.036-.093.057a.785.785,0,0,1-.157-.125c-.453-.656-1.25-2.037-2.1-2.359a2.323,2.323,0,0,0-.922.135c-.026-.563-.037-.4.067-.6a.973.973,0,0,1-.073-.068c-.349.282-.692.568-1.083.9a5.236,5.236,0,0,1,2.234,1.521,4.127,4.127,0,0,1,.8,2.463c-.573-1.526-.838-2.765-2.682-3.38-.562-.187-1.213-.4-1.734.188a8.669,8.669,0,0,1,3.047,2.781c-.355-.083-.292-.1-1.579-1.365-1.421-1.39-2.192-.635-2.338-.739-.287-.208-.422.031-.662.2a3.6,3.6,0,0,1,2.1,1.182,9.486,9.486,0,0,1,1.406,2.063c-.557-.224-1.776-2.542-2.891-2.547a16.16,16.16,0,0,0-1.906-.026c-.276.041-.552.088-.9.151M25.109,77.714a9.615,9.615,0,0,0-1.958.6c-2.9,1.687-4.073,2.453-4.646,4.13-.031.1.037.234.063.349.552-.26.026.052,1.093-1.12,1.4-1.541,2.964-2.14,5.125-3.073.631-.271.87-.474,2.709-.047,2.578.6,3.666,2.922,3.364,5.573-.265,2.391.422,1.709-1.12,4.646-.437.834-1.046,1.584-1.479,2.422a6.725,6.725,0,0,1-2.244,2.422c-.48.333-.928.719-1.386,1.078a2.6,2.6,0,0,0,1.833-.859c.287.015.5.088.657.021a.419.419,0,0,0,.224-.683c.916-.255-.2.391,1.682-1.583.036.031.073.062.1.094a13.938,13.938,0,0,1-1.875,2.609c1.516,0,1.927-.3,3.776-3.755.042.021.089.041.13.062a18.918,18.918,0,0,1-1.6,3.157,1.023,1.023,0,0,0,1.084-.349,20.718,20.718,0,0,0,2.13-3.427l.151.088q-.859,1.773-1.724,3.552l.047.094c.3-.115.724-.136.891-.349A27.769,27.769,0,0,0,34.234,89.7a1.458,1.458,0,0,1,.141-.166c.047.026.088.046.13.073-.583,1.3-1.161,2.6-1.75,3.895a1.043,1.043,0,0,1,.073.078c.354-.192.214.157,1.453-1.838,1.208-1.948.839-1.656,1.2-1.734-1.8,3.838-1.557,2.9-1.495,3.489a1.16,1.16,0,0,0,.391-.1c.1-.068.13-.255.229-.318A4.532,4.532,0,0,0,36.161,90.8c.75-1.6-.567-2.052.047-5.1.219-1.067-.323-1.239-.948-2.536-.265-.547-1.036-2.3-1.036-2.312-.011-.724-.849-.823-2.172-1.735a10.758,10.758,0,0,1-1.073-.927,1.376,1.376,0,0,1-.208-.328l.088-.073c.584.474,1.391.583,1.875,1.229.151.2,1.422.432,1.75,1.073,1.308,2.526,1.12,3.193,1.948,3.912.474.4.235,1.447.182,1.911-.187,1.917-.333.927.334,3.906.047-.317.1-.625.125-.932.031-.391-.12-1.385-.084-1.953.125-1.953,1.084-2.136-.151-3.167a2.07,2.07,0,0,1-.661-1.708c.234.39.292.844.505,1.042,1.089,1.01,1.729.765,1.177,2.2-.692,1.8.193,2.5-.609,6.833a6.1,6.1,0,0,1-.761,1.536.827.827,0,0,0,1.183-.3,8.031,8.031,0,0,0,1.015-1.77c.417-1.2.714-2.438,1.089-3.745a13.423,13.423,0,0,1-1.162,4.916c-.083.2-.375.448-.083.61.136.073.448-.162.672-.271A10.125,10.125,0,0,0,40.536,89a5.285,5.285,0,0,1,.188-.661,14.873,14.873,0,0,1-.906,4.776,2.273,2.273,0,0,0,.833-.714,9.154,9.154,0,0,0,.963-3c.042-.344.162-.677.261-1.1.068.135.1.172.1.2a13.746,13.746,0,0,1-.844,3.891,1.872,1.872,0,0,0,0,.479c.183-.057.448-.057.532-.182a13.478,13.478,0,0,0,1.458-4.636,1.507,1.507,0,0,1,.146-.359.953.953,0,0,0,.093.042c-.828,5.119-1.026,3.744-1.052,5.166.938-.01.667.459,2.334-3.916a1.093,1.093,0,0,1,.12.026c-.125.838.171-.287-1.047,3.5a1.407,1.407,0,0,0-.021.338,2.462,2.462,0,0,0,2.2-1.489c.479-.938.906-.969,1.01-1.849a11.593,11.593,0,0,0,.339-2.448c-.078-.724-.162-.256-1.1-4.219a8.369,8.369,0,0,0-.724-2.469.84.84,0,0,1-.068-.432c.083-1.979,1.708-2.542,1.4-3.24-.984-2.2-.844-1.38-1.5-2.4a10.561,10.561,0,0,1-1.016-1.854c-.041-.427-.64-.328-.578-.76-.427.041-.323.005-.364.244-.74-1.239-.683-1.072-.719-1.479a2.5,2.5,0,0,1,.625-1.583,1.191,1.191,0,0,0,.1-1.375c-.682-.781-.99-.7-2.089-.776.053-.177.094-.323.146-.469.25-.781-.427-.427-.958-.526a1.812,1.812,0,0,1-1.365-.922c.021.183.042.37.058.552a.307.307,0,0,1-.073.011c-.011-.063-.026-.13-.042-.235-.12.084-.224.157-.333.235.041-.391.078-.74.114-1.094-1.552-1.021-3.6-.844-4.036-.031-.339-.11-.339-.11-.781.208a.926.926,0,0,1-1.209-.078c-1.015-1.193-1.192-1.719-1.552-1.016-.291.573-.552,1.167-.844,1.787,1.573,0,1.87-.052,2.157.338-.183.052-1.026-.02-1.7.037-.1,0-.193.2-.287.312.9.584,2.094.453,1.75,1.016-.89-.375-1.672-.859-1.713.25,1.062.125,1.995.042,2.3,1.088-.146-.036-.245-.031-.271-.072-.359-.516-.948-.527-1.469-.631a.82.82,0,0,0-.646.229,1.992,1.992,0,0,0-.265.693c.646.24,2.359.563,2.364,1.865-.484-.193-.687-1.224-2.187-1.308-.526-.031-.677.073-.87.646a3.7,3.7,0,0,1,2.5,2.151c-.516-.151-.552-.994-2.094-1.578a2.379,2.379,0,0,0-2.286.714,4.5,4.5,0,0,1,2.224.609c-.469.245-1.177-.427-2.729-.109-.745.156-.412-.11-1.3,1.078,1.677-.271,2.463-.537,3.3.083a1.205,1.205,0,0,1-.542.052c-1.687-.172-2.422.276-3.969,1.37-.437.307-.864.641-1.3.958.021.032.037.063.052.089.776-.328,3.292-1.245,3.688-1.391a.835.835,0,0,1,.786.042c-.646.25-1.286.333-2.036.651s-1.438.75-2.183,1.063a14.061,14.061,0,0,0-2.041.979c-.735.458-1.031,1.245-1.584,1.828-.015.015.016.078.042.161,1.833-1.531,2.412-2.177,4-2.651a.916.916,0,0,1-.3.3c-.422.271-.88.5-1.276.808A17.545,17.545,0,0,0,19.266,79.9a4.121,4.121,0,0,0-.355.646,20.128,20.128,0,0,1,5.214-3.026.764.764,0,0,1,.984.193M63.5,72.719c-.005-.047-.011-.088-.016-.135.844-.479,1.282-.521,2.844.489,1.188.771.865,1.7,1.016,1.87.343.359.177.776.156,1.188-.016.333.031.671.047,1.01.062,0,.13,0,.192-.01v-2.8a3.193,3.193,0,0,0-1.572-1.667,3.319,3.319,0,0,1-.771-.583c.026-.058.057-.125.088-.188a1.793,1.793,0,0,1,1.047.469c1.636,1.214,1.526,2.047,1.568,4.052.026,1.662.786,1.385,1.292,2.3a4.658,4.658,0,0,1,.354,3.3,7.041,7.041,0,0,0-.011,1.286c.657-.13,3.6-1.281,6.464-2.291.177-.063.4-.026.562-.115,1.657-.9,3.3-.3,3.308-1.276A6.035,6.035,0,0,0,80.6,78.5a2.444,2.444,0,0,0-.74-2.312c-.276-.266-.234-.042-1.427-2.292-.239-.458-.395-1.7-.7-2.62-.635-1.979-1.682-2.13-3.1-3.562a5.008,5.008,0,0,0-.558-.422c.047.318.073.51.1.708-.026.016-.057.032-.083.047a3.737,3.737,0,0,0-1.646-2.192c-.286-.214-1.094-.448-1.323-.646A.866.866,0,0,0,70,65.052a4.96,4.96,0,0,1,1.364,2.021c-.2-.1-.619-.833-1.135-1.338-.844-.834-1.3.031-1.911.219a7.218,7.218,0,0,0-2.834,1.723,8.347,8.347,0,0,0-1.224.776,5.526,5.526,0,0,1-3.021,1.125,7.014,7.014,0,0,1-4.718-1.4c-.412-.334-.1-.839.411-.657.328.11-.047.021,1.792.917.026-.042.047-.078.073-.115a3.671,3.671,0,0,0-1.886-2.322,3.288,3.288,0,0,0-1.166-.485c-2.589-.073-2.578-1.979-3.7-2.411a22.065,22.065,0,0,0-2.7-.719,12.288,12.288,0,0,1-2.64.266.567.567,0,0,0-.37.1c-4.839,2.963-4.26,2.369-4.641,3.6,1.256.036,2.136.906,3.261,1.177a1.311,1.311,0,0,1-.042.125l-1-.292a7.011,7.011,0,0,1-.146,1.13c-.208.682-1.114,1.417-.443,2.052.167-.192.334-.39.495-.594-.135.714-.614.62-.052,1.172.125.125.266.209.453.011.5-.516,1.245.6,1.1,1.208-.125.5.782,1.271,1.011,1.448,1.193.912.547,1.948,1.234,3.412.4.859-.036,1.343-.64,2.276-.448.687.552.1,1.13,3.541.12.709.13,1.432.291,2.12a4.539,4.539,0,0,1,.011,1.635c-.443,3.136-.063,4.99-2.068,6.047a2.3,2.3,0,0,0-.437.422c1.463.656.989.927,2.77-2.4.047.021.089.031.131.052-.578,2.136-1.506,2.839-.683,3.016,1.063.229,1.839.729,3.386.052,1.943-.854,1.812.417,2.864-.422,1.422-1.135,3.7-1.391,4.48-.51.218.239.411.5.682.823.14-.308.265-.568.385-.829-.114.011-.182.084-.192.073a.39.39,0,0,1-.063-.609c.245-.276.162-.042.5-2.094.047-.01.156.011.182-.031.3-.516.865-.865.985-1.5a.415.415,0,0,1,.224-.245A3.333,3.333,0,0,1,63.62,88.5c.192-1.411.76-2.39,1.385-2.333-.818,1.422-1.578,2.432-.208,2.547a3.141,3.141,0,0,1,.984-2.308c.037.037.073.068.11.1a4.015,4.015,0,0,0-.86,2.464,4.06,4.06,0,0,0,.792-.141c.031-.01,1.614-.583,1.635-.807a9.89,9.89,0,0,0,.1-2.995c.5.016.573-.073.49-.526-.281-1.51-.287-1.568-.078-2.177.343-1,1.328-2.271-.261-4.161-1.354-1.61.063-2.193-.687-2.912-.459-.443.156-1.323-1.13-2.021-.678-.359-.969-.739-1.719-.578a5.662,5.662,0,0,1-.672.073M61.786,42.1c.917-.141.745-.063.969-.115.245-.057.474-.151.719-.2.073-.021.187.078.245.052,1.786-1.011,1.026-.708,1.807-.886,1.141-.25,1.156-.364,1.6-.4,1.552-.131,2.3,1.026,3.031.984,1.854-.1,1.865.542,3.479.745a6.353,6.353,0,0,1,3.495,1.781c2.386,1.495,2.011,3.818,2.9,4.927a10.653,10.653,0,0,0,1.963,2.354.856.856,0,0,1,.235.318c.193.349,1.333,2.453,1.458,2.88.682,2.448.323,1.766.349,4.719a2.653,2.653,0,0,0,.219,1.583c.719-2.807.521-4.255.448-7.3.052,0,.1,0,.151,0a20.8,20.8,0,0,1-.427,7.985c1.463-.578,1.854-.625,2-1.151a18.257,18.257,0,0,0,.682-6.834,3.1,3.1,0,0,1,.083-.744,19.212,19.212,0,0,1-.458,7.692c1.229-.458,1.755-.531,1.729-1.156-.01-.141.485-1.734.594-2.745a18.7,18.7,0,0,0-.229-5.026.7.7,0,0,1,.036-.224,1.283,1.283,0,0,0,.136,0c.9,2.755.052,6.479-.209,8.276.464-.245.927-.463,1.375-.724.391-.229.261-.823.552-2.474.651-3.745-.286-5.14-.286-6.255,1.177,2.755.682,5.547.245,8.391.4-.214.724-.4,1.067-.573.922-.469.881-1.235.974-3.224a31.97,31.97,0,0,0-.088-4.094c-.026-.406-.094-.812-.146-1.224.052,0,.109-.005.162-.01a20.444,20.444,0,0,1,.322,3.869,15.029,15.029,0,0,1-.182,3.948,5.241,5.241,0,0,0,.854-.437c.344-.208.214-.094.756-3.63a8.977,8.977,0,0,0-.1-3.453A13.957,13.957,0,0,0,93.193,45.8c-.011-.021,0-.057.02-.172.172.078.454.037.625.756,1.167,4.864,1.131,5.02.349,9.963a1.053,1.053,0,0,0,.089.057c.552-.369,2.083-1.64,2.484-1.979.448-.375.563-.484.787-2.213.443-3.5.677-5.631-.073-7.537a8.131,8.131,0,0,0-.6-1.588,7.471,7.471,0,0,0-2.609-2.427,4.565,4.565,0,0,1-1.318-1.646c-.229-.4-.4-.839-.589-1.255.032-.026.068-.047.1-.068,1.167,1.349,1.229,2.453,2.521,2.76-.594-.932-1.771-1.474-1.708-2.771.323.209.5.912,1.047,1.4.635.573,1.411,1.907,1.911,2.313.516.417,2.2,1.7,2.781,2.026-.1-1.109-.7-1.661-1.067-2.724.047-.026.093-.052.145-.083a5.3,5.3,0,0,1,1.277,2.838c.375,1.683,1.411,1.823,1.567,3.13,0,.073.068.136.13.25a1.064,1.064,0,0,0,.141-.286c.115-.854.276-1.7.313-2.562.067-1.829-.48-2.756-1.349-4.516-.881-1.781-1.49-1.833-1.745-2.557-.031-.084.047-.209.073-.318.146.047.291-.031.651.578,1.64,2.771,2.7,4.208,2.583,6.453-.078,1.615-.406,2.594-.406,3.969.052.016.1.036.156.057a3.237,3.237,0,0,0,.573-.635c1.073-2.172.573-2.172.781-3.151.193-.9-.609-1.537-.682-1.683-.552-1.1-1.375-2.1-1.349-3.432a1.171,1.171,0,0,0-.115-.474c-.526-1.151-1.708-3.6-2.026-4.4-.88-2.234-.849-3.6-2.192-2.734-.568.359-.761-.375-1.323-.287a1.815,1.815,0,0,1-1.865-.828,3.582,3.582,0,0,0-2.911-1.25c-.917-.062-1.943.459-2.334.2-1.145-.771-1.093-1.286-2.364-1.276a1.432,1.432,0,0,0-1.011.49c2.287.307,2.615.442,2.573,1.015a4.1,4.1,0,0,0-3.26-.432c1.349.365,2.328.839,2.437,1.245-.567-.2-2.4-1.021-2.974-.568a6.742,6.742,0,0,1,1.245.24c.932.369.922.39.948.724-.411-.131-.818-.282-1.239-.381-1.428-.343-1.7.568-2.084.745a1,1,0,0,1-1.068-.224l-1.5,2.24-.093-.047c.1-.359-.146.234,1.036-2.234a.444.444,0,0,0-.219-.662A.38.38,0,0,0,79.87,30c-.026.037.244-.265-1.563,1.63-.187.193-.37.391-.557.589-.042-.042-.089-.078-.13-.12.646-.786,1.286-1.573,1.932-2.359-.656-.417-.87-.469-1.234-.245a7.929,7.929,0,0,0-2.412,2.1,9.723,9.723,0,0,1-.672.8,1.807,1.807,0,0,1-.146-.13Q76.347,30.8,77.6,29.344c-.984-.5-1.411.2-2.448,1.245-.031-.026-.057-.057-.088-.083.354-.474.713-.943,1.078-1.422-.542-.459-.724-.1-2.485,1.51a.465.465,0,0,0-.062-.057L75.318,28.6a2.744,2.744,0,0,0-.454-.4c-.244-.125-.552-.317-.776-.255-1.062.276-1.849-.422-3.026.412-1.359.958-1.046,1.13-1.807,1.552s-.974-.1-1.635.01c-1.87.323-2.287.464-2.552,1.021a5.175,5.175,0,0,1-.636.969,11.538,11.538,0,0,0-1.51,2.854c-.276.625-.318,1.354-.573,2a6.112,6.112,0,0,0-.328,1.687c-.068.631.146,1.287-.188,1.891-.041.068-.01.172-.015.261-.021.411.161.833-.058,1.239-.031.063.016.167.026.261M54.255,56.292c1.167.193.188.25,3.3-.151a.969.969,0,0,1,.437-.026,2.547,2.547,0,0,1,1.5,1.187c1.48,2.881,1.329,3.094,2.125,3.188a6.071,6.071,0,0,1,2.688.995,2,2,0,0,1,.8,1.187c.609,2.162,1.281,1.985,1.281,2.177,0,.12-.016.245-.026.365-.328-.13-.115.042-.8-.557-.031.02-.062.047-.088.067.067.521-.105,1.078.229,1.516a32.709,32.709,0,0,0,3.745-1.974.6.6,0,0,0,.244-.385,5.455,5.455,0,0,0,0-1.245,24.964,24.964,0,0,0-.911-3.328l.13-.032a12.734,12.734,0,0,1,1.2,4.735,2.93,2.93,0,0,0,.458-.11c2.354-1,3.115-.083,3.318-1.421.146-.959.9.786.594-5.026a.859.859,0,0,0-.4-.756C73,56.084,72.021,55.542,71.776,54.7a2.463,2.463,0,0,0-1.88-1.74c-.183-.047-.427.177-.651.276-.011.01-.037-.021-.058-.042.2-.26.36-.573.792-.458,1.8.458,1.625,1.365,2.188,2.214a4.828,4.828,0,0,0,2.078,1.432c.187-1.073-1.818-.6-2.516-2.875a2.277,2.277,0,0,0-2.281-1.422,5.652,5.652,0,0,0-1.047.328c-1.76.609-2.344,1.031-2.771.365a3.332,3.332,0,0,0,.875-.047c2-.636,2.87-1.526,4.188-.776A2.091,2.091,0,0,1,71.88,53.2a3.222,3.222,0,0,0,1.8,1.985c1.536.8,1.682,2.114,2.161,3.547a6.6,6.6,0,0,1,.329,4.12,4.806,4.806,0,0,0,2.13-.428c.224-.072.229-.7.354-1.468a13.687,13.687,0,0,0,.031-5.021c.834.739.245,4.979.136,6.1-.026.265.015.411.312.37.443-.063.886-.12,1.318-.224a.547.547,0,0,0,.307-.36c.162-1.1.344-2.2.417-3.3a18.837,18.837,0,0,0-.281-4.411.565.565,0,0,0,.1-.021,7.006,7.006,0,0,1,.4,2.411c.157,5.349-.953,5.724.334,5.573.349-.041.583-.156.63-.541.036-.266.151-.521.167-.787q.164-2.085.281-4.177c.114-2.036-.511-2.156-.844-2.911-1.365-3.1-1.531-3.745-2.245-4.125a1.5,1.5,0,0,1-.672-.521c-.526-1.037-1.583-1.578-2.25-2.49a14.315,14.315,0,0,0-2.328-2.411c-1.067-.292-1.109-1.214-1.932-1.214-1.453,0-1.589-.427-2.557.1-.714.386-1.1-.052-1.61-.182-.567-.146-2.5-1.088-3.271-.609a.819.819,0,0,1-.343.187.835.835,0,0,0-.631.511c-.953,1.724-2.854-.49-2.171,2.979-.021.078-.084.26-.146.448.021.01.041.021.067.031l.219-.172c.026.156.011.349-.067.38-.412.167-.365.62-.579.907-.1.13-.093.343-.177.5-1.724,3.3-2.8,2.973-4.958,6.015a27.361,27.361,0,0,1-1.776,2.167.874.874,0,0,1-.271.13c-.333.432-.036.141-1.057,1.068a5.778,5.778,0,0,1,.932.114c1.552.433,1.563-1.468,3.922.355,1.974,1.531,1.505,2.854,3.083,3.27a13.291,13.291,0,0,1,2.349.912c.875.317.88.838,1.62,3.047a6.133,6.133,0,0,0-.479-2.292c-.448-1.391-1.891-1.542-3.214-1.8-.859-.161-.619-.318-2.265-3.479a1.84,1.84,0,0,0-1.844-.849c-.792.109-1.589.151-2.391.193-.343.021-.661-.094-.656-.542m31.172,5.849a21.784,21.784,0,0,1,2.9.187c.328-.421.484.037.724.12,1.442.5,1.38-.015,3.422,1.177,2.026,1.183,2.432,1.761,2.458,2.787,0,.14.469.724.385.932-.453,1.109-.109,3.422-1.432,5.224-1.635,2.234-1.7,3.172-3.526,4.349-.495.323-.922.75-1.422,1.068-1.515.979-2.521.7-4.479,1.7-2.906,1.484-4.766,1.1-6.776,1.734-5.865,1.833-1.156.6-6.724,2.323-1.141.349-2.516,1.208-2.557,2.365-.068,1.968-.136,2.364-.412,2.515-1.474.813-2.156,1.271-3.656.927-1.281-.291-1.521-.594-2.031-.234a3.517,3.517,0,0,0-1.7,3.437c0,1.625-.995,1.7-1.828,2.594-.8.854-2.063.7-3.907.516-.39-.042-.166-.177-1.546-.5-.193-.042-.427-.031-.276-.37.036-.063-.146-.229-.235-.354a1.373,1.373,0,0,1-.047.146c-.255.026-.515.041-.771.083-1.739.276-2.093.505-3.286.187a22.69,22.69,0,0,0-5.068-.979c-.151-.021-.583.151-.776.084-2.083-.709-3.338.515-5.375.968a4.31,4.31,0,0,1-2.078-.328,4.235,4.235,0,0,0-2.432-.2c-.636.3-.656-.286-1.235.047-.552.318-.661-.141-2.265.177-3.365.677-.943.552-6.714,1.078-.078.011-.161-.026-.25-.14.2-.052.4-.1.615-.157-.438-.343-.615-.359-1.636-.156.277.151.49.261.7.37-.005.047-.015.083-.02.125-1.084-.177-.047.1-2.417-.734-.068-.027-.1-.011-.75.182.052-.162.078-.255.114-.37-1.307-.391-1.208-.26-2.4-1.786a4.4,4.4,0,0,1-1.046-3.865c.322-1.01.3-.01,1.041-4.8-.229.265-.427.495-.646.755.037.1.089.229.146.375-.349-.073-.448-.24-.349-.5a6.765,6.765,0,0,0,.391-1.3,1.055,1.055,0,0,0,.13-.01c-.083-.063-.161-.125-.239-.188.036,0,.078.01.109.016.3-.735.588-1.479.88-2.219.151-.365.406-.62.5-.88,1.13-3.292,3.2-4.677,5.8-6.761a11.119,11.119,0,0,0,2.25-3c.5-.734,1.177-.771,2.333-1.344.026-.01.042-.057.063-.057,1.13-.151,1.036-1.161,1.745-2.031-.157-.063-.506.041-.313-.344.052,0,.141.01.25.016v-.511c-.13.047-.25.094-.4.146a1.872,1.872,0,0,1,.2-1.359c.073-.1,0-.318-.021-.526-.161.067-.25.109-.354.146-.016-.063-.047-.12-.031-.141a1.091,1.091,0,0,0-.11-1.162c-.234-.416.073-1.036-.1-1.156-.4-.271-.073-.672-.2-.984-.021-.047.13-.156.172-.25a1.793,1.793,0,0,0,.1-.339c-.094-.052-.177-.093-.255-.13.01-.057.01-.1.026-.114.437-.313.115-.792.583-2.2,1.3-3.891,1.349-3.407,1.912-4.329a25.176,25.176,0,0,1,3.75-5.166c.182-.219,4.614-4.3,5.9-5.276a7.933,7.933,0,0,1,2.51-1.573A1.093,1.093,0,0,0,44,41.589c.594-1.474.151-1.563,1.391-2.662a2.9,2.9,0,0,1,1.015-.7c.5-.131.9-.745,1.526-.381a1.209,1.209,0,0,0,.328-.031.792.792,0,0,1,.073.2c-.37.2-.8-.349-1.177.234,1.13.1,1.266.157,1.354-.036.151-.359.344-.25.532-.042a2.491,2.491,0,0,0,2.791.594,37.888,37.888,0,0,0,4.1-2.031,2.111,2.111,0,0,0,.344-.344c1.292-1.193,3.615-1.938,4.958-1.172.5.287.563.172.782-.364.27-.657.666-1.266.911-1.933.557-1.526,1.766-1.932,1.776-3.687a3.965,3.965,0,0,1,.6-2.761,1.556,1.556,0,0,0,.224-.333c.385-1.3,1.49-2.063,2.3-3.042.479-.588.6-1.531,1.693-1.557a2.718,2.718,0,0,1,1.557.005c1.187.219,1.635.339,1.776.969a5.48,5.48,0,0,0,1.161,1.542c.058.062.115.156.193.177.776.224.786.927.932,1.526.36,1.437-.078,1.854.9,2.078a9.364,9.364,0,0,0,2.537.62c1.271-.2,2.3.614,3.521,1.442,2.994-4.208,2.531-3.921,3.974-4.838.354-.229.76-.391,1.125-.61a4.8,4.8,0,0,1,2.583-.536c.62,0,1.078.781,1.953.51.828-.255,1.047.6,1.526.964,1.073.8.1,2.844.188,3.286a2.362,2.362,0,0,0,1.448,1.375c.463.068.927.141,1.4.183,1.193.1,1.641-.3,1.943.63.068.213.229.4.313.609.187.443,1.078,2.844,2.5,5.625.89,1.724-.214,1.172,1.541,4.157.787,1.343,1.407,1.765.9,3.974A13.312,13.312,0,0,1,100.6,50.8a23.777,23.777,0,0,1-3.49,4.255c-4.323,3.553-6.677,4.516-11.7,6.938a1.374,1.374,0,0,0,.021.151" fill="#849489"/>
  </g>
</svg>
