<svg xmlns="http://www.w3.org/2000/svg" xmlns:xlink="http://www.w3.org/1999/xlink" width="19.315" height="19.157" viewBox="0 0 19.315 19.157">
  <defs>
    <clipPath id="clip-path">
      <path id="Pfad_2425" data-name="Pfad 2425" d="M9.579,0a9.579,9.579,0,1,0,9.577,9.579A9.578,9.578,0,0,0,9.579,0Z" transform="translate(0 0)" fill="none"/>
    </clipPath>
    <clipPath id="clip-path-2">
      <rect id="Rechteck_1503" data-name="Rechteck 1503" width="15.059" height="12.871" fill="none"/>
    </clipPath>
  </defs>
  <g id="Gruppe_6498" data-name="Gruppe 6498" transform="translate(-797 -3404)">
    <g id="Gruppe_2624" data-name="Gruppe 2624" transform="translate(797 3404)">
      <g id="Gruppe_2623" data-name="Gruppe 2623" transform="translate(0 0)">
        <g id="Gruppe_2620" data-name="Gruppe 2620" transform="translate(0 0)">
          <g id="Gruppe_2619" data-name="Gruppe 2619" clip-path="url(#clip-path)">
            <rect id="Rechteck_1502" data-name="Rechteck 1502" width="19.156" height="19.157" transform="translate(0 0)" fill="#b7923d"/>
          </g>
        </g>
        <g id="Gruppe_2622" data-name="Gruppe 2622" transform="translate(4.256 1.953)">
          <g id="Gruppe_2621" data-name="Gruppe 2621" clip-path="url(#clip-path-2)">
            <path id="Pfad_2426" data-name="Pfad 2426" d="M12.9,12.988a6.5,6.5,0,0,1,2.739,2.587c.989,1.654,1.163,2.779,1.424,2.986a3.578,3.578,0,0,0,2.239-.413c.678-.362.7-.561,1.335-2.029a32.934,32.934,0,0,1,3.393-5.979c1.094-1.447,3.4-3.352,3.5-3.714S26.541,5.9,25.5,6.207s-3.236,2.7-4.56,4.591c-1.473,2.093-2,3.861-2.256,3.808s-.77-1.105-1.5-1.88A2.724,2.724,0,0,0,14.8,11.58c-.886.154-2.431,1.044-1.9,1.408" transform="translate(-12.596 -5.895)" fill="#3f3832"/>
          </g>
        </g>
      </g>
    </g>
  </g>
</svg>
