<svg xmlns="http://www.w3.org/2000/svg" width="16.769" height="16.77" viewBox="0 0 16.769 16.77">
  <path id="Pfad_18619" data-name="Pfad 18619" d="M14.51,8.263a2,2,0,1,0,2,2A2,2,0,0,0,14.51,8.263Zm4.668-1.535A2.023,2.023,0,0,0,18.04,5.59a13.284,13.284,0,0,0-3.53-.241,13.184,13.184,0,0,0-3.53.241A2.023,2.023,0,0,0,9.841,6.728,13.31,13.31,0,0,0,9.6,10.259a13.258,13.258,0,0,0,.242,3.531,2.023,2.023,0,0,0,1.138,1.138,13.286,13.286,0,0,0,3.53.241,13.182,13.182,0,0,0,3.53-.241,2.023,2.023,0,0,0,1.138-1.138,13.2,13.2,0,0,0,.241-3.531,13.21,13.21,0,0,0-.241-3.531Zm-4.668,6.6a3.069,3.069,0,1,1,3.069-3.069v0a3.067,3.067,0,0,1-3.066,3.066Zm3.2-5.551h0a.716.716,0,1,1,.716-.716v0a.715.715,0,0,1-.715.715Zm3.392-5.9H7.922a1.8,1.8,0,0,0-1.8,1.8V16.848a1.8,1.8,0,0,0,1.8,1.8H21.1a1.8,1.8,0,0,0,1.8-1.8V3.672A1.8,1.8,0,0,0,21.1,1.875ZM20.457,12.73a3.562,3.562,0,0,1-.968,2.508,3.563,3.563,0,0,1-2.508.968c-.989.056-3.952.056-4.941,0a3.568,3.568,0,0,1-2.508-.968,3.551,3.551,0,0,1-.968-2.508c-.056-.989-.056-3.953,0-4.941a3.55,3.55,0,0,1,.968-2.508,3.57,3.57,0,0,1,2.508-.965c.989-.056,3.952-.056,4.941,0a3.564,3.564,0,0,1,2.508.968,3.563,3.563,0,0,1,.968,2.51C20.513,8.779,20.513,11.741,20.457,12.73Z" transform="translate(-6.125 -1.875)" fill="#fff"/>
</svg>
