<svg xmlns="http://www.w3.org/2000/svg" xmlns:xlink="http://www.w3.org/1999/xlink" width="78" height="80" viewBox="0 0 78 80">
  <defs>
    <clipPath id="clip-path">
      <rect id="Rechteck_2090" data-name="Rechteck 2090" width="47.674" height="45.595" fill="#707070"/>
    </clipPath>
  </defs>
  <g id="Gruppe_4086" data-name="Gruppe 4086" transform="translate(-0.499)">
    <ellipse id="Ellipse_1" data-name="Ellipse 1" cx="39" cy="40" rx="39" ry="40" transform="translate(0.499)" fill="#b1c7b5"/>
    <g id="Gruppe_3840" data-name="Gruppe 3840" transform="translate(16.049 16.85)">
      <g id="Gruppe_3839" data-name="Gruppe 3839" transform="translate(0 0)" clip-path="url(#clip-path)">
        <path id="Pfad_6018" data-name="Pfad 6018" d="M45.982,39.27l-9.8,4.2V30.625l9.8-4.2Zm-21.3-12.843,1.629.7V37.75a.846.846,0,1,0,1.692,0v-9.9l6.486,2.778V43.47l-9.807-4.2Zm-11.494,4.2,9.8-4.2V39.27l-9.8,4.2Zm-11.5-4.2,1.627.7V37.778a.846.846,0,0,0,1.692,0V27.847L11.5,30.625V43.47l-9.8-4.2ZM23.836,1.762l9.31,3.986-9.31,3.8-9.3-3.8Zm.846,9.267,9.807-4V19.884l-9.807,4Zm-9.021,8.19a.847.847,0,0,0,.846-.843V8.382l6.486,2.647V23.886l-3.966-1.618-5.838-2.385V7.027l1.627.665V18.376a.846.846,0,0,0,.846.843m-3.318,9.932L3.036,25.165l9.3-3.8,9.31,3.8Zm22.989,0L27.488,25.79s0,0-.006,0l-1.457-.622,9.31-3.8,9.306,3.8Zm12.249-4.373c-.017-.034-.04-.057-.059-.09a.93.93,0,0,0-.181-.2c-.02-.014-.028-.036-.045-.048s-.042-.011-.063-.023a.852.852,0,0,0-.085-.057l-10.97-4.478V5.768c0-.005,0-.009,0-.014a.846.846,0,0,0-.085-.345c-.017-.034-.042-.062-.062-.1a.8.8,0,0,0-.176-.193c-.02-.014-.028-.04-.048-.054s-.042-.011-.062-.023S35.7,5,35.666,4.993L24.169.068a.845.845,0,0,0-.665,0l-11.5,4.925c-.028.011-.048.036-.077.051s-.042.011-.062.023-.028.04-.048.054a.794.794,0,0,0-.172.193.73.73,0,0,0-.15.441c0,.005,0,.009,0,.014V19.884L.526,24.361a.852.852,0,0,0-.085.057c-.02.011-.042.009-.063.023s-.026.034-.045.048a.93.93,0,0,0-.181.2c-.02.034-.042.057-.059.09A.85.85,0,0,0,0,25.142V39.826a.844.844,0,0,0,.512.775l11.5,4.925a.859.859,0,0,0,.334.068.835.835,0,0,0,.331-.068l11.162-4.781L35,45.527a.845.845,0,0,0,.331.068.862.862,0,0,0,.334-.068l11.5-4.925a.844.844,0,0,0,.512-.775V25.142a.858.858,0,0,0-.094-.365" transform="translate(0 0)" fill="#707070"/>
      </g>
    </g>
  </g>
</svg>
