<svg xmlns="http://www.w3.org/2000/svg" width="22.75" height="22.75" viewBox="0 0 22.75 22.75">
  <path id="Pfad_24681" data-name="Pfad 24681" d="M28.25,1.875H8.745a1.632,1.632,0,0,0-1.62,1.64v19.47a1.632,1.632,0,0,0,1.62,1.64H28.25a1.636,1.636,0,0,0,1.625-1.64V3.515A1.636,1.636,0,0,0,28.25,1.875ZM14,21.375H10.629V10.518h3.377V21.375ZM12.315,9.035A1.955,1.955,0,1,1,14.27,7.08,1.956,1.956,0,0,1,12.315,9.035ZM26.64,21.375H23.268V16.094c0-1.259-.025-2.879-1.752-2.879-1.757,0-2.026,1.371-2.026,2.788v5.373H16.118V10.518h3.235V12H19.4a3.551,3.551,0,0,1,3.194-1.752c3.413,0,4.047,2.25,4.047,5.175Z" transform="translate(-7.125 -1.875)" fill="#707070"/>
</svg>
