<svg xmlns="http://www.w3.org/2000/svg" xmlns:xlink="http://www.w3.org/1999/xlink" width="117" height="117" viewBox="0 0 117 117">
  <defs>
    <clipPath id="clip-path">
      <rect id="Rechteck_2258" data-name="Rechteck 2258" width="117" height="117" transform="translate(0.098 0.438)" fill="none"/>
    </clipPath>
  </defs>
  <g id="Gruppe_4081" data-name="Gruppe 4081" transform="translate(-0.098 -0.438)">
    <g id="Gruppe_4080" data-name="Gruppe 4080" transform="translate(0)" clip-path="url(#clip-path)">
      <path id="Pfad_11443" data-name="Pfad 11443" d="M58.823,117.647a58.823,58.823,0,1,1,58.823-58.823,58.924,58.924,0,0,1-58.823,58.823m0-114.014a55.192,55.192,0,1,0,55.194,55.19A55.168,55.168,0,0,0,58.823,3.633" transform="translate(0.065)" fill="#b7923d"/>
      <path id="Pfad_11444" data-name="Pfad 11444" d="M58.306,19.877l-.05-.017a12.578,12.578,0,0,0-7.184,3.459,11.11,11.11,0,0,0,3.281-1.391,37.921,37.921,0,0,0,3.953-2.05m2.7,5.244a14.262,14.262,0,0,0-1.437-2.849.619.619,0,0,1-.047-.072,15.769,15.769,0,0,1-4.338,2.416,10.531,10.531,0,0,1-3.214.973.544.544,0,0,1,.043.171,12.208,12.208,0,0,0,1.176,2.8,20.635,20.635,0,0,0,4.388-1.473,8.9,8.9,0,0,0,3.432-1.916c0-.018,0-.032,0-.05m-1.261-4.4c.1-.108.137-.244.163-.183a.679.679,0,0,0-.238-.317c-.061-.043-.125-.084-.186-.119a27.5,27.5,0,0,1-5.852,3.134c-.987.456-2.062,1.15-3.192.961a1.3,1.3,0,0,0-.043.319c2.669.877,7.181-1.469,9.2-3.619a1.178,1.178,0,0,1,.148-.177M71.931,25.34c-3.392,0-6.761.479-10.158.505a1.007,1.007,0,0,1-.166-.012,9.547,9.547,0,0,1-3.657,2.059A24.059,24.059,0,0,1,53.49,29.4a.751.751,0,0,1-.18.351C51.1,32.3,48.572,34.537,46.376,37.1a46.8,46.8,0,0,0,6.45-2.439c2.387-.95,4.8-1.824,7.152-2.849a76.471,76.471,0,0,0,11.953-6.47m4.5,6.389c-.918-2.14-2.387-3.967-3.488-6.008a76.946,76.946,0,0,1-13.6,7.335c-4.254,1.783-8.84,4.2-13.411,5.047.851,2.181,1.284,4.5,2.338,6.618l.006.012a.9.9,0,0,0,.066.079.729.729,0,0,1,.1.066c.009.009.032.012.055.023,2.5-.682,5-.889,7.44-1.9,2.343-.964,4.655-2.007,6.95-3.087a92.694,92.694,0,0,0,13.393-7.707.227.227,0,0,1,.035-.02l.043-.017c.017-.029.026-.047.035-.058s.006-.006.008-.023a1.125,1.125,0,0,0,.032-.139.888.888,0,0,1,.014-.108c-.006-.032-.006-.064-.012-.1a.1.1,0,0,1-.006-.014m30.12,60.923c-1.452-3.352-3.171-6.621-4.728-9.932q-2.574-5.488-5.256-10.936c-1.554-3.169-2.721-6.5-4.318-9.641a108.378,108.378,0,0,1-4.577-10.321c-.685-1.795-1.5-3.918-3.186-5.033a33.593,33.593,0,0,0-4.1-1.858c-1.356-.668-2.927-2.341-2.779-3.993.224-2.541,3.793-5.866-.668-7.045a90.1,90.1,0,0,1-13.309,7.629c-2.619,1.2-5.236,2.5-7.951,3.481A54.211,54.211,0,0,1,49.62,46.44c-.009.012-.006.023-.017.035-1.47,3.023,1.138,3.949,3.459,4.4a2.969,2.969,0,0,1,1.62.871,5.414,5.414,0,0,1,.865,5.332c-.677,1.858-1.368,3.534-.848,5.567.526,2.068,1.734,3.735,2.535,5.683,1.263,3.055,2.887,5.991,4.257,9.011,3.136,6.935,6.377,13.855,9.548,20.8,1.467,3.218,2.626,6.813,4.5,9.81,1.081,1.728,3.25,8.851,5.886,9.435a.875.875,0,0,1,.555-.137c5.181.415,10-2.341,14.639-4.28,4.658-1.954,9.534-4.2,12.955-8.03a.885.885,0,0,1,.258-.366c1.815-1.548-.8-5.8-1.481-7.336-.662-1.5-1.147-3.081-1.8-4.582m.221-3.592c1.832,3.685,3.31,7.617,4.882,11.436a5.3,5.3,0,0,1,.442,3.906.836.836,0,0,1-.177.473c-.1.13-.206.255-.313.383a.778.778,0,0,1-.108.137c-3.636,4.437-8.953,7.025-14.139,9.179-4.722,1.966-9.519,4.6-14.755,4.467a.773.773,0,0,1-.3.11c-2.86.459-3.932-1.728-5.059-3.993-1.858-3.726-3.81-7.367-5.494-11.171-3.706-8.372-7.655-16.634-11.424-24.957-1.815-4-3.549-8.119-5.66-11.979-1.357-2.477-2.538-5.4-1.621-8.25.68-2.108,2.5-5.846-1.306-6.342a5.825,5.825,0,0,1-2.794-1.037,4.31,4.31,0,0,1-1.24-4.955,2.54,2.54,0,0,1-.839-.671.93.93,0,0,1-.142-.27.4.4,0,0,1-.046-.067C45.5,43.08,45.1,40.435,44,38.021a.792.792,0,0,1,.107-.877.673.673,0,0,1,.131-.23c2.23-2.793,4.922-5.137,7.286-7.8a20.852,20.852,0,0,1-1.109-2.5A1.9,1.9,0,0,1,48.659,24.9a3.248,3.248,0,0,1,1-2.721.77.77,0,0,1,.218-.145,15.526,15.526,0,0,1,4.762-2.916,8.677,8.677,0,0,1,4.112-.981,3.687,3.687,0,0,1,.865.116c.061.018.122.023.186.041a.8.8,0,0,1,.287.134,2.611,2.611,0,0,1,1.074.816,1.945,1.945,0,0,1,.093,2.37,19.242,19.242,0,0,1,1.185,2.463c3.563-.072,7.094-.6,10.663-.482a.762.762,0,0,1,.261.049.8.8,0,0,1,.738.488c1.121,2.4,2.875,4.42,3.92,6.862a.324.324,0,0,0,.02.079,1.129,1.129,0,0,1,.11.284,2.556,2.556,0,0,1-.032,1.072,4.508,4.508,0,0,1,2.892,4.879,6.883,6.883,0,0,1-1.286,2.576c-1.757,3.125,3.3,4.089,4.966,4.957,3.221,1.684,3.947,5.326,5.474,8.294A116.222,116.222,0,0,1,95.108,64.14c3.238,8.477,7.609,16.8,11.665,24.919" transform="translate(-19.365 -8.02)" fill="#b7923d"/>
      <path id="Pfad_11445" data-name="Pfad 11445" d="M138.369,169.712c.032.009.009.125-.072.331-.041.107-.093.235-.163.392-.075.139-.192.29-.311.471a25.273,25.273,0,0,1-2.567,2.4c-.267.25-.552.5-.874.772a10.259,10.259,0,0,1-1,.793c-.174.125-.348.259-.528.386-.206.122-.41.235-.619.357-.409.235-.822.471-1.248.718-.863.479-1.807.892-2.765,1.356-.964.418-1.966.863-2.991,1.315a52.793,52.793,0,0,1-5.939,2.289c-1.885.578-3.561,1-5,1.356a10.746,10.746,0,0,1-3.534.328c-.209-.026-.4-.049-.558-.072-.157-.041-.29-.075-.392-.107-.212-.064-.317-.114-.313-.148s.124-.05.342-.052c.11,0,.241,0,.4.012.157-.009.337-.014.534-.017a13.392,13.392,0,0,0,3.336-.624c1.388-.433,3.087-.932,4.9-1.548,1.836-.63,3.775-1.388,5.819-2.326,1.023-.459,2.036-.877,3-1.3.952-.439,1.887-.831,2.738-1.275.424-.221.831-.444,1.234-.656.195-.1.383-.2.569-.3.188-.125.371-.25.546-.369a10.547,10.547,0,0,0,.993-.72c.3-.232.607-.471.894-.7,1.147-.941,2.184-1.568,2.727-2.117.133-.148.264-.264.36-.38s.166-.233.226-.317c.137-.177.221-.258.253-.241" transform="translate(-48.379 -75.085)" fill="#b7923d"/>
      <path id="Pfad_11446" data-name="Pfad 11446" d="M82.293,50.118c.046.05-.239.346-.817.834a10.185,10.185,0,0,1-1.121.761c-.453.3-.955.593-1.519.932-2.265,1.336-5.367,3.229-8.964,5.068A42.035,42.035,0,0,1,60.2,61.392a11.945,11.945,0,0,1-4.272.462c-.026-.163,1.6-.4,4.091-1.139a56.039,56.039,0,0,0,9.406-3.891c3.552-1.815,6.714-3.612,9.075-4.8.584-.3,1.115-.56,1.582-.79.454-.247.895-.412,1.182-.61.616-.374.987-.56,1.029-.508" transform="translate(-24.679 -22.17)" fill="#b7923d"/>
      <path id="Pfad_11447" data-name="Pfad 11447" d="M92.866,73.857c.079.084-1.045,1.321-3.229,2.889-.551.389-1.152.8-1.829,1.208-.671.424-1.411.819-2.19,1.24a50.709,50.709,0,0,1-5.253,2.346,81.881,81.881,0,0,1-9.984,2.977c-2.59.595-4.214.883-4.246.752s1.528-.66,4.06-1.435,6.049-1.809,9.813-3.223c1.873-.718,3.633-1.481,5.2-2.23.77-.4,1.516-.752,2.187-1.147.68-.36,1.3-.732,1.859-1.074,2.233-1.385,3.508-2.425,3.615-2.3" transform="translate(-29.195 -32.673)" fill="#b7923d"/>
    </g>
  </g>
</svg>
