<svg xmlns="http://www.w3.org/2000/svg" width="25.708" height="25.659" viewBox="0 0 25.708 25.659">
  <path id="Pfad_18621" data-name="Pfad 18621" d="M24.3,16.278a2.424,2.424,0,0,0,2.229-1.325l4.578-8.312a1.288,1.288,0,0,0-1.084-1.927H10.987l-1.2-2.53H5.566v2.53h2.59l4.638,9.758L11.048,17.6a2.59,2.59,0,0,0,2.229,3.855H28.7v-2.59H13.276l1.446-2.59ZM12.192,7.3H27.853L24.3,13.748H15.264Zm1.084,15.42a2.56,2.56,0,1,0,2.59,2.59A2.558,2.558,0,0,0,13.276,22.723Zm12.89,0a2.56,2.56,0,1,0,0,5.12,2.56,2.56,0,0,0,0-5.12Z" transform="translate(-5.566 -2.184)" fill="#b1924b"/>
</svg>
