<svg xmlns="http://www.w3.org/2000/svg" xmlns:xlink="http://www.w3.org/1999/xlink" width="78" height="80" viewBox="0 0 78 80">
  <defs>
    <clipPath id="clip-path">
      <rect id="Rechteck_2091" data-name="Rechteck 2091" width="36.446" height="43.659" transform="translate(0 0)" fill="#707070"/>
    </clipPath>
  </defs>
  <g id="Gruppe_4087" data-name="Gruppe 4087" transform="translate(-0.491)">
    <ellipse id="Ellipse_2" data-name="Ellipse 2" cx="39" cy="40" rx="39" ry="40" transform="translate(0.491)" fill="#b1c7b5"/>
    <g id="Gruppe_3842" data-name="Gruppe 3842" transform="translate(20.88 17.693)">
      <g id="Gruppe_3841" data-name="Gruppe 3841" transform="translate(0 0)" clip-path="url(#clip-path)">
        <path id="Pfad_6019" data-name="Pfad 6019" d="M35.516,33.983,23.688,14.551V5.3A2.727,2.727,0,0,0,22.776,0h-9.11a2.727,2.727,0,0,0-.912,5.3v9.251L.926,33.983A6.3,6.3,0,0,0,0,37.289a6.373,6.373,0,0,0,6.377,6.37H30.068a6.375,6.375,0,0,0,6.377-6.37,6.3,6.3,0,0,0-.929-3.306M13.666,1.817h9.11a.911.911,0,1,1,0,1.821h-9.11a.911.911,0,1,1,0-1.821m.646,13.68.262-.435v-9.6h7.293v9.6l.262.435L29.92,28.29a12.239,12.239,0,0,1-2.038,1.72,9.943,9.943,0,0,1-4.57,1.762c-3.313.345-6.526-1.23-9.852-3.551a22.328,22.328,0,0,0-5.189-2.8ZM30.068,41.839H6.377a4.56,4.56,0,0,1-4.556-4.55,4.507,4.507,0,0,1,.663-2.36L7.3,27.012c.224.072.453.152.681.238a21.152,21.152,0,0,1,4.436,2.46c2.919,2.038,6.816,4.318,11.085,3.869a11.832,11.832,0,0,0,5.4-2.063,14.182,14.182,0,0,0,1.99-1.62l3.068,5.033a4.549,4.549,0,0,1-3.893,6.909" transform="translate(0 0)" fill="#707070"/>
      </g>
    </g>
  </g>
</svg>
