<svg xmlns="http://www.w3.org/2000/svg" width="16.739" height="16.739" viewBox="0 0 16.739 16.739">
  <path id="Pfad_24643" data-name="Pfad 24643" d="M14.961,16.739H1.778A1.78,1.78,0,0,1,0,14.961V1.778A1.78,1.78,0,0,1,1.778,0H14.961a1.78,1.78,0,0,1,1.778,1.778V14.961A1.78,1.78,0,0,1,14.961,16.739ZM7,7.267a3.624,3.624,0,1,0,3.625,3.625V6.908a4.655,4.655,0,0,0,2.726.875h.011V5.835a2.763,2.763,0,0,1-2.7-2.237,2.635,2.635,0,0,1-.041-.473V3.1H8.662v7.79A1.664,1.664,0,1,1,7.5,9.306v-2A3.624,3.624,0,0,0,7,7.267Z" fill="#fff"/>
</svg>
