<svg xmlns="http://www.w3.org/2000/svg" width="16.769" height="16.77" viewBox="0 0 16.769 16.77">
  <path id="Pfad_18620" data-name="Pfad 18620" d="M22.7,1.875H8.319A1.2,1.2,0,0,0,7.125,3.084V17.435a1.2,1.2,0,0,0,1.194,1.209H22.7a1.206,1.206,0,0,0,1.2-1.209V3.084A1.206,1.206,0,0,0,22.7,1.875Zm-10.5,14.374H9.708v-8H12.2v8Zm-1.243-9.1a1.441,1.441,0,1,1,1.441-1.441A1.442,1.442,0,0,1,10.951,7.153Zm10.559,9.1H19.025V12.356c0-.928-.019-2.122-1.291-2.122-1.3,0-1.494,1.011-1.494,2.055v3.96H13.754v-8h2.384V9.339h.034a2.618,2.618,0,0,1,2.354-1.291c2.515,0,2.983,1.658,2.983,3.814Z" transform="translate(-7.125 -1.875)" fill="#fff"/>
</svg>
