<svg xmlns="http://www.w3.org/2000/svg" xmlns:xlink="http://www.w3.org/1999/xlink" width="118" height="117" viewBox="0 0 118 117">
  <defs>
    <clipPath id="clip-path">
      <rect id="Rechteck_2259" data-name="Rechteck 2259" width="118" height="117" transform="translate(-0.276 0.438)" fill="none"/>
    </clipPath>
  </defs>
  <g id="Gruppe_4083" data-name="Gruppe 4083" transform="translate(0.276 -0.438)">
    <g id="Gruppe_4082" data-name="Gruppe 4082" transform="translate(0)" clip-path="url(#clip-path)">
      <path id="Pfad_11448" data-name="Pfad 11448" d="M58.823,117.647a58.823,58.823,0,1,1,58.823-58.823,58.926,58.926,0,0,1-58.823,58.823m0-114.017a55.193,55.193,0,1,0,55.194,55.194A55.17,55.17,0,0,0,58.823,3.63" transform="translate(-0.42)" fill="#b7923d"/>
      <path id="Pfad_11449" data-name="Pfad 11449" d="M45.653,89.825c-.781-2.085-1.661-4.051-2.259-6.115C42.1,79.145,42,74.411,41.983,69.7c0-3.615.166-7.248.267-10.864A3.062,3.062,0,0,1,43.461,56.4,17.346,17.346,0,0,1,46.9,54.263a48.928,48.928,0,0,1,13.515-3.432c2.326-.282,4.681-.348,7.025-.549a1.224,1.224,0,0,0,.662-.351c1.081-.964,2.126-2,3.221-2.93.9-.767,1.894-1.385,2.808-2.152a5.952,5.952,0,0,0,1.992-3.165,3.5,3.5,0,0,0-1-3.816,2.869,2.869,0,0,1-.334-.415c.05-.067.084-.151.134-.218a3.88,3.88,0,0,1,.863.566,4.376,4.376,0,0,1,.865,4.316,6.34,6.34,0,0,1-2.175,3.232c-.88.735-1.862,1.35-2.756,2.068-1.048.834-2.045,1.7-3.055,2.567.049.1.081.215.13.317,1.379,0,2.742.014,4.118-.018a.933.933,0,0,0,.482-.267c1.313-.932,2.59-1.882,3.917-2.8.749-.517,1.562-.883,2.277-1.431,2.39-1.8,3.118-4.318,2.654-7.333-.05-.3-.1-.584-.148-.883.1-.035.215-.049.314-.084a13.552,13.552,0,0,1,.415,2.134,7.2,7.2,0,0,1-2.756,6.348c-1.077.834-2.323,1.4-3.47,2.132-.979.618-1.925,1.284-2.887,1.934a1.921,1.921,0,0,1,.081.3c1.063.1,2.143.168,3.206.284a72.273,72.273,0,0,1,15.472,3.1,19.944,19.944,0,0,1,3.851,1.867,4.19,4.19,0,0,1,2.059,3.833c0,1.031.084,2.065.133,3.214.348-.183.6-.316.848-.45A14.471,14.471,0,0,1,104.84,60.1c5.181-.668,8.384,1.8,9.147,7.364.665,4.983-.282,9.615-3.534,13.48a18.453,18.453,0,0,1-8.95,5.616c-1.377.433-2.788.816-4.15,1.266a4.131,4.131,0,0,0-2.791,2.3c.932.232,1.827.482,2.724.682a24.948,24.948,0,0,1,7.571,3.168,5.9,5.9,0,0,1,3.038,4.583,4.586,4.586,0,0,1-1.693,4.315,21.355,21.355,0,0,1-4.118,2.631c-3.833,1.635-7.718,3.168-11.636,4.551a46.244,46.244,0,0,1-5.863,1.315c-.18.035-.415.035-.531.151-1.394,1.484-3.235,1.632-5,1.716-4.666.233-9.33.383-14.014.348a50.3,50.3,0,0,1-7.553-.831,9.631,9.631,0,0,1-2.341-1.167,4.266,4.266,0,0,0-.88-.334,49.124,49.124,0,0,1-11.09-3.267c-1.278-.549-2.689-.816-3.935-1.431a35.909,35.909,0,0,1-5.114-2.982c-2.773-2.051-2.988-5.149-.746-7.85a12.373,12.373,0,0,1,5.079-3.517c2.126-.848,4.3-1.5,6.459-2.248a3.262,3.262,0,0,0,.732-.134M74.574,62.281c-.215-.067-.415-.151-.63-.217A38.068,38.068,0,0,1,84.038,63.2a6.851,6.851,0,0,0,3.287-.415A80.822,80.822,0,0,0,67.616,60.7c.566.917,1.031,1.667,1.5,2.416-.084.067-.166.119-.25.186a17.074,17.074,0,0,1-1.246-1.818,1.206,1.206,0,0,0-1.328-.784q-7.919.727-15.856,1.417c0,.151-.014.3-.014.45a11.208,11.208,0,0,0,2.922.352c2.6-.384,5.178-1.034,7.785-1.452a37.336,37.336,0,0,1,4.083-.25c.017.084.017.168.035.25a4.273,4.273,0,0,0-.647.168,14.907,14.907,0,0,0-2.091,1.016,1.22,1.22,0,0,0-.4,1c.035.25.5.433.781.584a1.464,1.464,0,0,0,.549.067c2.422.084,4.864.232,7.289.25,2.471.017,4.945-.1,7.4-.166-.863-1.15-2.091-1.386-3.186-1.934a6.7,6.7,0,0,1,3.436,1.484.967.967,0,0,0,.63.249c1.562-.151,3.122-.351,4.684-.534-.1-.2-.183-.25-.285-.267-2.239-.348-4.463-.732-6.705-1.048a11.224,11.224,0,0,0-2.125-.05m8.883,30.344c-.035-.067-.052-.151-.084-.217.415-.166.831-.348,1.246-.517a33.036,33.036,0,0,0,8.916-4.8,8.043,8.043,0,0,0,2.956-4.916,68.96,68.96,0,0,0,1.161-10.6c.148-4.1.264-8.2.4-12.513-.912,1.9-1.478,2.515-2.573,2.9.233-.264.381-.447.549-.616,1.89-2.05,1.693-3.633-.616-5.1a1.208,1.208,0,0,0-.282-.166,33.691,33.691,0,0,0-3.8-1.551,77.762,77.762,0,0,0-17.683-3.014c-.863-.052-1.2.348-1.344,1.182a55.563,55.563,0,0,1,20.055,3.917,1.309,1.309,0,0,1-.83-.017,68.7,68.7,0,0,0-18.5-3.433c-.831-.035-1.246.2-1.362,1.083-.1.767-.246,1.533-.363,2.3l-.25-.052c.148-1.083.3-2.181.447-3.25-1.277,0-2.555.017-3.833,0a.7.7,0,0,0-.781.767c-.035,1.519-.035,3.018,0,4.533.018.517.282.735.845.749,3.92.2,7.838.334,11.741.752A35.528,35.528,0,0,1,89.251,62.2a2.666,2.666,0,0,0,.964.017c0-.119.014-.217.014-.334-2.538-.7-5.1-1.382-7.835-2.134.3,0,.4-.014.5,0,2.541.651,5.065,1.319,7.606,1.951a8.285,8.285,0,0,0,1.3.081,2.872,2.872,0,0,0,.032-.331c-2.108-.685-4.2-1.35-6.307-2.032a1.285,1.285,0,0,1,.711,0c1.928.58,3.836,1.181,5.761,1.731a5.812,5.812,0,0,0,1.214.084c.015-.116.032-.218.05-.334-1.925-.665-3.868-1.315-5.8-1.983.035-.081.052-.166.084-.25,1.925.65,3.851,1.318,5.761,1.983a1.855,1.855,0,0,0,1.926-1c.4-.682-.2-.851-.6-1.167.183-.05.267-.1.334-.084a1.076,1.076,0,0,1,.3,1.934,11.23,11.23,0,0,1-2.791,1.632A51.6,51.6,0,0,1,75.222,65.4,114.189,114.189,0,0,1,53.654,64.03,22.21,22.21,0,0,1,46.3,61.764a6.731,6.731,0,0,1-1.876-1.551,1.172,1.172,0,0,1,.778-1.934c-.05.134-.05.25-.117.317a1.051,1.051,0,0,0-.049,1.466c.45.5.863.8,1.611.45,1.31-.616,2.689-1.083,4.051-1.6a2.587,2.587,0,0,1,.531-.081v.081c-1.577.65-3.156,1.284-4.748,1.934a2.947,2.947,0,0,1,.081.352,3.008,3.008,0,0,0,.863-.2,17.073,17.073,0,0,1,5.579-2.05c.284-.049.566-.084.847-.133a25.868,25.868,0,0,0-6.342,2.666c1.626-.468,3.189-1.15,4.8-1.618,1.643-.465,3.354-.715,5.033-1.048a1.843,1.843,0,0,0,.064.3c-3.069.584-6.174.985-8.965,2.7A1.634,1.634,0,0,0,49.553,62a39.912,39.912,0,0,1,11.192-2.35c1.908-.2,3.819-.3,5.578-.433v-5.9a77.947,77.947,0,0,0-19.361,4.051,2.433,2.433,0,0,1,.831-.485,65.8,65.8,0,0,1,17.9-3.95c1.063-.1,1.13-.148,1.33-1.449-.218,0-.433-.017-.633,0-2.872.268-5.745.468-8.617.816A35.9,35.9,0,0,0,46.9,55.047a12.225,12.225,0,0,0-3.351,2.268c-1.429,1.4-1.263,2.916.215,4.263.317.3.648.584.979.868a1.641,1.641,0,0,1-.148.183c-.648-.6-1.3-1.2-1.96-1.832,0,.133-.017.25-.017.348.267,5.634.45,11.265.848,16.881a24.646,24.646,0,0,0,2.375,9.165,4.387,4.387,0,0,0,.944,1.234,16.2,16.2,0,0,0,6.36,3.134c.4.116.781.25,1.179.366a17.285,17.285,0,0,1-7.539-2.968,5.621,5.621,0,0,0,2.277,2.535,29.854,29.854,0,0,0,8,2.666,3.588,3.588,0,0,1,.581.183c-3-.1-5.744-1.217-8.515-2.3a12.125,12.125,0,0,0,5.1,2.933c1.841.566,3.752.914,5.81,1.4a19.949,19.949,0,0,1-8.088-1.766,17.073,17.073,0,0,0,6.941,2.866,3.45,3.45,0,0,1-1.095-.017l-1.014-.151v.218c10.077,3.749,19.991,3.566,29.719-1.467-1.13.334-2.242.8-3.372,1.182-1.112.384-2.256.718-3.386,1.016s-2.259.552-3.386.816c2.408-.848,4.864-1.516,7.272-2.314a18.853,18.853,0,0,0,6.656-3.833c-3.883,1.916-10.89,4.432-12.217,4.248,1.693-.531,3.287-.981,4.847-1.515a30.237,30.237,0,0,0,8.816-4.217,5.357,5.357,0,0,0,1.841-2.349c-3.65,2.9-7.835,4.449-12.153,5.665a22.007,22.007,0,0,1,2.524-.981A26.033,26.033,0,0,0,94.1,87.926a9.61,9.61,0,0,0,1.112-1.568c-.049-.05-.1-.081-.148-.134a31.013,31.013,0,0,1-11.6,6.4m-36.276-.851c-.566-1.1-.566-1.1-1.629-.851a28.777,28.777,0,0,0-8.683,3.168,13.614,13.614,0,0,0-3.287,2.8,3.959,3.959,0,0,0,.334,5.549,11.8,11.8,0,0,0,1.774,1.467,28.976,28.976,0,0,0,11.291,4.182c4.565.833,9.183,1.5,13.78,2.05a86.6,86.6,0,0,0,9.263.5c2.474.018,4.966-.249,7.44-.418a89.052,89.052,0,0,0,18.246-2.965,29.026,29.026,0,0,0,9.4-4.284,4.349,4.349,0,0,0,1.078-6.115,8.271,8.271,0,0,0-2.556-2.248c-2.724-1.649-5.779-2.349-8.782-3.133-1.13-.3-1.281-.2-1.812,1.034a46.143,46.143,0,0,1,8.834,3.081,1.829,1.829,0,0,1-.747-.134c-2.524-.8-5.064-1.582-7.588-2.416-.964-.317-1.478.134-1.975.967,1.658.451,3.253.9,4.847,1.333-.017.084-.032.151-.049.233-1.362-.331-2.756-.581-4.1-1.031a1.694,1.694,0,0,0-2.192.781c.964.267,1.894.534,2.805.8a7.03,7.03,0,0,1-2.274-.4c-.88-.334-1.443.1-2.076.718.549.2,1.031.366,1.513.549-2.326-.267-2.326-.267-3.238.584,1.527,1.783,1.344,3.183-.6,4.449a11.084,11.084,0,0,1-1.943,1,28.424,28.424,0,0,1-10.26,2.036c-3.618.081-7.257-.1-10.875-.334a20.165,20.165,0,0,1-7.486-1.7,11.127,11.127,0,0,1-2.773-1.815,2.1,2.1,0,0,1,.032-3.165c.218-.235.465-.433.7-.668-.863-.616-1.707-1.15-2.471-1.8a1.325,1.325,0,0,0-1.33-.264c-.912.264-1.827.531-2.739.8-.017-.067-.032-.134-.05-.2,1.028-.334,2.042-.682,3.087-1.016-.764-.982-.8-1-1.841-.749-1.246.284-2.474.566-3.72.865a.677.677,0,0,1-.032-.183c1.426-.4,2.837-.8,4.283-1.2-.566-1.048-1.231-1.4-2.326-.982-1.908.715-3.886,1.249-5.828,1.865l-.647.2c-.032-.1-.05-.2-.081-.317,2.425-.9,4.864-1.766,7.289-2.617m50.6-9.949a4.684,4.684,0,0,0,.613.052,21.054,21.054,0,0,0,2.706-.25c5.811-1.168,9.38-6.432,8.831-12.949-.264-3.134-2.207-4.667-5.1-4.065A14.778,14.778,0,0,0,99.345,67.5a1.479,1.479,0,0,0-.665,1.333c-.1,3.131-.232,6.264-.415,9.38-.081,1.2-.313,2.384-.479,3.615m.863-14.662c.049.067.116.148.166.215.331-.317.665-.633,1.014-.95a10.936,10.936,0,0,1,4.748-2.747c2.59-.651,4.614.13,5.611,2.2a9.041,9.041,0,0,1,.746,2.083c1.214,6.232-.447,12.333-6.807,15.115a56.609,56.609,0,0,1-6.424,2c-.447.134-1.063.052-.964.9.865-.183,1.693-.383,2.541-.566.017.067.032.151.05.218-.531.134-1.078.25-1.595.415-.479.168-.929.418-1.411.633.017.035.035.084.052.117,1.858-.566,3.717-1.115,5.578-1.682-1.879,1.182-4.185,1.182-6.1,2.617,1.594-.552,3.055-1.066,4.516-1.568.964-.331,1.943-.616,2.889-1.016,2.974-1.284,5.779-2.849,7.489-5.982a17.723,17.723,0,0,0,2.256-8.082c.035-1.083,0-2.181,0-3.264.035,0,.067-.017.116-.017.1,1.182.183,2.367.3,3.749a15.712,15.712,0,0,0-.514-5.715c-1.045-3.432-3.72-5.233-7.057-4.867A18.66,18.66,0,0,0,99.31,63.4c-.8.415-.8.433-.546,1.5,2.672-1.615,5.413-2.916,8.584-2.381-3.04-.084-5.663,1.217-8.186,2.831-.433.267-.648.566-.415,1.034,1.161-.784,2.309-1.565,3.453-2.332.049.081.1.166.151.25a13.284,13.284,0,0,0-3.7,2.866m-27.5,36.161v-.218c2.027,0,4.069.084,6.078-.017a18.863,18.863,0,0,0,6.874-1.516,10.789,10.789,0,0,0,2.007-1.217.849.849,0,0,0,.267-1.266c-.366-.45-.715-1.083-1.51-.682a32.807,32.807,0,0,1-13.483,3A34.168,34.168,0,0,1,55.6,98.357a1.737,1.737,0,0,0-1.876.9c-.331.749.267,1.1.7,1.315a20.434,20.434,0,0,0,3.273,1.333c4.431,1.249,8.947,1.315,13.462,1.417m17.218,6.464a123.191,123.191,0,0,1-37.273.035,92.961,92.961,0,0,0,37.273-.035m22.479-37.708a12.732,12.732,0,0,1-4.6,8.381,13.85,13.85,0,0,1-8.8,2.7c-.067.253-.148.485-.2.735-.035.166-.067.334-.1.517a1.361,1.361,0,0,0,.334.049,19.736,19.736,0,0,0,9.3-3.65c2.756-2.149,3.935-5.163,4.069-8.729M56.261,111.673c2.872,1.632,23.74,1.716,26.116.049a109.727,109.727,0,0,1-26.116-.049m5.6-47.477c-.465-1.533.563-1.949,1.359-2.515-.015-.067-.049-.151-.064-.217-3.023.517-6.043,1.051-9.066,1.568,0,.1.017.2.017.3,2.556.268,5.079.549,7.754.866m5.526-11.48c1.165,0,2.326-.084,3.488.032.912.084,1.2-.433,1.429-1.333H68.83c-1.081,0-1.179.084-1.446,1.3" transform="translate(-14.515 -16.474)" fill="#b7923d"/>
      <path id="Pfad_11450" data-name="Pfad 11450" d="M106.833,88.313c-9.3,2.216-18.629,2.016-27.994.5a85.387,85.387,0,0,0,27.994-.5" transform="translate(-35.301 -39.073)" fill="#b7923d"/>
      <path id="Pfad_11451" data-name="Pfad 11451" d="M39.179,145.063c-.05.253-.067.45-.116.618a2.87,2.87,0,0,0,.929,3.45,15.747,15.747,0,0,0,3.488,2.047A50.564,50.564,0,0,0,55.6,154.246a127.9,127.9,0,0,0,21.716,1.4,70.929,70.929,0,0,0,23.624-4.466,27.875,27.875,0,0,0,3.488-1.7,4.234,4.234,0,0,0,2.471-3.032c-.015.348.084.781-.064,1.031a6.026,6.026,0,0,1-1.345,1.769,21.448,21.448,0,0,1-3.438,2,59.783,59.783,0,0,1-19.774,5.033,108.217,108.217,0,0,1-19.442-.348,78.45,78.45,0,0,1-17.165-3.183,33.584,33.584,0,0,1-5.3-2.4,5.541,5.541,0,0,1-1.858-1.833,2.607,2.607,0,0,1,.662-3.45" transform="translate(-17.291 -64.181)" fill="#b7923d"/>
      <path id="Pfad_11452" data-name="Pfad 11452" d="M103.692,148.957a2.866,2.866,0,0,1-1.76,1.516,38.683,38.683,0,0,1-6.061,1.484,52.34,52.34,0,0,1-15.972-.3,53.005,53.005,0,0,1-5.346-1.4,2.717,2.717,0,0,1-1.876-1.516c2.341,1.885,5.015,2.117,7.62,2.532a60.588,60.588,0,0,0,14.944.334,26.194,26.194,0,0,0,4.946-.932,30.213,30.213,0,0,0,3.5-1.716" transform="translate(-32.575 -65.807)" fill="#b7923d"/>
    </g>
  </g>
</svg>
