<svg xmlns="http://www.w3.org/2000/svg" xmlns:xlink="http://www.w3.org/1999/xlink" width="119" height="117" viewBox="0 0 119 117">
  <defs>
    <clipPath id="clip-path">
      <rect id="Rechteck_2260" data-name="Rechteck 2260" width="119" height="117" transform="translate(-0.227 0.438)" fill="none"/>
    </clipPath>
  </defs>
  <g id="Gruppe_4085" data-name="Gruppe 4085" transform="translate(0.226 -0.438)">
    <g id="Gruppe_4084" data-name="Gruppe 4084" transform="translate(0)" clip-path="url(#clip-path)">
      <path id="Pfad_11453" data-name="Pfad 11453" d="M58.823,117.647a58.823,58.823,0,1,1,58.823-58.823,58.924,58.924,0,0,1-58.823,58.823m0-114.014a55.192,55.192,0,1,0,55.19,55.19,55.168,55.168,0,0,0-55.19-55.19" transform="translate(0.439)" fill="#b7923d"/>
      <path id="Pfad_11454" data-name="Pfad 11454" d="M109.048,69.952c.122-.508.25-1.019.377-1.527.116-.459.241-.918.351-1.377.154-.651.3-1.3.444-1.957.084-.384.172-.764.256-1.144.064-.294.122-.587.186-.877.075-.331.157-.66.229-.994.093-.429.177-.865.264-1.3.146-.705.293-1.411.439-2.117.041-.2.078-.406.11-.609.046-.273.084-.546.128-.819s.1-.529.137-.793c.032-.192.058-.386.081-.581.032-.273.038-.551.088-.825a11.287,11.287,0,0,0,.075-1.292.943.943,0,0,0-.029-.241.771.771,0,0,1-.218-.07,2.756,2.756,0,0,0-1.068-.471,1.861,1.861,0,0,1-.375-.142.382.382,0,0,1-.206-.293.286.286,0,0,1,.113-.3.345.345,0,0,0,.038-.079,2.267,2.267,0,0,1-.607-1.1,5,5,0,0,1-.2-1.089.287.287,0,0,0-.11-.244.641.641,0,0,1-.206-.337c-.049-.148-.1-.293-.139-.444a2.492,2.492,0,0,0-.74-1.228.564.564,0,0,0-.175-.122c-.267-.113-.534-.22-.8-.325-.355-.139-.709-.273-1.063-.409l-1.147-.462c-.313-.128-.63-.253-.947-.378l-.892-.348c-.319-.122-.636-.244-.952-.36a5.157,5.157,0,0,0-.967-.319c-.581-.093-1.162-.195-1.737-.3-.467-.09-.929-.2-1.391-.308-.229-.055-.453-.137-.682-.2-.438-.114-.88-.218-1.321-.331a.611.611,0,0,1-.11-.058c.035-.11.064-.206.1-.3.456-1.336.895-2.68,1.278-4.037q.41-1.442.807-2.889c.259-.955.509-1.911.764-2.866s.514-1.934.764-2.9q.239-.928.453-1.864c.16-.694.3-1.388.526-2.065.427-1.292.836-2.59,1.257-3.885a5.263,5.263,0,0,1,.276-.689,21.5,21.5,0,0,0,1.112-2.718,2.118,2.118,0,0,0,.145-1.031.282.282,0,0,1,.084-.224.757.757,0,0,0,.113-.729,1.5,1.5,0,0,0-.229-.4,1.982,1.982,0,0,0-1.176-.691,4.64,4.64,0,0,0-2.532.157c-.128.041-.256.079-.384.11a.409.409,0,0,0-.255.163,3.138,3.138,0,0,0-.183.287.329.329,0,0,0-.05.175,1.425,1.425,0,0,1-.107.6,16.677,16.677,0,0,0-.491,1.885,7.737,7.737,0,0,1-.264,1.016c-.375,1.188-.746,2.381-1.106,3.575-.473,1.56-.932,3.122-1.4,4.681-.1.326-.206.648-.326,1.019-.043-.18.021-.308-.023-.441-.108.046-.139.136-.183.215-.093.163-.171.331-.275.485a1.314,1.314,0,0,0-.172.392c-.136.52-.273,1.04-.406,1.557s-.27,1.06-.412,1.589q-.362,1.342-.735,2.686c-.273.994-.552,1.987-.822,2.98-.221.816-.433,1.638-.656,2.454a4.216,4.216,0,0,1-.224.767,2.458,2.458,0,0,1-.9.032.493.493,0,0,1-.232-.072.847.847,0,0,0-.624-.1,3.059,3.059,0,0,1-.4.043c-.174-.009-.348.023-.522.026a10.847,10.847,0,0,1-1.11-.035,3.616,3.616,0,0,0-.427-.035,2.682,2.682,0,0,1-.34-.029c-.081-.009-.166-.009-.247-.014-.389-.017-.781-.032-1.17-.052-.032,0-.061-.014-.093-.017-.061-.006-.122-.012-.183-.014l-1.17-.07c-.032,0-.061-.012-.093-.012a2.437,2.437,0,0,0-.247-.009c-1.1.067-2.2.16-3.3.311-.348.049-.694.113-1.045.136a26.528,26.528,0,0,0-3.1.4,7.632,7.632,0,0,0-1.318.328c-.253.093-.494.212-.738.322-.128.172-.331.195-.514.262-.125.05-.253.093-.377.134a1.131,1.131,0,0,0-.433.293l-.74.74a1.435,1.435,0,0,0-.337.473c-.07.171-.113.354-.183.526a2.635,2.635,0,0,1-.2.415,2.343,2.343,0,0,0-.175.326.916.916,0,0,1-.279.435,2.109,2.109,0,0,0-.95.253c-.346.183-.688.375-1.019.584a3.879,3.879,0,0,0-1.35,1.417.725.725,0,0,0-.1.412.633.633,0,0,0,.218.482c-.05.224-.093.424-.134.627-.055.282-.1.566-.163.848a1.54,1.54,0,0,0-.029.551,2.657,2.657,0,0,1,.026.462c-.017.566-.049,1.133-.07,1.7q-.03.82-.052,1.638-.03,1.176-.058,2.352c-.012.525-.017,1.051-.032,1.577-.017.618-.041,1.237-.061,1.856-.009.215-.015.433-.018.647,0,.34,0,.68-.006,1.019,0,.041.008.081.008.125.012.317.026.636.035.956,0,.029-.006.061-.006.09,0,.1,0,.206,0,.308s0,.206,0,.308,0,.206.006.308c0,.145,0,.287.006.433,0,.081,0,.162,0,.246v.369c0,.093,0,.183,0,.276,0,.328.006.656.009.987,0,.029-.009.061-.012.093,0,.07,0,.142,0,.215v.645c0,.145,0,.287,0,.433,0,.081,0,.163,0,.244,0,.125,0,.247-.006.372,0,.07-.02.142-.02.215,0,.317.006.636,0,.956s-.049.653-.055.981a.767.767,0,0,0,.166.6,1.109,1.109,0,0,1,.27.711c.02.3.026.6.023.894,0,.343-.02.68-.023,1.022-.009.813-.012,1.626-.018,2.443,0,.946-.006,1.9-.011,2.843-.006,1.022,0,2.041-.026,3.06-.021.97-.064,1.937-.1,2.907-.049,1.277-.1,2.555-.157,3.83a.761.761,0,0,1-.079.36,1.173,1.173,0,0,0-.1.63c.009.317,0,.636-.009.956,0,.041-.014.081-.017.122-.006.072-.006.142-.009.215-.006.142-.015.288-.023.43-.009.113-.017.226-.029.34a1.135,1.135,0,0,1-.021.244,1.227,1.227,0,0,0-.026.491,3.065,3.065,0,0,1,.018.892.589.589,0,0,0,.008.125c0,.113,0,.226-.006.337,0,.093-.006.186-.006.279,0,.113,0,.226,0,.337,0,.073-.017.146-.015.218.006.328.015.656.021.985,0,.052-.012.1-.012.154,0,.081,0,.166,0,.246v.43c0,.084,0,.166,0,.247v.369c0,.084-.012.166-.012.247,0,.328,0,.656-.006.985,0,.052-.017.1-.02.154s0,.125-.006.186c-.008.328-.014.656-.023.985a.9.9,0,0,1-.017.122c-.006.093-.012.186-.021.276-.023.319-.043.636-.067.953a.123.123,0,0,0-.006.032c-.032.308-.07.613-.1.921s-.05.592-.079.889a1.2,1.2,0,0,1-.029.151.822.822,0,0,0-.026.183c.023.363-.067.72-.012,1.08a.323.323,0,0,1,0,.093c0,.308-.006.616-.008.926,0,.369,0,.738,0,1.107,0,.246.006.493.012.74a.652.652,0,0,0,.026.183A6.769,6.769,0,0,0,67,110.565c.11.233.212.467.331.694a.738.738,0,0,0,.209.261c.261.2.537.381.8.573.151.107.3.217.447.331a7.254,7.254,0,0,1,.613.465,1.82,1.82,0,0,0,.726.4c.334.1.668.209,1,.328.493.177.993.345,1.472.56.16.07.328.125.488.192.276.116.549.235.822.354a2.042,2.042,0,0,0,.857.235,1.547,1.547,0,0,1,.3.038c.273.052.546.11.819.168.11.023.224.041.331.072a9.152,9.152,0,0,0,1.6.34.269.269,0,0,0,.151,0,1.227,1.227,0,0,1,.7-.03c.45.055.9.117,1.35.192,1.223.206,2.442.43,3.665.633.479.078.964.125,1.446.174.514.052,1.031.038,1.548.05.578.011,1.156.049,1.733.081a14.886,14.886,0,0,0,2.074-.043,19.9,19.9,0,0,0,3.906-.787,3.736,3.736,0,0,0,.6-.241,12.385,12.385,0,0,1,1.377-.558c.241-.084.479-.186.72-.273a.4.4,0,0,0,.261-.282c.079-.256.206-.494.276-.755a5.266,5.266,0,0,1,.23-.6c.116-.284.241-.566.348-.856.049-.134.064-.279.1-.418.067-.27.142-.537.2-.807.076-.322.183-.63.282-.944a1.765,1.765,0,0,0,.119-.505c0-.293.081-.569.1-.856a7.362,7.362,0,0,1,.125-.761c.058-.314.113-.627.191-.935.122-.491.273-.973.4-1.464.226-.865.45-1.737.665-2.6q.235-.963.447-1.931c.166-.734.319-1.469.479-2.2.168-.767.337-1.53.511-2.294.122-.535.25-1.066.386-1.595.217-.816.447-1.629.665-2.448.154-.578.3-1.156.439-1.74a7.526,7.526,0,0,0,.209-.964,5.578,5.578,0,0,1,.264-1.139c.084-.264.154-.534.226-.8.032-.119.052-.241.075-.363.073-.4.163-.787.215-1.185a15.433,15.433,0,0,1,.546-2.532,2.469,2.469,0,0,0,.108-.514,3.6,3.6,0,0,1,.148-.691,2.034,2.034,0,0,1,.195-.45,1.846,1.846,0,0,0,.206-.482c.087-.36.166-.723.259-1.083.046-.177.107-.351.171-.526.038-.093.1-.18.145-.27.163-.308.317-.624.491-.929.18-.322.371-.639.569-.952a1.724,1.724,0,0,0,.2-.451c.087-.3.18-.592.261-.888a.6.6,0,0,1,.168-.322.414.414,0,0,0,.125-.244c.1-.555.2-1.112.3-1.67.058-.334.1-.671.16-1,.064-.375.139-.749.209-1.121.072-.386.142-.769.22-1.153.073-.363.16-.723.247-1.083m-8.842-52.463a4.879,4.879,0,0,1,1.963-.117,1.974,1.974,0,0,1,.984.468.939.939,0,0,1-.151.108,5.147,5.147,0,0,1-1.144.258,3.007,3.007,0,0,1-1.1-.07.821.821,0,0,1-.471-.279.339.339,0,0,1-.078-.369M91.447,45.356c.09-.285.177-.569.285-.848a11.192,11.192,0,0,0,.4-1.3c.148-.558.313-1.11.467-1.664.212-.755.418-1.51.627-2.265.276-1,.558-2.007.834-3.011.206-.755.406-1.513.613-2.268a2.4,2.4,0,0,1,.108-.322c.525-1.179.955-2.393,1.37-3.612q.531-1.551,1.034-3.11.414-1.3.79-2.6c.293-1.022.58-2.045.854-3.069a11.95,11.95,0,0,1,.433-1.29c.142-.363.255-.74.38-1.109.041-.117.076-.235.125-.389l.163.116a1.9,1.9,0,0,0,.79.34,4.443,4.443,0,0,0,1.783-.021c.119-.026.241-.049.384-.075a.554.554,0,0,1-.02.154,33.3,33.3,0,0,0-1.255,3.293c-.511,1.437-.979,2.889-1.432,4.347-.375,1.2-.726,2.408-1.048,3.624-.326,1.237-.653,2.471-.994,3.7-.212.755-.453,1.5-.676,2.25-.2.682-.406,1.362-.607,2.045q-.462,1.572-.923,3.142c-.259.868-.514,1.74-.776,2.608-.148.494-.311.982-.456,1.475-.081.276-.146.56-.209.839-.05.212-.088.424-.134.636-.014.058-.043.11-.07.183-.258-.119-.5-.238-.743-.34s-.52-.2-.781-.293-.5-.183-.755-.27-.5-.177-.747-.262c.064-.224.119-.429.186-.636m16.971,22.959q-.17.723-.325,1.449c-.308,1.423-.546,2.858-.79,4.292-.067.395-.131.793-.209,1.188-.046.233-.119.459-.18.685-.021.07-.064.146-.05.209a.679.679,0,0,1-.113.471c-.241.433-.488.86-.734,1.289-.012.018-.021.041-.038.05-.2.1-.273.322-.442.456a.7.7,0,0,0-.258.476,6.066,6.066,0,0,1-.436,1.577,9.039,9.039,0,0,0-.435,1.577,30.793,30.793,0,0,1-.9,3.569,11.9,11.9,0,0,0-.3,1.231c-.148.642-.276,1.292-.433,1.931-.2.831-.435,1.655-.648,2.486-.18.709-.351,1.42-.525,2.132-.148.61-.3,1.22-.439,1.836-.174.752-.337,1.507-.505,2.262-.122.555-.241,1.11-.36,1.664s-.233,1.109-.348,1.664l-.5,2.3c-.07.331-.143.665-.206,1-.088.444-.172.892-.253,1.339-.055.313-.1.63-.163.943-.1.506-.209,1.011-.331,1.51-.168.679-.351,1.359-.531,2.036-.166.607-.337,1.214-.5,1.82-.078.288-.151.578-.217.869a1.28,1.28,0,0,1-.319.659,1.264,1.264,0,0,0-.189.244,1.671,1.671,0,0,1-.662.593c-.119.061-.241.119-.363.174a22.827,22.827,0,0,1-3.093,1.092,4.27,4.27,0,0,1-.639.107,19.749,19.749,0,0,1-2.379.169c-.505,0-1.01-.023-1.516-.038-.174-.006-.351-.021-.525-.032-.061-.006-.139.006-.177-.03-.087-.07-.177-.043-.267-.04-.072,0-.142.014-.215.02a1.7,1.7,0,0,1-.734-.052,1.654,1.654,0,0,0-.4-.058c-1.815-.142-3.615-.392-5.418-.627-1.057-.139-2.109-.3-3.16-.447-.442-.061-.883-.1-1.327-.119a3.792,3.792,0,0,1-.761-.136c-.6-.143-1.208-.285-1.8-.451a17.757,17.757,0,0,1-2.855-1.025,5.78,5.78,0,0,1-1.327-.845,3.743,3.743,0,0,1-.828-1,1.311,1.311,0,0,1-.206-.7.369.369,0,0,0,0-.061.26.26,0,0,0-.188-.253.306.306,0,0,0-.284.154.556.556,0,0,0-.041.392c.043.192.09.384.136.572.014.058.029.119.05.2-.087-.008-.108-.064-.134-.11a3.355,3.355,0,0,1-.5-2.19c.037-.308.067-.616.1-.923.148-1.281.244-2.567.317-3.853.067-1.185.107-2.37.151-3.558.035-1,.061-2,.09-3,.029-1.185.046-2.372.087-3.557.035-1.04.1-2.079.212-3.116.16-1.414.282-2.834.355-4.257.061-1.141.119-2.285.122-3.43,0-.784.014-1.568.011-2.35s-.029-1.589-.046-2.381q-.026-1.238-.055-2.474c-.02-.926-.006-1.856-.087-2.782-.014-.162-.038-.325-.052-.491-.012-.128-.026-.246-.174-.3-.029-.009-.052-.058-.064-.1a2.166,2.166,0,0,1-.142-.755q0-1.764.006-3.526c0-.424.009-.848.014-1.269,0-.032.006-.064,0-.093a6.63,6.63,0,0,1,.04-1.359c.093-1.234.189-2.468.259-3.706.038-.647.026-1.3.026-1.949,0-.74-.006-1.484-.009-2.227,0-.525,0-1.051-.008-1.577a21.838,21.838,0,0,1,.064-2.227c.087-.943.206-1.887.314-2.828a.775.775,0,0,1,.032-.114.627.627,0,0,1,.154.073c.137.128.261.267.4.392a4.659,4.659,0,0,0,1,.676c.116.064.233.128.351.189-.026.137-.136.174-.217.226a.717.717,0,0,0-.276.662,1.471,1.471,0,0,0,.558-.3c.174-.107.342-.226.52-.342.288.087.566.183.868.3a.824.824,0,0,1-.13.16,17.087,17.087,0,0,1-1.762,1.15,1.017,1.017,0,0,1-.157.05,2.75,2.75,0,0,1-.02-.476c.006-.227.012-.453.009-.682a1.075,1.075,0,0,0-.052-.267.092.092,0,0,0-.154-.018.517.517,0,0,0-.064.139c-.023.1-.038.2-.052.3a28.553,28.553,0,0,0-.215,3.148c-.012.7-.038,1.4-.046,2.1-.009.8-.014,1.609-.009,2.413,0,.618.023,1.237.032,1.856a2.122,2.122,0,0,1-.026.34,34.758,34.758,0,0,0-.255,3.764q-.048,2.4.041,4.791a5.66,5.66,0,0,0,.05.584,9.807,9.807,0,0,1,.072,1.327c.014,1.29.017,2.579.026,3.868.008.938.026,1.876.029,2.814a1.412,1.412,0,0,1-.055.427,1.194,1.194,0,0,0-.047.331c-.006,1.034-.008,2.065-.026,3.1s-.05,2.042-.088,3.061c-.029.732-.078,1.464-.116,2.2-.043.781-.081,1.566-.125,2.35-.043.752-.09,1.5-.134,2.254-.043.825-.087,1.649-.125,2.474-.032.647-.064,1.3-.087,1.946q-.048,1.285-.087,2.567c-.02.711-.032,1.423-.046,2.134,0,.157,0,.311,0,.464a.159.159,0,0,0,.087.148c.015-.119.029-.215.038-.314.1-1.1.2-2.2.282-3.3.1-1.4.2-2.8.29-4.2.052-.813.1-1.626.148-2.439q.1-1.729.192-3.461c.041-.729.079-1.461.119-2.192.011-.215.023-.43.035-.653l.218-.029c0-.36.008-.709.012-1.052.04-.006.066-.02.072-.012a.314.314,0,0,0,.447.018,1.109,1.109,0,0,0,.2-.151,1.43,1.43,0,0,1,1.226-.389,2.742,2.742,0,0,1,.63.145,26.54,26.54,0,0,1,2.512.973,2.044,2.044,0,0,0,.863.2.746.746,0,0,0-.061-.113,2.258,2.258,0,0,0-.691-.607,12.649,12.649,0,0,0-2.445-1.121,3.074,3.074,0,0,0-1.528-.128,1.656,1.656,0,0,0-.851.413,1.508,1.508,0,0,0-.3.45c-.078,0-.061-.049-.061-.084.017-.34.032-.676.055-1.016.026-.429.067-.859.087-1.292a4.407,4.407,0,0,0-.017-.706c-.055-.45-.079-.9-.1-1.356-.046-1.249-.009-2.495.064-3.744.041-.709.084-1.42.133-2.129A2.755,2.755,0,0,0,70,74.326c-.055-.322-.122-.645-.18-.947A1.218,1.218,0,0,0,70,73.1,1.071,1.071,0,0,0,70,72.8c0-.2-.006-.392,0-.589a2.612,2.612,0,0,1,.029-.267c.087.046.159.081.226.122a13.328,13.328,0,0,0,1.426.746,9.1,9.1,0,0,0,1.749.523,33.679,33.679,0,0,0,3.955.546c.627.058,1.255.11,1.885.151a5.746,5.746,0,0,0,2.486-.406c.012-.006.017-.035.026-.052l0-.006a3.5,3.5,0,0,1-.493.018,27.672,27.672,0,0,1-2.887-.384c-.924-.183-1.847-.36-2.768-.551-.848-.175-1.7-.355-2.541-.552-.372-.087-.729-.226-1.1-.34-.453-.143-.9-.288-1.362-.418-.177-.052-.363-.07-.566-.108a1.167,1.167,0,0,1-.02-.16c.008-.558.02-1.112.029-1.669.006-.671.006-1.342.015-2.01q.018-1.1.049-2.2a2.721,2.721,0,0,1,.041-.3.347.347,0,0,0,.014-.122,6.48,6.48,0,0,1-.029-1.231c-.02-.575-.02-1.153-.029-1.731,0-.081,0-.163,0-.256.064-.052.125-.1.192-.151a13.569,13.569,0,0,1,1.7-1.014c2.05-1.034,4.037-2.181,6.032-3.311.162-.093.319-.191.476-.29a1.925,1.925,0,0,0,.171-.151,1.038,1.038,0,0,0-.154.006,1.315,1.315,0,0,0-.168.079c-2.37,1.153-4.71,2.361-7,3.662-.34.191-.674.4-1.011.6-.087.052-.177.1-.273.157-.084-.276-.163-.531-.233-.79-.043-.154-.012-.215.137-.3.122-.078.247-.148.375-.215.865-.462,1.745-.9,2.6-1.391,1.176-.668,2.335-1.371,3.5-2.062.676-.4,1.347-.807,2.018-1.214a.687.687,0,0,0,.319-.282c-.146-.067-.148-.072-.244-.032-.171.07-.343.145-.511.226-1.013.488-2.007,1.022-2.985,1.58l-4.873,2.779c-.079.046-.16.084-.23.122a.143.143,0,0,1-.1-.159c0-.186.009-.372.029-.558a.276.276,0,0,1,.1-.146,2.708,2.708,0,0,1,.285-.188c1.7-1,3.374-2.047,5.1-3,.188-.1.38-.206.572-.311a17.7,17.7,0,0,0,1.878-1.141.461.461,0,0,1,.4-.088c.3.072.607.131.909.195a3.969,3.969,0,0,0,.929.1.581.581,0,0,0-.116-.055c-.912-.3-1.821-.61-2.742-.88-1.35-.389-2.709-.744-4.062-1.124a17.307,17.307,0,0,1-2.192-.755,5.114,5.114,0,0,1-1.3-.776,2.788,2.788,0,0,1-.627-.7,3.044,3.044,0,0,1,.895-.72c.035.043.055.055.058.072a1.642,1.642,0,0,0,.505,1,3.143,3.143,0,0,0,.822.6,9.864,9.864,0,0,0,1.615.627,26.117,26.117,0,0,0,2.64.682,18.772,18.772,0,0,0,2.544.389,6.472,6.472,0,0,0,1.234-.037,1.038,1.038,0,0,0,.131-.038.215.215,0,0,0-.166-.13c-.319-.113-.639-.238-.97-.322-.72-.189-1.443-.355-2.166-.526-.192-.047-.384-.087-.575-.137-.1-.026-.192-.064-.29-.1.014-.049.012-.087.029-.1a.836.836,0,0,0,.235-.319c.023-.067.11-.117.177-.166.311-.238.627-.471.935-.714a4.408,4.408,0,0,0,.377-.366.361.361,0,0,0,.07-.1.134.134,0,0,0-.014-.171A.181.181,0,0,0,77,49.346a1.3,1.3,0,0,0-.325.1c-.239.119-.477.247-.706.386a7.948,7.948,0,0,0-1.141.848c-.145.13-.276.279-.424.43a2.279,2.279,0,0,1-.918-.282c.023-.128.116-.157.195-.2.363-.218.726-.439,1.089-.656a4.489,4.489,0,0,0,.752-.6,1.089,1.089,0,0,0,.133-.171c-.052-.017-.084-.041-.107-.032a2.137,2.137,0,0,0-.346.133,8.766,8.766,0,0,0-1.275.819c-.186.148-.354.317-.531.476-.061.055-.116.113-.18.175a3.592,3.592,0,0,1-.993-.326c.017-.116.1-.148.166-.192.343-.232.688-.458,1.031-.691.171-.116.34-.233.508-.355a1.287,1.287,0,0,0,.378-.4.636.636,0,0,0,.037-.108.227.227,0,0,0-.241-.041,1.6,1.6,0,0,0-.406.142,7.173,7.173,0,0,0-1.58,1.141c-.093.093-.183.192-.273.284a1.559,1.559,0,0,1-1-.682.377.377,0,0,1,.2-.174,7.989,7.989,0,0,0,1.757-1.415,3.161,3.161,0,0,0,.331-.406.307.307,0,0,0,.05-.371c-.064-.1-.212-.1-.4,0-.11.058-.209.133-.317.2-.037.023-.081.037-.151.07.061-.154.117-.276.157-.4a.718.718,0,0,0,.026-.427.341.341,0,0,1,0-.18,1.444,1.444,0,0,1,.723-.994c.471-.241.941-.476,1.408-.717a6.4,6.4,0,0,1,1.911-.6c.468-.076.935-.168,1.406-.235a6.193,6.193,0,0,1,.74-.043c.982-.026,1.963-.055,2.945-.073.877-.014,1.754-.023,2.633-.02q1.347.008,2.7.043c.569.014,1.138.046,1.7.09a5.52,5.52,0,0,0,.923.075,9.055,9.055,0,0,1,1.513.119.415.415,0,0,1,.093.035.582.582,0,0,1-.035.3q-.113.449-.229.9a1.183,1.183,0,0,0-.061.616c-.322.017-.618.026-.914.052s-.575.067-.86.113-.589.108-.883.168a2.984,2.984,0,0,0-.84.27,2.266,2.266,0,0,0,1.141.212c.59-.014,1.176-.05,1.766-.088a3.285,3.285,0,0,1,1.1.128c.668.192,1.33.389,1.978.631.319.119.636.244.955.366A3.586,3.586,0,0,0,95.26,48c.014-.049.026-.09.041-.145a4.339,4.339,0,0,0,1.284.128c.035-.067-.012-.1-.061-.113-.282-.1-.564-.195-.848-.285-.16-.049-.319-.084-.5-.13.008-.061.012-.119.023-.175.093-.476.186-.952.284-1.426a1.1,1.1,0,0,1,.067-.238c.093-.238.195-.473.3-.726a1.6,1.6,0,0,1,.186.023c.665.151,1.333.3,1.995.456.563.134,1.121.282,1.684.424.23.058.456.128.689.177a4.441,4.441,0,0,1,1.164.412,5.994,5.994,0,0,0,1.554.511,4.724,4.724,0,0,1,.656.183c.9.328,1.795.68,2.7.993a2.834,2.834,0,0,1,1.246.825,5,5,0,0,1,1.223,2.495c.008.041.017.081.026.122.041.224.07.45.128.668s.137.433.209.651a.48.48,0,0,1-.259.229c-.09-.029-.116-.113-.145-.186-.1-.238-.189-.482-.282-.72a1.192,1.192,0,0,0-.09-.2.182.182,0,0,0-.186-.087.2.2,0,0,0-.166.162,1.475,1.475,0,0,0-.009.34c.026.183.067.363.108.543s.1.357.142.54a1.182,1.182,0,0,1-.154.119.133.133,0,0,1-.171-.023,1.383,1.383,0,0,1-.148-.2c-.166-.261-.325-.529-.493-.787a2.2,2.2,0,0,0-.233-.288.134.134,0,0,0-.168-.032.154.154,0,0,0-.1.142,3.075,3.075,0,0,0,.052.4,3.006,3.006,0,0,0,.3.743l.2.377a1.46,1.46,0,0,1-.645.334c-.041-.09-.084-.183-.122-.276-.107-.279-.212-.56-.322-.839-.052-.134-.113-.264-.174-.395a.418.418,0,0,0-.485-.247.272.272,0,0,0-.206.447,3.723,3.723,0,0,1,.355.616c.107.212.229.415.342.622.035.061.064.125.09.183a.408.408,0,0,1-.29.128,48.681,48.681,0,0,1-5.648.729c-.177.009-.352.021-.526.035a1.053,1.053,0,0,0-.134.037c.012.088.07.09.119.1a13.611,13.611,0,0,0,1.876.218,19.315,19.315,0,0,0,5.817-.74c.377-.108.749-.241,1.115-.375a.412.412,0,0,1,.409.023.66.66,0,0,0,.259.093.26.26,0,0,0,.322-.212,2.1,2.1,0,0,0,.035-.264c.064-.035.134-.072.206-.108a.337.337,0,0,0,.212-.427c-.012-.061-.032-.117-.058-.206.061.014.108.012.128.032.244.25.488.5.726.752a.6.6,0,0,1-.171.273,3.37,3.37,0,0,1-1.771,1.014c-.74.154-1.487.235-2.236.319-2.013.23-4.022.453-6.035.682-.308.035-.616.07-.921.11a.478.478,0,0,0-.172.067,4.174,4.174,0,0,0,.631.067c.217.014.433.035.65.046s.433.021.651.026.433.012.651.012.433,0,.653,0c.023.079.041.134.055.192a1.3,1.3,0,0,0,.264.52c.752,1.022,1.5,2.05,2.265,3.064.746.987,1.516,1.96,2.274,2.942.075.1.145.2.224.3a5.4,5.4,0,0,1-.218.726.947.947,0,0,1-.13-.1c-.064-.07-.119-.146-.174-.218a53.3,53.3,0,0,0-3.691-4.463c-.66-.726-1.339-1.432-2.013-2.146-.066-.072-.145-.137-.232-.215-.021.046-.047.078-.038.1a.442.442,0,0,0,.075.133c.227.308.444.622.682.918,1.258,1.548,2.59,3.029,3.909,4.525l1.168,1.324c.122.139.241.284.366.433a7.675,7.675,0,0,1-.282,1.147.128.128,0,0,1-.157-.055.292.292,0,0,1-.037-.049,39.465,39.465,0,0,0-2.933-3.561Q103,60.93,101.791,59.559c-.157-.177-.293-.372-.441-.56a1.563,1.563,0,0,0-.16-.186.168.168,0,0,0-.255.195.979.979,0,0,0,.11.183c.406.561.825,1.11,1.278,1.635,1.478,1.713,2.979,3.4,4.53,5.05.119.128.235.258.36.395-.035.189-.058.375-.1.552q-.2.841-.427,1.678c-.2.758-.395,1.519-.613,2.271-.3,1.019-.613,2.033-.921,3.049-.183.6-.371,1.2-.555,1.8-.032.108-.064.218-.09.328a6.7,6.7,0,0,1-.334.961,14.68,14.68,0,0,0-.534,1.745c-.2.79-.4,1.58-.587,2.372-.166.714-.311,1.432-.468,2.146q-.318,1.438-.645,2.869c-.192.845-.389,1.69-.581,2.535q-.314,1.372-.621,2.747c-.2.894-.4,1.791-.6,2.686-.154.685-.322,1.365-.476,2.05-.084.36-.145.726-.217,1.089a14.53,14.53,0,0,1-.366,1.533c-.052.166-.11.331-.159.5-.023.087-.038.18-.067.316.183-.212.206-.45.375-.665-.012.1-.012.148-.023.2-.215.956-.424,1.914-.647,2.866a40.974,40.974,0,0,1-1.653,5.509,20.981,20.981,0,0,1-1.26,2.55,1.059,1.059,0,0,1-.372.363,6.834,6.834,0,0,1-1.94.88c-.488.134-.981.238-1.472.357a.31.31,0,0,1-.261-.018c-.017-.616.012-1.243.029-1.87a14.818,14.818,0,0,0-.021-1.838c-.081.023-.072.093-.081.148-.128.691-.256,1.379-.381,2.07-.087.48-.168.956-.25,1.435l-.017.09a.2.2,0,0,1-.18.186c-.154.026-.305.058-.459.079q-1.4.174-2.8.34c-.442.055-.883.1-1.321.163-.195.026-.386.072-.578.113a.633.633,0,0,0-.125.064.474.474,0,0,0,.25.133c.262.052.523.116.79.154a16.741,16.741,0,0,0,2.535.137,17.406,17.406,0,0,0,3.171-.311,16.635,16.635,0,0,0,1.827-.473,5.611,5.611,0,0,0,2.141-1.214c.137-.125.288-.232.435-.348a.558.558,0,0,0,.235-.477,1.313,1.313,0,0,1,.084-.389c.151-.517.348-1.014.549-1.513a12.689,12.689,0,0,0,.767-2.86c.046-.3.116-.589.186-.88.244-1.011.5-2.021.738-3.035q.375-1.582.732-3.165c.154-.674.3-1.35.444-2.027.021-.107.026-.217.043-.348l-.125.1c-.008-.017-.029-.035-.026-.043.134-.447.279-.886.4-1.336.186-.685.369-1.374.531-2.065.267-1.115.517-2.233.77-3.348q.309-1.359.607-2.718c.168-.778.346-1.551.505-2.329s.308-1.56.389-2.352a3.875,3.875,0,0,1,.117-.575c.235-.961.476-1.922.708-2.887a.619.619,0,0,1,.175-.317,1.759,1.759,0,0,0,.4-.622c.241-.6.488-1.2.706-1.818.418-1.185.8-2.384,1.115-3.6.244-.935.464-1.882.677-2.825.133-.584.224-1.176.345-1.763.079-.363.177-.72.268-1.08.186-.729.374-1.458.558-2.19s.366-1.437.543-2.161c.148-.6.29-1.2.433-1.806.081-.351.168-.7.232-1.057.087-.485.157-.976.226-1.466a1.226,1.226,0,0,0,0-.279.249.249,0,0,0-.081-.157c-.108.032-.128.116-.148.191-.084.3-.166.6-.247.895s-.157.578-.238.865a.518.518,0,0,1-.067.125c-.1-.134-.177-.25-.261-.36q-.749-.967-1.5-1.934c-.255-.328-.4-.357-.813-.159a.94.94,0,0,0,.064.157c.1.157.206.311.319.459q.828,1.08,1.664,2.158a.735.735,0,0,0,.253.249.576.576,0,0,0,.078-.125c.041-.1.043-.22.122-.3.02,0,.032,0,.035.006a.035.035,0,0,1,.006.029c-.043.189-.084.381-.137.569-.061.218-.13.433-.2.671a.631.631,0,0,1-.172-.07,1.073,1.073,0,0,1-.145-.159c-.938-1.086-1.876-2.172-2.759-3.3a.543.543,0,0,0-.7-.224c-.018.006-.03.026-.055.049a.97.97,0,0,0,.2.334q.414.562.839,1.115c.74.967,1.531,1.9,2.346,2.8.076.081.148.168.238.267-.075.389-.195.773-.3,1.159-.006.023-.038.044-.067.073a.32.32,0,0,1-.1-.064,2.537,2.537,0,0,1-.177-.218q-1.986-2.491-3.975-4.989c-.142-.177-.308-.334-.462-.5-.047-.05-.081-.108-.146-.192.093-.012.151-.023.209-.029,1.1-.073,2.2-.137,3.308-.224a17.2,17.2,0,0,0,2.3-.322,3.449,3.449,0,0,0,1.885-1.063,2.441,2.441,0,0,1,.195-.171.481.481,0,0,1,.1.447c-.238.88-.314,1.789-.485,2.677-.1.509-.215,1.011-.325,1.513-.117.534-.233,1.068-.355,1.6-.2.883-.406,1.769-.616,2.651-.177.732-.363,1.461-.543,2.192-.177.749-.366,1.5-.546,2.254M75.481,53.71c-.07.041-.139.09-.206.137a51.132,51.132,0,0,1-5,3.04c-.081.043-.166.079-.247.119a2.044,2.044,0,0,1-.04-1.159c.125-.084.267-.188.412-.282q1.638-1.04,3.273-2.076c.061-.037.122-.078.18-.116a1.326,1.326,0,0,0,.18-.125,1.29,1.29,0,0,0,.133-.183c1.194.282,2.4.526,3.636.81a.981.981,0,0,1-.145.134c-.259.128-.52.253-.781.375a68.12,68.12,0,0,0-6.609,3.47c-.073.044-.146.079-.221.117-.014.008-.038,0-.058,0-.076-.18-.076-.18-.018-.464.137-.081.285-.175.439-.256a47.14,47.14,0,0,0,4.312-2.625c.325-.221.639-.456.956-.688A.48.48,0,0,0,75.9,53.7a.4.4,0,0,0-.418.014m-1.922-.685a34.467,34.467,0,0,0-3.488,2.053c-.012.009-.038,0-.093-.008-.008-.07-.017-.131-.02-.189-.018-.351-.009-.308.238-.476q1.163-.793,2.329-1.583a1.411,1.411,0,0,1,.154-.1.2.2,0,0,1,.116-.026c.259.072.514.151.769.23.012.006.018.035.026.052-.012.018-.017.044-.032.05" transform="translate(-29.016 -7.247)" fill="#b7923d"/>
      <path id="Pfad_11455" data-name="Pfad 11455" d="M104.94,197.043a.373.373,0,0,0-.151.029,3.333,3.333,0,0,1-.749.186c-.244.05-.485.11-.726.166-.543.125-1.083.267-1.629.375a16.165,16.165,0,0,1-3.705.189c-.66-.026-1.319-.076-1.975-.139-1.594-.16-3.186-.331-4.777-.5-1.324-.146-2.646-.3-3.973-.447a14.16,14.16,0,0,0-1.577-.1c-.372,0-.743-.018-1.141-.03a7.611,7.611,0,0,0,1.626.732l.868.241a19.986,19.986,0,0,0,2.64.523c2.161.284,4.324.529,6.5.7a24.893,24.893,0,0,0,2.753.07,14,14,0,0,0,2-.2,11.061,11.061,0,0,0,2.718-.825c.261-.122.506-.276.756-.424.151-.087.3-.183.444-.279a1.143,1.143,0,0,0,.168-.133c.017-.014.015-.061,0-.084a.089.089,0,0,0-.067-.05" transform="translate(-36.962 -87.057)" fill="#b7923d"/>
      <path id="Pfad_11456" data-name="Pfad 11456" d="M72.024,65.011a.473.473,0,0,0,.552-.035,2.293,2.293,0,0,0,.282-.241c.392-.409.781-.822,1.17-1.231a11.464,11.464,0,0,1,1.08-1.019,12.83,12.83,0,0,1,2.05-1.321,9.715,9.715,0,0,1,2.4-.877,27.817,27.817,0,0,1,2.805-.459c1.26-.154,2.521-.3,3.778-.453.006-.012.009-.021.014-.032-.049-.006-.1-.014-.151-.017-.421-.046-.842-.1-1.263-.137a22.915,22.915,0,0,0-3.061-.139,16.039,16.039,0,0,0-3.581.5,12.7,12.7,0,0,0-1.943.709,11.7,11.7,0,0,0-1.188.659,7.857,7.857,0,0,0-1.278.973c-.331.308-.645.633-.956.964a5.533,5.533,0,0,0-.7.938,1.639,1.639,0,0,0-.258.72.5.5,0,0,0,.244.5" transform="translate(-31.318 -26.12)" fill="#b7923d"/>
      <path id="Pfad_11457" data-name="Pfad 11457" d="M65.608,77.467a.173.173,0,0,0-.113.087.81.81,0,0,0-.058.238c-.072.729-.16,1.455-.215,2.184-.078,1.008-.136,2.018-.2,3.026-.035.627-.061,1.257-.081,1.885-.023.764-.043,1.525-.055,2.288q-.022.958-.023,1.917c0,.711.014,1.423.023,2.134.012,1.031.047,2.059.108,3.09.064,1.08.221,2.152.334,3.226a1.216,1.216,0,0,0,.07.2c.032-.415.058-.763.093-1.112.1-1.025.136-2.056.145-3.087,0-.558,0-1.115,0-1.67,0-.743-.012-1.486-.012-2.227,0-.813,0-1.629.009-2.443.006-.659.02-1.318.032-1.978q.026-1.163.052-2.32c.017-.74.037-1.484.046-2.227.009-.627.009-1.257.012-1.885,0-.351,0-.7,0-1.051a.657.657,0,0,0-.026-.183.118.118,0,0,0-.142-.09" transform="translate(-28.259 -34.272)" fill="#b7923d"/>
      <path id="Pfad_11458" data-name="Pfad 11458" d="M99.363,47.82c.558.674,1.121,1.344,1.673,2.024a5.135,5.135,0,0,1,.674,1.031,8.845,8.845,0,0,0,.6,1.04.429.429,0,0,0,.424.2.419.419,0,0,0,.369-.284,1.982,1.982,0,0,0-.038-1.62,3.862,3.862,0,0,0-.459-.764,9.479,9.479,0,0,0-1.4-1.478c-.587-.505-1.208-.967-1.838-1.415a6.3,6.3,0,0,0-1.1-.676c-.014.017-.041.035-.038.043a3.081,3.081,0,0,0,.288.714,9.923,9.923,0,0,0,.842,1.182" transform="translate(-43.022 -20.299)" fill="#b7923d"/>
      <path id="Pfad_11459" data-name="Pfad 11459" d="M65.193,128.852a3.418,3.418,0,0,0-.137-.505c-.008-.026-.055-.038-.11-.076-.026.218-.061.4-.07.584-.026.566-.046,1.132-.058,1.7-.017.74-.032,1.484-.041,2.227-.006.618-.006,1.237-.012,1.856-.008.845-.014,1.693-.026,2.538-.009.68-.023,1.359-.038,2.042q-.022,1.111-.047,2.227c-.011.514-.032,1.03-.04,1.544-.009.691-.009,1.383-.012,2.073,0,.123.012.245.017.366a.2.2,0,0,1,.038-.011c0-.021.012-.038.014-.059.276-1.786.464-3.581.58-5.384.026-.444.064-.885.081-1.329.029-.782.055-1.566.07-2.35s.023-1.589.021-2.381c-.006-.848-.026-1.693-.05-2.538a21.615,21.615,0,0,0-.183-2.526" transform="translate(-28.144 -56.751)" fill="#b7923d"/>
      <path id="Pfad_11460" data-name="Pfad 11460" d="M146.258,89.389c0-.046-.02-.1-.1-.084a2.568,2.568,0,0,0-.217.735.754.754,0,0,1-.041.151c-.093.357-.206.712-.27,1.075-.041.224-.13.433-.159.656s-.1.441-.139.662a7.594,7.594,0,0,1-.172.813.385.385,0,0,0-.014.125,1.388,1.388,0,0,1-.113.508c-.052.18-.026.366-.087.549-.116.36-.13.747-.235,1.112a.239.239,0,0,0-.006.064,1.086,1.086,0,0,1-.064.328c-.09.369-.145.747-.238,1.115-.006.021,0,.041-.006.061a2.223,2.223,0,0,1-.061.27c-.116.363-.137.749-.261,1.11-.006.02,0,.04-.009.061-.067.331-.137.665-.2,1,0,.009-.008.018-.011.029a1.814,1.814,0,0,0-.148.6,1.132,1.132,0,0,1-.055.206c-.122.384-.189.778-.3,1.165-.043.145-.081.3-.116.444-.081.351-.171.7-.273,1.042a1.379,1.379,0,0,0-.021.154.681.681,0,0,1-.029.151,2.106,2.106,0,0,0-.177.685.543.543,0,0,1-.058.177,2.67,2.67,0,0,0-.137.6c-.041.2-.116.392-.174.59a1.237,1.237,0,0,0-.017.154.907.907,0,0,1-.032.151,12.075,12.075,0,0,0-.267,1.269,1.383,1.383,0,0,0-.014.154l.052.017a.647.647,0,0,0,.078-.119c.148-.363.3-.723.439-1.089a27.578,27.578,0,0,0,.842-2.878c.233-.869.447-1.74.653-2.614.221-.921.427-1.847.636-2.773.108-.473.215-.947.322-1.417.157-.694.322-1.388.468-2.085.148-.714.282-1.437.418-2.155a24.549,24.549,0,0,0,.313-2.517,1.823,1.823,0,0,0,0-.247" transform="translate(-62.402 -39.51)" fill="#b7923d"/>
      <path id="Pfad_11461" data-name="Pfad 11461" d="M129.622,57.363a6.822,6.822,0,0,0-1.24-.014,7.821,7.821,0,0,0-1.789.343,4.024,4.024,0,0,0-.819.363,1.378,1.378,0,0,0-.543.537.763.763,0,0,0,.128.912.347.347,0,0,0,.619-.1.954.954,0,0,1,.549-.514c.311-.119.616-.241.929-.342a11.937,11.937,0,0,1,1.78-.406,9.392,9.392,0,0,0,1.382-.337,2.666,2.666,0,0,0,.241-.113,4.9,4.9,0,0,0-1.237-.325" transform="translate(-54.924 -25.363)" fill="#b7923d"/>
      <path id="Pfad_11462" data-name="Pfad 11462" d="M137.354,130.963a.367.367,0,0,0-.479.072,1.156,1.156,0,0,0-.264.517c-.09.34-.172.68-.261,1.019-.171.648-.343,1.3-.52,1.94s-.366,1.269-.537,1.9a6.584,6.584,0,0,0-.235,1.321.505.505,0,0,0,.11-.07,6.512,6.512,0,0,0,.511-.735,7.937,7.937,0,0,0,.534-1.147c.346-.909.587-1.847.839-2.782a9.375,9.375,0,0,1,.439-1.606.346.346,0,0,0-.137-.435" transform="translate(-59.314 -57.916)" fill="#b7923d"/>
      <path id="Pfad_11463" data-name="Pfad 11463" d="M137.111,16.023c.145-.052.284-.119.424-.18a4.11,4.11,0,0,1,1.621-.357,7.845,7.845,0,0,1,1.045.088l.389.046a.622.622,0,0,0-.264-.6,1.439,1.439,0,0,0-.662-.317,3.512,3.512,0,0,0-2.408.3,1.5,1.5,0,0,0-.563.47.365.365,0,0,0-.052.456c.1.142.25.177.471.1" transform="translate(-59.989 -6.465)" fill="#b7923d"/>
      <path id="Pfad_11464" data-name="Pfad 11464" d="M128.151,14.862c.221-.043.442-.093.665-.139a4.17,4.17,0,0,1,1.777.006c.139.032.279.067.421.1a.225.225,0,0,0,.25-.076.233.233,0,0,0,.021-.261,1.073,1.073,0,0,0-.4-.462,1.672,1.672,0,0,0-.6-.224,3.763,3.763,0,0,0-1.44.047,3.054,3.054,0,0,0-.923.333.989.989,0,0,0-.506.674,1.371,1.371,0,0,0,.735,0" transform="translate(-55.934 -6.085)" fill="#b7923d"/>
      <path id="Pfad_11465" data-name="Pfad 11465" d="M130.607,62.5a3.164,3.164,0,0,0-1.775.81,2.248,2.248,0,0,0-.352.464.466.466,0,0,0-.055.206.281.281,0,0,0,.357.308.587.587,0,0,0,.168-.075c.1-.058.192-.122.285-.186a6.218,6.218,0,0,1,1.929-.9c.089-.023.18-.043.267-.075a4.52,4.52,0,0,0,.711-.3c-.119-.052-.171-.081-.226-.1a3.143,3.143,0,0,0-1.31-.157" transform="translate(-56.38 -27.647)" fill="#b7923d"/>
      <path id="Pfad_11466" data-name="Pfad 11466" d="M105.281,57.993a.04.04,0,0,1,.012-.02c-.006-.009-.009-.018-.014-.021s-.014.006-.023.009l.026.032" transform="translate(-46.129 -25.64)" fill="#b7923d"/>
      <path id="Pfad_11467" data-name="Pfad 11467" d="M94.238,165.114q.74-6.3,1.475-12.6c.014-.122.029-.244.049-.4.25-.055.293-.218.261-.427a1.511,1.511,0,0,1-.012-.154.751.751,0,0,1,.36-.705,2.446,2.446,0,0,1,.912-.369,10.035,10.035,0,0,1,1.661-.166,5.4,5.4,0,0,1,.865.061,8.839,8.839,0,0,1,1.879.514,3.688,3.688,0,0,1,.772.389,1.658,1.658,0,0,1,.476.479.707.707,0,0,1,.122.409,1.11,1.11,0,0,0,.032.337,1.352,1.352,0,0,0,.175.322.122.122,0,0,0,.206-.026,2.078,2.078,0,0,0,.157-.3,1.041,1.041,0,0,0-.079-1.031,2.631,2.631,0,0,0-.517-.572,3.381,3.381,0,0,0-.976-.529,6.4,6.4,0,0,0-2.808-.316,1.639,1.639,0,0,1-.52-.035c-.284-.061-.566-.116-.854-.163a3.647,3.647,0,0,0-1.11.006,2.089,2.089,0,0,0-1.222.613,1.038,1.038,0,0,0-.267,1.109,1.165,1.165,0,0,1,.043.485c-.09.758-.183,1.516-.264,2.274-.247,2.288-.535,4.571-.709,6.865-.067.842-.1,1.687-.148,2.532a4.6,4.6,0,0,1-.13,1.194.979.979,0,0,0-.029.247c-.064.863-.122,1.728-.189,2.593-.1,1.222-.226,2.442-.38,3.662-.026.215-.052.43-.064.645-.008.2,0,.392,0,.589a.128.128,0,0,0,.119.122.148.148,0,0,0,.148-.093.456.456,0,0,0,.029-.087c.1-.514.226-1.028.3-1.548.1-.642.174-1.286.232-1.934a17.761,17.761,0,0,0,.018-2.968,5.181,5.181,0,0,1-.023-1.019" transform="translate(-40.885 -66.271)" fill="#b7923d"/>
      <path id="Pfad_11468" data-name="Pfad 11468" d="M80.713,170.918c-.918-.244-1.83-.511-2.721-.836a9.208,9.208,0,0,1-1.246-.546.278.278,0,0,1-.174-.293c.015-.154,0-.311.012-.465.02-.224.052-.45.09-.674s.1-.462.125-.7c.052-.534.087-1.069.134-1.6.107-1.2.212-2.4.325-3.607.157-1.693.322-3.386.483-5.082q.279-2.893.551-5.791c.03-.287.047-.575.07-.863,0-.049,0-.1-.006-.186-.142.055-.279.035-.392.122a.517.517,0,0,0-.026.093c-.079.79-.157,1.58-.23,2.37q-.235,2.6-.467,5.209-.1,1.094-.183,2.187c-.041.473-.075.947-.11,1.42s-.055.967-.093,1.452c-.017.2-.052.41-.089.61-.07.377-.152.749-.216,1.127-.137.825-.235,1.652-.3,2.486a1.507,1.507,0,0,0-.011.279,5.559,5.559,0,0,1-.03,1.081c-.029.3-.032.595-.057.894a.315.315,0,0,0,.217.334,1.308,1.308,0,0,0,.18.052,1.869,1.869,0,0,1,.517.2,1.268,1.268,0,0,0,.253.116,26.207,26.207,0,0,0,3.334,1.054,17.4,17.4,0,0,0,2.535.409c.093.009.186.014.279.014a.7.7,0,0,0,.154-.052c-.13-.05-.212-.09-.3-.114-.869-.238-1.734-.47-2.6-.7" transform="translate(-33.249 -66.487)" fill="#b7923d"/>
      <path id="Pfad_11469" data-name="Pfad 11469" d="M72.039,152.381c-.235,1.226-.444,2.457-.607,3.691q-.283,2.178-.371,4.376c-.035.822-.07,1.646-.081,2.471-.012.979-.006,1.957,0,2.936.006.462.026.926.05,1.388a2.164,2.164,0,0,0,.061.363.148.148,0,0,0,.128.122.152.152,0,0,0,.175-.1,3.131,3.131,0,0,0,.174-.493A5.685,5.685,0,0,0,71.681,166c.012-.743.029-1.484.047-2.224q.013-.728.026-1.455c.02-.772.037-1.544.061-2.317.02-.6.046-1.194.07-1.791.038-.906.067-1.812.11-2.718.035-.752.081-1.5.122-2.254.017-.308.035-.616.049-.927a.284.284,0,0,0-.055-.249c-.026.119-.052.215-.072.313" transform="translate(-30.961 -67.28)" fill="#b7923d"/>
      <path id="Pfad_11470" data-name="Pfad 11470" d="M102.934,122.879c-.166,0-.331.006-.5,0-1.1-.029-2.207,0-3.31.052-.328.014-.653.049-.982.075a5.3,5.3,0,0,0,.8.2,20.092,20.092,0,0,0,3.639.29c.351,0,.7-.012,1.051.023.769.076,1.536.189,2.306.27a23.188,23.188,0,0,1,2.715.453,10.9,10.9,0,0,0,1.65.261,4.5,4.5,0,0,0,1.188-.064c0-.023,0-.041-.006-.043-.311-.137-.616-.287-.932-.406-.677-.253-1.362-.482-2.059-.668a11.161,11.161,0,0,0-1.664-.351c-.555-.064-1.107-.139-1.662-.183-.485-.038-.97-.047-1.455-.052a1.228,1.228,0,0,0-.633.11.283.283,0,0,1-.148.029" transform="translate(-42.983 -54.304)" fill="#b7923d"/>
      <path id="Pfad_11471" data-name="Pfad 11471" d="M80,109.916c-.74-.189-1.49-.348-2.23-.529-.5-.119-1-.241-1.5-.383a5.05,5.05,0,0,1-.717-.285.571.571,0,0,1-.322-.273c.043-.212.212-.352.3-.543-.142-.139-.3-.032-.462-.061a14.688,14.688,0,0,0-.761-4.156.67.67,0,0,0-.026.093c-.052.616-.073,1.234-.067,1.853.006.8,0,1.606,0,2.41,0,.145,0,.29.006.433.023.354.084.421.438.485a2.021,2.021,0,0,0,.967.68c.154.058.308.117.467.163a18.47,18.47,0,0,0,3.25.627,7.237,7.237,0,0,0,.865.026c.246-.006.493-.043.74-.072a.767.767,0,0,0,.162-.061c-.1-.038-.168-.067-.235-.09a8.819,8.819,0,0,0-.871-.317" transform="translate(-32.393 -45.874)" fill="#b7923d"/>
      <path id="Pfad_11472" data-name="Pfad 11472" d="M111.083,154.928c.012-.093.026-.183.035-.276,0-.046.03-.1-.046-.142l-.386.137c-.023.125-.04.226-.055.328-.154,1.083-.3,2.167-.459,3.247q-.384,2.623-.787,5.236-.327,2.108-.665,4.22c-.093.589-.2,1.179-.293,1.771q-.235,1.468-.464,2.933a.632.632,0,0,0-.006.3c.023-.023.043-.035.046-.052.125-.511.261-1.019.375-1.531.171-.787.34-1.573.5-2.364.259-1.3.529-2.608.756-3.92.244-1.412.459-2.832.665-4.249.273-1.882.529-3.761.79-5.643" transform="translate(-47.316 -68.36)" fill="#b7923d"/>
      <path id="Pfad_11473" data-name="Pfad 11473" d="M89.906,120.69a.666.666,0,0,0,.246.119,1.1,1.1,0,0,0,.3.032c.322,0,.642,0,.961-.012,1.112-.041,2.227-.075,3.339-.13,1.444-.073,2.884-.163,4.324-.247.195-.012.386-.035.581-.055,0-.012,0-.026,0-.038-.247-.072-.49-.162-.74-.212a11.408,11.408,0,0,0-1.5-.218c-.729-.046-1.46-.084-2.2-.064-.607.017-1.217.029-1.824.046-.772.026-1.545.061-2.314.154a4.285,4.285,0,0,0-.936.2.972.972,0,0,0-.244.131.183.183,0,0,0-.005.3" transform="translate(-39.306 -53.03)" fill="#b7923d"/>
      <path id="Pfad_11474" data-name="Pfad 11474" d="M96.244,82.4c-.061,0-.122.012-.166.119a2.791,2.791,0,0,0,.255.128c.3.1.6.215.912.3.778.212,1.574.331,2.37.468q1.146.2,2.294.36c1.626.241,3.253.47,4.879.7q.858.126,1.72.235c.389.049.781.084,1.17.116a3.487,3.487,0,0,0,.433-.017c.023,0,.043-.029.067-.043-.035-.1-.117-.09-.183-.1-.636-.133-1.272-.273-1.911-.392-.863-.162-1.728-.308-2.593-.459l-1.589-.27c-1.048-.18-2.094-.372-3.145-.534-1.327-.206-2.657-.386-3.987-.575-.175-.023-.352-.026-.526-.032" transform="translate(-42.069 -36.454)" fill="#b7923d"/>
      <path id="Pfad_11475" data-name="Pfad 11475" d="M75.341,150.553c.006-.163,0-.328,0-.488-.084-.055-.154-.122-.261-.1-.012.09-.029.18-.035.273-.03.688-.055,1.379-.09,2.07-.041.781-.084,1.566-.133,2.347-.085,1.306-.16,2.616-.259,3.923-.108,1.4-.235,2.793-.354,4.193-.052.6-.108,1.19-.154,1.786-.032.372-.052.74-.075,1.112a.983.983,0,0,0,.041.4c.032-.145.05-.224.061-.3.117-.7.227-1.406.343-2.108.151-.947.27-1.9.346-2.858.1-1.17.188-2.343.27-3.517.05-.676.076-1.359.11-2.038q.069-1.5.137-3c.023-.569.041-1.135.058-1.7" transform="translate(-32.288 -66.349)" fill="#b7923d"/>
      <path id="Pfad_11476" data-name="Pfad 11476" d="M115.685,140.3a4.754,4.754,0,0,0,.424-.363,1.169,1.169,0,0,0-.952.043,3.615,3.615,0,0,0-.589.34c-.392.3-.781.61-1.144.947a4.616,4.616,0,0,1-1.568.97c-.235.081-.467.163-.705.233-.418.119-.836.229-1.255.342a1.191,1.191,0,0,0-.148.05.19.19,0,0,0-.122.195.182.182,0,0,0,.163.159.8.8,0,0,0,.093.009l.587.035a4.651,4.651,0,0,0,2.727-.653,4.733,4.733,0,0,0,1.173-1.045,7.771,7.771,0,0,1,1.319-1.26" transform="translate(-48.062 -61.879)" fill="#b7923d"/>
      <path id="Pfad_11477" data-name="Pfad 11477" d="M92.965,152.44c.014-.11.026-.224.032-.337.006-.206-.046-.25-.273-.235-.043.212-.088.421-.128.63a.917.917,0,0,0-.023.154c-.061.575-.125,1.15-.175,1.725q-.17,1.986-.328,3.975-.126,1.572-.233,3.148-.13,1.925-.247,3.857c-.04.668-.075,1.339-.1,2.007a2.82,2.82,0,0,0,.049.912c.015-.122.032-.244.043-.369.087-.892.172-1.786.256-2.678q.243-2.679.488-5.36.166-1.882.308-3.761c.09-1.223.183-2.448.325-3.668" transform="translate(-40.036 -67.19)" fill="#b7923d"/>
      <path id="Pfad_11478" data-name="Pfad 11478" d="M109.642,87.451c-.284-.055-.569-.11-.854-.159l-3.569-.645c-.366-.064-.729-.133-1.1-.2-.56-.1-1.118-.209-1.678-.308-.752-.128-1.507-.256-2.263-.369-.909-.137-1.82-.258-2.729-.383a.621.621,0,0,0-.381.017c.047.061.067.113.1.137a1.213,1.213,0,0,0,.224.107,6.024,6.024,0,0,0,1.19.331c.886.154,1.771.3,2.657.444,1.437.244,2.875.479,4.307.738,1.072.192,2.146.325,3.226.415a8.32,8.32,0,0,0,.9-.009c.02,0,.041-.032.058-.043-.012-.067-.061-.064-.1-.07" transform="translate(-42.509 -37.767)" fill="#b7923d"/>
      <path id="Pfad_11479" data-name="Pfad 11479" d="M102.259,145.129a3.99,3.99,0,0,0,.9.4,9.217,9.217,0,0,0,1.635.331,7.267,7.267,0,0,0,1.327.078,2.81,2.81,0,0,0,1.615-.543,1.033,1.033,0,0,0,.108-.11c-.319-.014-.61-.04-.9-.037a8.436,8.436,0,0,1-1.481-.093c-.418-.07-.836-.125-1.255-.2-.273-.05-.54-.125-.81-.2a4.319,4.319,0,0,1-.906-.392,8.371,8.371,0,0,0-1.914-.7c-.047-.012-.108.02-.195.038a1.567,1.567,0,0,0,.133.2,3.558,3.558,0,0,0,.642.534c.366.23.729.468,1.1.694" transform="translate(-43.975 -63.561)" fill="#b7923d"/>
      <path id="Pfad_11480" data-name="Pfad 11480" d="M123.219,153.766a.808.808,0,0,0-.145.264c-.088.284-.163.575-.233.865-.145.578-.276,1.161-.421,1.74-.218.859-.442,1.719-.671,2.573-.2.735-.41,1.47-.622,2.2-.159.543-.337,1.081-.5,1.624a3.132,3.132,0,0,0-.186.883,2.751,2.751,0,0,0,.369-.5,11.5,11.5,0,0,0,.869-2.079c.215-.656.412-1.315.595-1.983.195-.714.369-1.435.543-2.155.122-.511.238-1.025.34-1.539.1-.537.186-1.077.273-1.617a.751.751,0,0,0,.006-.212.129.129,0,0,0-.218-.067" transform="translate(-52.849 -68.013)" fill="#b7923d"/>
      <path id="Pfad_11481" data-name="Pfad 11481" d="M121.3,125.833c-.067.006-.145-.014-.195.073.4.076.79.16,1.185.224a8.779,8.779,0,0,0,2.468.047,5.132,5.132,0,0,0,1.382-.323,2.27,2.27,0,0,0,1.487-2.39.708.708,0,0,0-.07-.235.265.265,0,0,0-.267-.171.272.272,0,0,0-.259.188,1.205,1.205,0,0,0-.061.206c-.038.171-.064.346-.108.514a1.531,1.531,0,0,1-.781,1.028,4.226,4.226,0,0,1-.624.262,7.42,7.42,0,0,1-1.481.325c-.889.1-1.783.168-2.677.252" transform="translate(-53.143 -54.445)" fill="#b7923d"/>
      <path id="Pfad_11482" data-name="Pfad 11482" d="M83.109,90.957a4.15,4.15,0,0,0-.473.134c-1.3.514-2.584,1.039-3.842,1.64a38.854,38.854,0,0,0-4.112,2.277,3.5,3.5,0,0,0-.7.56,1.838,1.838,0,0,0-.1.154.873.873,0,0,0,.444-.1c.177-.081.354-.168.522-.264a63.048,63.048,0,0,1,6.874-3.407c.427-.18.848-.375,1.269-.566a1.448,1.448,0,0,0,.268-.157A.22.22,0,0,0,83.373,91c-.163-.058-.166-.064-.264-.038" transform="translate(-32.248 -40.236)" fill="#b7923d"/>
      <path id="Pfad_11483" data-name="Pfad 11483" d="M94.664,143.044a4.521,4.521,0,0,0,1.4.709,1.486,1.486,0,0,0,.624.058c-.066-.046-.11-.084-.159-.113a8.9,8.9,0,0,1-1.275-.976c-.229-.209-.453-.421-.676-.636s-.459-.444-.691-.665a4.349,4.349,0,0,0-1.9-1,3.3,3.3,0,0,0-.674-.084,1.016,1.016,0,0,0-.514.09.253.253,0,0,0-.148.221.219.219,0,0,0,.136.221c.1.049.212.087.319.125.357.125.72.247,1.078.377a3.926,3.926,0,0,1,1.126.636c.442.354.9.691,1.348,1.036" transform="translate(-39.67 -62.089)" fill="#b7923d"/>
      <path id="Pfad_11484" data-name="Pfad 11484" d="M119.113,99.371c-.05-.07-.093-.159-.2-.189a.712.712,0,0,0-.015.093,1.277,1.277,0,0,0,.151.564c.215.433.421.874.659,1.295a26.522,26.522,0,0,0,3.258,4.467,7.8,7.8,0,0,0,.653.656,5.748,5.748,0,0,0,.546.406c.061.041.119.023.146-.075-.072-.122-.146-.259-.235-.384-.238-.325-.473-.65-.732-.958a46.985,46.985,0,0,1-3.711-5.1c-.166-.261-.34-.517-.517-.772" transform="translate(-52.164 -43.881)" fill="#b7923d"/>
      <path id="Pfad_11485" data-name="Pfad 11485" d="M132.452,115.493a.2.2,0,0,0,.255-.017,3.861,3.861,0,0,0,.337-.317,4.176,4.176,0,0,0,.581-.874,11.858,11.858,0,0,0,1.048-3.089,14.98,14.98,0,0,0,.253-2.393c0-.046-.006-.1-.011-.2-.131.346-.25.627-.346.918q-.4,1.172-.781,2.343a16.063,16.063,0,0,1-1.086,2.623c-.1.18-.18.369-.264.558a1.352,1.352,0,0,0-.067.235.191.191,0,0,0,.081.218" transform="translate(-58.123 -48.048)" fill="#b7923d"/>
      <path id="Pfad_11486" data-name="Pfad 11486" d="M84.663,94.067c-.27.1-.549.177-.813.29-1.072.464-2.134.938-3.2,1.406a13.635,13.635,0,0,0-1.925,1.054,3.3,3.3,0,0,0-.4.293,1.7,1.7,0,0,0-.224.29.135.135,0,0,0,0,.171.183.183,0,0,0,.188.081,1.3,1.3,0,0,0,.239-.072,2.818,2.818,0,0,0,.328-.174,23.842,23.842,0,0,1,2.764-1.452c.77-.348,1.542-.694,2.309-1.048.273-.128.531-.276.793-.421a1.421,1.421,0,0,0,.244-.186.184.184,0,0,0,.05-.206.348.348,0,0,0-.348-.026" transform="translate(-34.1 -41.603)" fill="#b7923d"/>
      <path id="Pfad_11487" data-name="Pfad 11487" d="M113.929,152.425a.556.556,0,0,0-.122.3c-.206,1.17-.412,2.335-.618,3.5-.079.436-.154.871-.23,1.31-.18,1.045-.363,2.091-.537,3.14-.157.946-.3,1.893-.453,2.84-.032.195-.049.389-.072.584a.1.1,0,0,1,.032.015.538.538,0,0,0,.067-.128c.209-.831.435-1.655.619-2.492.165-.755.284-1.519.421-2.279.081-.447.157-.894.235-1.342q.27-1.5.54-3.011c.119-.65.239-1.3.357-1.948.009-.038.017-.079.026-.119a.2.2,0,0,1,.2-.163c.072-.006.146.006.218,0a1.313,1.313,0,0,0,.177-.052,1.311,1.311,0,0,0-.856-.159" transform="translate(-49.067 -67.427)" fill="#b7923d"/>
      <path id="Pfad_11488" data-name="Pfad 11488" d="M125,70.4c1.466.488,2.916,1.028,4.336,1.649a12.635,12.635,0,0,1,2.706,1.478.652.652,0,0,0,.192.1.118.118,0,0,0,.163-.093.453.453,0,0,0-.113-.433,2.325,2.325,0,0,0-.384-.355,8.056,8.056,0,0,0-.822-.493c-.45-.23-.906-.451-1.368-.648a16.956,16.956,0,0,0-2.657-.923c-.642-.154-1.292-.273-1.94-.4-.241-.049-.485-.09-.729-.137-.006.015-.012.032-.017.043a1.083,1.083,0,0,0,.157.079c.157.05.319.087.476.139" transform="translate(-54.586 -31.03)" fill="#b7923d"/>
      <path id="Pfad_11489" data-name="Pfad 11489" d="M100.43,185.819c.028-.02.043-.064.072-.11a.913.913,0,0,0-.377-.043c-.72.02-1.443.046-2.163.055a5.557,5.557,0,0,1-1.35-.125,4,4,0,0,0-.677-.067c-.087-.006-.194-.017-.249.081s.02.195.081.276a2.008,2.008,0,0,0,1.882.845,6.87,6.87,0,0,0,2.347-.627,3.029,3.029,0,0,0,.436-.284" transform="translate(-41.885 -82.082)" fill="#b7923d"/>
      <path id="Pfad_11490" data-name="Pfad 11490" d="M86.406,147.96a3.459,3.459,0,0,0-.961-.558,5.24,5.24,0,0,0-1.638-.3,2.47,2.47,0,0,0-.883.133,2.2,2.2,0,0,0-1.37,1.217,1.04,1.04,0,0,0-.11.569.381.381,0,0,0,.116.247.22.22,0,0,0,.346-.032c.035-.05.064-.1.1-.157.117-.171.23-.342.351-.508a1.9,1.9,0,0,1,1.3-.758,3.711,3.711,0,0,1,.865-.012,7.051,7.051,0,0,1,1.742.415c.116.04.235.064.421.113a.975.975,0,0,0-.282-.372" transform="translate(-35.591 -65.083)" fill="#b7923d"/>
      <path id="Pfad_11491" data-name="Pfad 11491" d="M85.511,183.851a1.683,1.683,0,0,0-.273.2,2.429,2.429,0,0,1-1.475.569,13.867,13.867,0,0,1-2.225-.067c-.224-.029-.45-.055-.677-.078-.058-.009-.116,0-.174-.006-.009.021-.017.041-.026.059a.9.9,0,0,0,.128.124c.151.09.3.183.456.262a4.9,4.9,0,0,0,2.73.5,3.151,3.151,0,0,0,1.281-.43,1.64,1.64,0,0,0,.52-.476.618.618,0,0,0,.122-.435.267.267,0,0,0-.386-.218" transform="translate(-35.248 -81.329)" fill="#b7923d"/>
      <path id="Pfad_11492" data-name="Pfad 11492" d="M103.909,129.278a1.153,1.153,0,0,0,.514-.093c.163-.07.188-.188.067-.311a.894.894,0,0,0-.422-.247,6.326,6.326,0,0,0-.662-.145,12.533,12.533,0,0,0-1.478-.125,11.085,11.085,0,0,0-1.388.029,2.558,2.558,0,0,0-.778.189.471.471,0,0,0-.326.322,1.137,1.137,0,0,0,.616.159q.479.031.958.043c.72.018,1.44.055,2.158.137.247.026.493.032.74.041" transform="translate(-43.555 -56.786)" fill="#b7923d"/>
      <path id="Pfad_11493" data-name="Pfad 11493" d="M124.7,140.358a1.7,1.7,0,0,0-.7-.052,2.554,2.554,0,0,0-.825.259c-.348.177-.694.363-1.031.563a12.662,12.662,0,0,0-1.7,1.232,2.21,2.21,0,0,0-.563.691.646.646,0,0,0-.029.163c.142-.079.253-.131.36-.192.239-.145.48-.282.709-.442a14.569,14.569,0,0,1,2.655-1.394,2.847,2.847,0,0,1,1.016-.244,2.184,2.184,0,0,0,.6-.142.71.71,0,0,0-.488-.442" transform="translate(-52.584 -62.069)" fill="#b7923d"/>
      <path id="Pfad_11494" data-name="Pfad 11494" d="M74.295,122.188a.24.24,0,0,0-.2.171.651.651,0,0,0-.038.148c-.012.072-.021.145-.026.215-.049.607-.1,1.214-.142,1.821a28.045,28.045,0,0,0-.052,3.122c.017.38.064.761.11,1.139a1.064,1.064,0,0,0,.159.5.466.466,0,0,0,.125-.3c.038-.328.093-.657.1-.985.029-.889.038-1.774.055-2.66q.026-1.163.052-2.32c.006-.146.017-.29.026-.433a1.307,1.307,0,0,0,0-.186c-.012-.119-.1-.232-.177-.226" transform="translate(-32.218 -54.06)" fill="#b7923d"/>
      <path id="Pfad_11495" data-name="Pfad 11495" d="M129.243,129.853a.538.538,0,0,0-.1.154c-.046.1-.084.212-.122.319-.337.929-.627,1.876-.894,2.829a6.07,6.07,0,0,0-.232,1.118,1.316,1.316,0,0,0,.146.764c.046-.05.093-.087.13-.134a2.28,2.28,0,0,0,.389-.834c.142-.5.276-.993.421-1.486.157-.534.326-1.066.485-1.6a3.018,3.018,0,0,0,.142-.822.643.643,0,0,0-.052-.267.194.194,0,0,0-.313-.044" transform="translate(-56.143 -57.424)" fill="#b7923d"/>
      <path id="Pfad_11496" data-name="Pfad 11496" d="M131.044,79.473q-.679.144-1.359.3c-.072.017-.165.008-.226.136a1.535,1.535,0,0,0,.2.044,4.249,4.249,0,0,0,.43.006c.392-.026.781-.061,1.173-.09a8.119,8.119,0,0,0,3.563-1.127,1.551,1.551,0,0,0,.233-.151.783.783,0,0,0,.166-.215.189.189,0,0,0-.2-.284.483.483,0,0,0-.18.038,1.671,1.671,0,0,0-.224.1,14.517,14.517,0,0,1-3.581,1.24" transform="translate(-56.837 -34.551)" fill="#b7923d"/>
      <path id="Pfad_11497" data-name="Pfad 11497" d="M104,131.695a1.381,1.381,0,0,0,.366.151c.293.067.587.122.883.162a17.868,17.868,0,0,1,1.823.334c.569.134,1.144.264,1.717.4.035.006.07.008.13.014a.525.525,0,0,0-.058-.1,4.066,4.066,0,0,0-1.507-.88,8.939,8.939,0,0,0-1.78-.392c-.3-.037-.616-.046-.923-.061a1.382,1.382,0,0,0-.631.128.139.139,0,0,0-.02.25" transform="translate(-45.543 -58.098)" fill="#b7923d"/>
      <path id="Pfad_11498" data-name="Pfad 11498" d="M81.533,124.174a.252.252,0,0,0-.177-.4.542.542,0,0,0-.331.052,6.569,6.569,0,0,0-.631.328,11.322,11.322,0,0,0-1.536,1.193,1.832,1.832,0,0,0-.4.509,1.946,1.946,0,0,0-.088.221c-.023.25.139.371.337.3a.919.919,0,0,0,.159-.09c.137-.1.267-.195.4-.3q.744-.579,1.484-1.164c.218-.171.435-.348.651-.523a.673.673,0,0,0,.13-.13" transform="translate(-34.235 -54.76)" fill="#b7923d"/>
      <path id="Pfad_11499" data-name="Pfad 11499" d="M82.475,72.287A18.317,18.317,0,0,1,79.65,71.2a4.588,4.588,0,0,0-.427-.177A1.48,1.48,0,0,0,78.985,71a1.231,1.231,0,0,0,.064.163,1.417,1.417,0,0,0,.439.383,9.675,9.675,0,0,0,2.37,1.045,21.956,21.956,0,0,0,2.154.555,6.178,6.178,0,0,0,1.1.151c.05,0,.1.012.131-.075-.081-.035-.16-.076-.244-.1q-1.255-.444-2.526-.825" transform="translate(-34.506 -31.41)" fill="#b7923d"/>
      <path id="Pfad_11500" data-name="Pfad 11500" d="M106.606,142.228a3.559,3.559,0,0,0,.587.02,2.5,2.5,0,0,0,1.165-.374,5.288,5.288,0,0,0,1.368-1.281.074.074,0,0,0,.014-.029c.017-.032-.017-.093-.055-.09a.517.517,0,0,0-.148.032c-.276.139-.555.273-.825.424-.2.108-.386.238-.578.357a3.042,3.042,0,0,1-1.188.415,8.882,8.882,0,0,1-1.669.035c-.442-.023-.883-.05-1.328-.076a.131.131,0,0,1-.006.032c.116.037.233.081.351.11a17.908,17.908,0,0,0,2.312.424" transform="translate(-45.548 -62.15)" fill="#b7923d"/>
      <path id="Pfad_11501" data-name="Pfad 11501" d="M78.616,135.708a1.926,1.926,0,0,0-.462-.166c-.476-.087-.956-.159-1.437-.235a4.241,4.241,0,0,1-.865-.229.359.359,0,0,1-.232-.189.187.187,0,0,0-.233-.107.2.2,0,0,0-.151.177.649.649,0,0,0,.287.7,1.576,1.576,0,0,0,.622.267c.293.061.59.114,1,.192.27.017.659.046,1.051.064a1.3,1.3,0,0,0,.366-.05c.1-.026.212-.075.227-.188s-.088-.189-.177-.233" transform="translate(-32.839 -59.629)" fill="#b7923d"/>
      <path id="Pfad_11502" data-name="Pfad 11502" d="M90.722,67.4c.331,0,.658-.006.987-.009a3.84,3.84,0,0,0-.956-.226,18.731,18.731,0,0,0-1.978-.13,19.835,19.835,0,0,0-2.567.081,9.063,9.063,0,0,0-2.12.418,1.1,1.1,0,0,0-.2.081c-.029.014-.041.059-.055.088.087.081.171.037.247.023a25.567,25.567,0,0,1,2.741-.284c1.3-.07,2.6-.046,3.9-.041" transform="translate(-36.651 -29.652)" fill="#b7923d"/>
      <path id="Pfad_11503" data-name="Pfad 11503" d="M83.593,139.646a1.01,1.01,0,0,0,.284.729,3.838,3.838,0,0,0,1.5,1.069,5.511,5.511,0,0,0,.827.244,14.07,14.07,0,0,0,2.492.264.546.546,0,0,0,.142-.058c-.108-.026-.168-.041-.226-.058-.261-.061-.526-.116-.781-.192q-.95-.278-1.9-.572a3.186,3.186,0,0,1-.95-.441,15.282,15.282,0,0,1-1.348-1.089.437.437,0,0,0-.041.1" transform="translate(-36.545 -61.738)" fill="#b7923d"/>
      <path id="Pfad_11504" data-name="Pfad 11504" d="M123,101.425a.191.191,0,0,0-.224-.058.2.2,0,0,0-.093.212.739.739,0,0,0,.052.177c.043.093.09.186.142.273a22.766,22.766,0,0,0,2.82,3.79c.084.093.174.177.261.264l.05-.032a1.019,1.019,0,0,0-.067-.16c-.183-.311-.357-.627-.558-.929q-1.106-1.677-2.23-3.345a1.869,1.869,0,0,0-.154-.192" transform="translate(-53.839 -44.841)" fill="#b7923d"/>
      <path id="Pfad_11505" data-name="Pfad 11505" d="M81.739,181.493a2.438,2.438,0,0,0-.346.3c-.139.137.012.366.16.375a1.43,1.43,0,0,0,.479-.1c.627-.262,1.257-.52,1.879-.787a1.947,1.947,0,0,0,.392-.244,1.026,1.026,0,0,0,.186-.241.207.207,0,0,0-.02-.232.182.182,0,0,0-.215-.081,3.951,3.951,0,0,0-.412.125c-.575.226-1.144.462-1.716.7a2.091,2.091,0,0,0-.386.195" transform="translate(-35.547 -79.845)" fill="#b7923d"/>
      <path id="Pfad_11506" data-name="Pfad 11506" d="M110.7,80.2a1.462,1.462,0,0,0,.526.25,8.807,8.807,0,0,0,2.239.27,3.152,3.152,0,0,0,1.278-.337.129.129,0,0,0,.014-.241.555.555,0,0,0-.229-.076,1.13,1.13,0,0,0-.308.023,5.265,5.265,0,0,1-1.417.05c-.63-.047-1.257-.067-1.888-.1-.093,0-.183.012-.337.023a1.39,1.39,0,0,0,.122.134" transform="translate(-48.484 -35.415)" fill="#b7923d"/>
      <path id="Pfad_11507" data-name="Pfad 11507" d="M125.869,132.161a.734.734,0,0,0-.075-.36.26.26,0,0,0-.276-.151.242.242,0,0,0-.226.18,2.439,2.439,0,0,0-.093.357,3.354,3.354,0,0,1-.285.845c-.119.25-.235.5-.34.758a3,3,0,0,0-.267,1,2.569,2.569,0,0,0,.526-.406,4.579,4.579,0,0,0,.883-1.437,2.475,2.475,0,0,0,.154-.781" transform="translate(-54.558 -58.245)" fill="#b7923d"/>
      <path id="Pfad_11508" data-name="Pfad 11508" d="M120.456,149.716c.273.094.555.166.822.279a2.17,2.17,0,0,0,1.243.123c.11-.018.209-.05.233-.168a.227.227,0,0,0-.16-.241,2.174,2.174,0,0,0-.435-.154,8.518,8.518,0,0,1-.955-.26,2.136,2.136,0,0,0-2.152.383c-.035.028-.064.066-.133.139a1.843,1.843,0,0,0,.2-.026c.171-.035.343-.073.514-.107a1.551,1.551,0,0,1,.825.034" transform="translate(-52.173 -65.991)" fill="#b7923d"/>
      <path id="Pfad_11509" data-name="Pfad 11509" d="M104.745,94.761c.717-.145,1.435-.288,2.149-.45a3.186,3.186,0,0,0,.572-.224.3.3,0,0,0,.192-.2.391.391,0,0,0-.354-.125,3.588,3.588,0,0,0-.555.046c-.607.117-1.211.247-1.818.372a1.9,1.9,0,0,0-.575.226.823.823,0,0,0-.319.3.65.65,0,0,0,.125.047,1.421,1.421,0,0,0,.584.006" transform="translate(-45.59 -41.482)" fill="#b7923d"/>
      <path id="Pfad_11510" data-name="Pfad 11510" d="M92.558,136.48a.814.814,0,0,0,.43-.159c.253-.192.511-.384.746-.6a1.773,1.773,0,0,0,.566-1.06c-.183.107-.322.191-.464.267a8.286,8.286,0,0,0-1.159.767,3.6,3.6,0,0,0-.375.363.254.254,0,0,0-.064.284.3.3,0,0,0,.319.137" transform="translate(-40.361 -59.579)" fill="#b7923d"/>
      <path id="Pfad_11511" data-name="Pfad 11511" d="M77.665,124.5a.675.675,0,0,0,.174-.055,1.273,1.273,0,0,0,.209-.13q.81-.645,1.612-1.3a.885.885,0,0,0,.186-.2.661.661,0,0,0,.076-.166c.012-.142-.1-.235-.2-.192a1.633,1.633,0,0,0-.378.2c-.5.383-.987.776-1.475,1.17a1.37,1.37,0,0,0-.247.273.846.846,0,0,0-.1.253.121.121,0,0,0,.148.145" transform="translate(-33.855 -54.175)" fill="#b7923d"/>
      <path id="Pfad_11512" data-name="Pfad 11512" d="M73.965,145.016a2.14,2.14,0,0,0,.395.163,2.531,2.531,0,0,0,.334.066.76.76,0,0,1,.07.177c.035.235.072.468.09.7.02.275.02.554.035.9a5.347,5.347,0,0,0,.453-1.379.992.992,0,0,0-.055-.633.573.573,0,0,0-.34-.337,2.154,2.154,0,0,0-1.008-.035.153.153,0,0,0-.108.218.384.384,0,0,0,.134.159" transform="translate(-32.219 -63.974)" fill="#b7923d"/>
      <path id="Pfad_11513" data-name="Pfad 11513" d="M121.161,72.64a.839.839,0,0,0,.2.145.162.162,0,0,0,.2,0,.372.372,0,0,0-.1-.447,5.745,5.745,0,0,0-1.014-.856,7.973,7.973,0,0,0-1.894-.895c-.035-.008-.072-.011-.139-.026a.384.384,0,0,0,.166.174c.342.23.687.456,1.028.685a10.954,10.954,0,0,1,1.551,1.223" transform="translate(-51.952 -31.217)" fill="#b7923d"/>
      <path id="Pfad_11514" data-name="Pfad 11514" d="M86.317,136.756a2.272,2.272,0,0,0,1.072.043,2.7,2.7,0,0,0,1.292-.555,5.4,5.4,0,0,0-1.9-.037,3.034,3.034,0,0,0-.473.142c-.113.035-.217.1-.212.229s.122.146.224.177" transform="translate(-37.651 -60.232)" fill="#b7923d"/>
      <path id="Pfad_11515" data-name="Pfad 11515" d="M91.644,150.329a.193.193,0,0,0,.224-.05.346.346,0,0,0,.041-.049,1.06,1.06,0,0,0,.174-.764,2.21,2.21,0,0,0-.273-.749,3.4,3.4,0,0,0-1.025-1.092.272.272,0,0,0-.008.061c.015.026.032.052.046.079a4.573,4.573,0,0,1,.711,2.393.169.169,0,0,0,.11.171" transform="translate(-39.722 -65.314)" fill="#b7923d"/>
      <path id="Pfad_11516" data-name="Pfad 11516" d="M69.628,176.216c-.006-.035-.006-.084-.081-.1-.012.064-.029.128-.035.191q-.057.771-.108,1.542c-.026.389-.052.778-.079,1.17a.628.628,0,0,0,.1.413.172.172,0,0,0,.3-.009,1,1,0,0,0,.1-.322,5.663,5.663,0,0,0,.043-.74c-.023-.72-.157-1.429-.241-2.143" transform="translate(-30.232 -77.919)" fill="#b7923d"/>
      <path id="Pfad_11517" data-name="Pfad 11517" d="M76.911,73.13a16.223,16.223,0,0,0-1.437,1.077,1.09,1.09,0,0,0-.3.386.559.559,0,0,0-.017.148.966.966,0,0,0,.517-.148A6.956,6.956,0,0,0,77.2,73.4a1.424,1.424,0,0,0,.183-.247.185.185,0,0,0-.029-.25,1.508,1.508,0,0,0-.447.224" transform="translate(-32.81 -32.256)" fill="#b7923d"/>
      <path id="Pfad_11518" data-name="Pfad 11518" d="M105.976,80.016a4.247,4.247,0,0,0,.493-.173c.514-.235,1.025-.48,1.537-.723a2.2,2.2,0,0,0,.325-.177.9.9,0,0,0,.192-.2c.049-.064,0-.142-.079-.16a.575.575,0,0,0-.386.067c-.511.244-1.025.485-1.536.729a2.636,2.636,0,0,0-.575.415.266.266,0,0,0-.119.22.6.6,0,0,0,.148,0" transform="translate(-46.382 -34.764)" fill="#b7923d"/>
      <path id="Pfad_11519" data-name="Pfad 11519" d="M95.039,77.452c-.09.1-.1.238-.035.279.087.052.154-.012.226-.05.017-.011.035-.023.052-.032a5.094,5.094,0,0,1,1.638-.616c.192-.038.383-.075.572-.116a.435.435,0,0,0,.145-.052.1.1,0,0,0,.038-.075c-.006-.035-.026-.088-.052-.1a1.238,1.238,0,0,0-.2-.055,1.708,1.708,0,0,0-.189-.011,3.663,3.663,0,0,0-1.922.578,1.231,1.231,0,0,0-.27.25" transform="translate(-41.575 -33.901)" fill="#b7923d"/>
      <path id="Pfad_11520" data-name="Pfad 11520" d="M94.291,75.524a.509.509,0,0,0,.087-.13.231.231,0,0,0-.2-.259,1.053,1.053,0,0,0-.3.035c-.346.1-.691.206-1.034.319a1.267,1.267,0,0,0-.3.148.837.837,0,0,0-.195.195.175.175,0,0,0-.02.2.171.171,0,0,0,.186.078,1.389,1.389,0,0,0,.241-.055c.459-.151.917-.3,1.376-.456a.447.447,0,0,0,.163-.079" transform="translate(-40.398 -33.242)" fill="#b7923d"/>
      <path id="Pfad_11521" data-name="Pfad 11521" d="M122.131,82.548a3.842,3.842,0,0,0,1.737-.834.475.475,0,0,0,.174-.282c.023-.1-.058-.192-.157-.157a1.929,1.929,0,0,0-.311.137c-.34.191-.682.383-1.02.578-.18.1-.357.2-.534.314a.361.361,0,0,0-.2.232.527.527,0,0,0,.125.026.963.963,0,0,0,.183-.014" transform="translate(-53.459 -35.956)" fill="#b7923d"/>
      <path id="Pfad_11522" data-name="Pfad 11522" d="M108.771,168.616c.058-.218.11-.438.163-.659.116-.514.238-1.025.348-1.539.13-.613.255-1.231.38-1.847a1.3,1.3,0,0,0,.02-.215.128.128,0,0,0-.113-.125.15.15,0,0,0-.18.081,1.3,1.3,0,0,0-.046.212c-.113.764-.218,1.531-.334,2.294-.1.63-.209,1.26-.317,1.891l0,0c.026-.029.066-.055.075-.09" transform="translate(-47.65 -72.659)" fill="#b7923d"/>
      <path id="Pfad_11523" data-name="Pfad 11523" d="M80.5,180.069a.877.877,0,0,0,.166-.081q.88-.549,1.76-1.1a2.39,2.39,0,0,0,.209-.168.406.406,0,0,0-.4.026c-.47.212-.941.424-1.408.645a3.415,3.415,0,0,0-.4.235.631.631,0,0,0-.157.148.214.214,0,0,0-.023.232.238.238,0,0,0,.253.067" transform="translate(-35.054 -79.051)" fill="#b7923d"/>
      <path id="Pfad_11524" data-name="Pfad 11524" d="M122.29,80.535a.15.15,0,0,0-.014-.139.158.158,0,0,0-.13-.052,1.142,1.142,0,0,0-.288.108c-.331.186-.659.377-.985.572a2.768,2.768,0,0,0-.348.255.325.325,0,0,0-.093.151.121.121,0,0,0,.043.1c.017.021.055.021.116.038a1.257,1.257,0,0,0,.212-.043,4.446,4.446,0,0,0,1.281-.726,1.06,1.06,0,0,0,.206-.261" transform="translate(-52.843 -35.546)" fill="#b7923d"/>
      <path id="Pfad_11525" data-name="Pfad 11525" d="M86.148,77.276a5.224,5.224,0,0,0-1.377.34.369.369,0,0,0-.162.137.211.211,0,0,0,.107.346.745.745,0,0,0,.276.023,2.117,2.117,0,0,0,.738-.224,2.818,2.818,0,0,0,.395-.293.289.289,0,0,0,.1-.294c-.035-.017-.055-.035-.072-.035" transform="translate(-36.971 -34.189)" fill="#b7923d"/>
      <path id="Pfad_11526" data-name="Pfad 11526" d="M141.01,88.3c.081.122.125.2.18.273.174.229.354.453.534.679.11.137.221.27.334.4.047.052.1.113.195.088.041-.175.081-.352.119-.529-.288-.343-.564-.671-.842-1-.171.026-.319.052-.52.084" transform="translate(-61.948 -39.031)" fill="#b7923d"/>
      <path id="Pfad_11527" data-name="Pfad 11527" d="M107.741,92.185a.662.662,0,0,0-.241-.02,3.3,3.3,0,0,0-1.357.386c-.078.043-.151.1-.284.186a1.258,1.258,0,0,0,.522.072,4,4,0,0,0,1.3-.351.276.276,0,0,0,.1-.064c.026-.029.055-.079.046-.1a.164.164,0,0,0-.1-.1" transform="translate(-46.396 -40.775)" fill="#b7923d"/>
      <path id="Pfad_11528" data-name="Pfad 11528" d="M91.251,187.386c0-.409-.009-.819-.014-1.228,0-.046-.014-.09-.02-.137a.55.55,0,0,1-.067.006c-.009.09-.023.183-.032.273a6.843,6.843,0,0,1-.258,1.452.915.915,0,0,0-.035.151.386.386,0,0,0,.183.395.263.263,0,0,0,.34-.017.212.212,0,0,0,.044-.3,1.141,1.141,0,0,1-.139-.592" transform="translate(-39.742 -82.302)" fill="#b7923d"/>
      <path id="Pfad_11529" data-name="Pfad 11529" d="M94.347,151.328l.3.035c-.119-.151-.151-.284-.293-.363a.554.554,0,0,0-.012.328" transform="translate(-41.293 -66.807)" fill="#b7923d"/>
      <path id="Pfad_11530" data-name="Pfad 11530" d="M108.667,172.391l0,0c0-.043.009-.09.015-.133v0c-.006.041-.012.084-.017.128" transform="translate(-47.638 -76.214)" fill="#b7923d"/>
      <path id="Pfad_11531" data-name="Pfad 11531" d="M93.882,118.943a.018.018,0,0,0-.012,0l.032.009c-.008,0-.011-.009-.02-.012" transform="translate(-41.092 -52.624)" fill="#b7923d"/>
      <path id="Pfad_11532" data-name="Pfad 11532" d="M93.861,118.946a.011.011,0,0,0-.009,0l0,.006a.018.018,0,0,1,.012,0" transform="translate(-41.083 -52.624)" fill="#b7923d"/>
      <path id="Pfad_11533" data-name="Pfad 11533" d="M122.162,31.468c.177-.529.354-1.054.526-1.586q.436-1.35.868-2.706c.363-1.15.723-2.3,1.089-3.45.148-.462.3-.921.462-1.377a.489.489,0,0,0,.035-.3.2.2,0,0,0-.2-.157.289.289,0,0,0-.279.166,5.946,5.946,0,0,0-.3.6c-.215.558-.427,1.118-.616,1.684a31.608,31.608,0,0,0-1.252,4.78c-.072.438-.168.871-.241,1.307-.064.375-.113.752-.168,1.135.075-.014.072-.061.084-.1" transform="translate(-53.572 -9.685)" fill="#b7923d"/>
      <path id="Pfad_11534" data-name="Pfad 11534" d="M114.536,64.881a.316.316,0,0,0,.395-.075,1.25,1.25,0,0,0,.16-.262c.119-.261.241-.523.348-.79a24.167,24.167,0,0,0,.894-2.822,6.871,6.871,0,0,0,.2-1.653.847.847,0,0,0-.043-.174c-.148.389-.282.732-.409,1.08-.505,1.382-1.019,2.759-1.626,4.1a1.6,1.6,0,0,0-.087.233.326.326,0,0,0,.168.363" transform="translate(-50.156 -26.15)" fill="#b7923d"/>
      <path id="Pfad_11535" data-name="Pfad 11535" d="M116.939,52.992a.8.8,0,0,0,.421-.07,4.044,4.044,0,0,0,1.321-.848,1.3,1.3,0,0,0,.233-.325.272.272,0,0,0-.047-.343.276.276,0,0,0-.313-.061,1.509,1.509,0,0,0-.3.157c-.322.221-.647.444-.961.68a2.448,2.448,0,0,0-.369.372.612.612,0,0,0-.113.246c-.035.119.011.18.13.192" transform="translate(-51.236 -22.706)" fill="#b7923d"/>
      <path id="Pfad_11536" data-name="Pfad 11536" d="M119.411,48.8a.513.513,0,0,0,.087-.087.228.228,0,0,0,.006-.308.246.246,0,0,0-.311-.035.668.668,0,0,0-.139.119,5.147,5.147,0,0,1-.65.607,1.907,1.907,0,0,0-.377.447,1.109,1.109,0,0,0,.587-.168c.273-.183.534-.38.8-.575" transform="translate(-51.779 -21.382)" fill="#b7923d"/>
    </g>
  </g>
</svg>
