<svg xmlns="http://www.w3.org/2000/svg" xmlns:xlink="http://www.w3.org/1999/xlink" width="79" height="80" viewBox="0 0 79 80">
  <defs>
    <clipPath id="clip-path">
      <rect id="Rechteck_2093" data-name="Rechteck 2093" width="38.908" height="52.734" fill="#707070"/>
    </clipPath>
  </defs>
  <g id="Gruppe_4096" data-name="Gruppe 4096" transform="translate(-0.228)">
    <ellipse id="Ellipse_4" data-name="Ellipse 4" cx="39.5" cy="40" rx="39.5" ry="40" transform="translate(0.228)" fill="#b1c7b5"/>
    <g id="Gruppe_3846" data-name="Gruppe 3846" transform="translate(20.316 13.516)">
      <g id="Gruppe_3845" data-name="Gruppe 3845" clip-path="url(#clip-path)">
        <path id="Pfad_6023" data-name="Pfad 6023" d="M41.713,31.7a7.657,7.657,0,0,0-3.47-14.459H29.784a.85.85,0,0,0,0,1.7h8.458a5.954,5.954,0,0,1,0,11.908H15.4a.851.851,0,0,0,0,1.7H38.242a5.953,5.953,0,0,1,0,11.906H26.4a.811.811,0,0,0-.218.032c-.209-.014-.417-.032-.63-.032h-11a.851.851,0,0,0,0,1.7h11a7.644,7.644,0,0,1,7.614,7.655v6.805a.846.846,0,1,0,1.692,0V53.81a9.362,9.362,0,0,0-3.971-7.655h7.354A7.657,7.657,0,0,0,41.713,31.7" transform="translate(-6.945 -8.731)" fill="#707070"/>
        <path id="Pfad_6024" data-name="Pfad 6024" d="M16.917,42.528H7.612a5.954,5.954,0,0,1,0-11.908H31.3a.85.85,0,0,0,0-1.7H7.612a5.954,5.954,0,0,1,0-11.908H19.456a.826.826,0,0,0,.216-.032c.208.014.416.032.628.032h11a.851.851,0,0,0,0-1.7h-11a7.644,7.644,0,0,1-7.614-7.655V.852a.846.846,0,1,0-1.691,0v6.8a9.362,9.362,0,0,0,3.971,7.655H7.612A7.657,7.657,0,0,0,4.143,29.77,7.657,7.657,0,0,0,7.612,44.23h9.305a2.546,2.546,0,0,1,2.539,2.551v5.1a.846.846,0,1,0,1.692,0v-5.1a4.246,4.246,0,0,0-4.231-4.253" transform="translate(0 0)" fill="#707070"/>
      </g>
    </g>
  </g>
</svg>
