<svg xmlns="http://www.w3.org/2000/svg" width="22.709" height="22.709" viewBox="0 0 22.709 22.709">
  <g id="Gruppe_8744" data-name="Gruppe 8744" transform="translate(16849 22295)">
    <path id="Pfad_12256" data-name="Pfad 12256" d="M2.413,0H20.3a2.413,2.413,0,0,1,2.413,2.413V20.3A2.413,2.413,0,0,1,20.3,22.709H2.413A2.413,2.413,0,0,1,0,20.3V2.413A2.413,2.413,0,0,1,2.413,0Z" transform="translate(-16849 -22295)" fill="#707070"/>
    <path id="Pfad_12255" data-name="Pfad 12255" d="M24.052,6.35V3.707l0,0A3.654,3.654,0,0,1,22.026,3.1,3.7,3.7,0,0,1,20.395.671a3.641,3.641,0,0,1-.056-.64q0-.015,0-.031H17.676V10.569A2.256,2.256,0,1,1,16.1,8.416V5.7a4.917,4.917,0,1,0,4.242,4.872V5.163a6.343,6.343,0,0,0,3.7,1.187Z" transform="translate(-16854.926 -22290.791)" fill="#fff"/>
  </g>
</svg>
