<svg xmlns="http://www.w3.org/2000/svg" xmlns:xlink="http://www.w3.org/1999/xlink" width="117" height="117" viewBox="0 0 117 117">
  <defs>
    <clipPath id="clip-path">
      <rect id="Rechteck_2257" data-name="Rechteck 2257" width="117" height="117" transform="translate(0 0.438)" fill="none"/>
    </clipPath>
  </defs>
  <g id="Gruppe_4079" data-name="Gruppe 4079" transform="translate(0 -0.438)">
    <g id="Gruppe_4078" data-name="Gruppe 4078" clip-path="url(#clip-path)">
      <path id="Pfad_11389" data-name="Pfad 11389" d="M58.823,117.647a58.823,58.823,0,1,1,58.823-58.823,58.924,58.924,0,0,1-58.823,58.823m0-114.014a55.192,55.192,0,1,0,55.194,55.19A55.168,55.168,0,0,0,58.823,3.633" fill="#b7923d"/>
      <path id="Pfad_11390" data-name="Pfad 11390" d="M106.132,186.084c-.624.247-1.255.471-1.9.659a30.9,30.9,0,0,1-3.9.9c-.328.061-.656.113-.99.154l-.99.142a54.678,54.678,0,0,1-10.01.313,31.029,31.029,0,0,1-7.867-1.3c-.319-.093-.621-.232-.935-.346-.3-.133-.609-.267-.9-.421-.145-.081-.3-.157-.438-.241l-.418-.276a2.874,2.874,0,0,1-.729-.677c2.364,4.246,15.58,5.158,23.423,3.36a25.115,25.115,0,0,0,3.912-1.179,18.789,18.789,0,0,0,1.856-.854,9.324,9.324,0,0,0,1.693-1.121,7.423,7.423,0,0,1-.883.485c-.3.145-.61.279-.921.4" transform="translate(-34.09 -81.845)" fill="#b7923d"/>
      <path id="Pfad_11391" data-name="Pfad 11391" d="M104.9,43.041A11.908,11.908,0,0,1,99.821,45.1a4.757,4.757,0,0,1-1.977.226c-.415-.142-.718-.593-1.086-.828-.384-.241-.807-.409-1.208-.616-.009,0-.122-.07-.267-.139,7.91.95,14.293-5.921,13.742-11.389-.392-3.909-2.437-8.259-6.008-10.19,1.263-.328,3.67,2.713,4.06,3.244a12.794,12.794,0,0,1,2.25,11.285,12.41,12.41,0,0,1-4.423,6.346m-1.531,5.122.285-2.576c.493.689,2.4,1.437-.285,2.576M98.721,102.4c-5.9,4.446-19.66,4.455-27.048,2.474a18.157,18.157,0,0,1-2.079-.676c-.029-.288-.07-.694-.122-1.208,4.661,2.8,15.4,2.835,21.437,1.8a20.337,20.337,0,0,0,5.66-1.682A5.005,5.005,0,0,0,98.085,102a1.832,1.832,0,0,0,.357-.627,1.159,1.159,0,0,0,.026-.566,1.244,1.244,0,0,0-.325-.581A1.213,1.213,0,0,0,98,100.1a1.683,1.683,0,0,1,.1.166,1.282,1.282,0,0,1,.162.566.634.634,0,0,1-.026.206.846.846,0,0,1-.075.218,1.536,1.536,0,0,1-.363.438,5.437,5.437,0,0,1-1.464.787c-6.546,2.677-20.354,2.326-26.119-.143a5.413,5.413,0,0,1-.851-.453c-.061-.569-.128-1.214-.2-1.925.029-.029.058-.055.087-.081a6.657,6.657,0,0,1,.906-.639c.247-.148.427-.244.543-.308l.168-.1-.145.023a4.727,4.727,0,0,0-.506.122,5.358,5.358,0,0,0-1.109.456c-1.22-11.694-4.193-39.64-5.431-49.957,10.461,3.682,30.024,3.212,38.318.093-1.812,19.018-3.935,42.843-3.737,45.146l5.027-45.706c1.464-.749,2.622-1.856,1.306-2.843-.151-.108-.877-.549-.929-.581a10.013,10.013,0,0,0,1.931-1c-1.115,9.284-5.86,48.834-6.868,57.813m1.272,3.865a8.636,8.636,0,0,1,.375,3.261,5.443,5.443,0,0,1-1.313,2.887,8.922,8.922,0,0,1-2.645,1.966,21.659,21.659,0,0,1-6.554,1.888c-4.859.7-14.86.842-20.212-1.94-3.865-2.039-4.309-4.664-3.438-8.1.209-.781.418-1.8.7-2.567,2.892,2.6,11.456,3.72,15.67,3.72,6.217,0,12.827-1.475,16.611-4.132.348.915.56,2.074.81,3.014M60.141,44.772a9.474,9.474,0,0,0,1.257.671c.177.079.36.154.543.229l.313,2.71a.078.078,0,0,0-.02-.006c-1.925-.859-.7-1.829-.694-1.861-.723.389-.941,1.353.465,2.221.093.058.2.113.308.171l5.921,51.259a1.608,1.608,0,0,0-.229.438,1.322,1.322,0,0,0-.041.677,1.743,1.743,0,0,0,.284.65,2.713,2.713,0,0,0,.221.285l.18,1.545a3.072,3.072,0,0,1-1.426-1.217c-1.833-14.331-6.209-49.028-7.083-57.772m.485-3.212a8.142,8.142,0,0,1,2.091-.8A48.4,48.4,0,0,1,71.2,39.376a2.211,2.211,0,0,0,.241.865,29.979,29.979,0,0,0-4.725.668,20,20,0,0,0-4.356,1.507,36.65,36.65,0,0,1,4.449-1.034,47.27,47.27,0,0,1,4.963-.549,8.079,8.079,0,0,0,.752.941,2.7,2.7,0,0,0-.95-.319,1.334,1.334,0,0,0-.616.093,2.607,2.607,0,0,0-.459.244c-.255.168-.491.331-.709.493a13.452,13.452,0,0,0-1.887,1.684c-.026.026-.046.052-.07.079-.363.081-.723.166-1.083.261a25.27,25.27,0,0,0-2.454.778c-.914-.244-6.325-1.849-3.673-3.528m9.223-7.306c.276.1.54.235.807.36a4.012,4.012,0,0,1-.8-1.652c-.041-.206-.337-1.13.1-1.072a.63.63,0,0,1,.3.177.4.4,0,0,0,.3.131c-.171-.476-.284-.994-.5-1.455a3.691,3.691,0,0,1-.476-1.15c.1-.014,1.31-.061,1.342.119a11.707,11.707,0,0,0,.325,1.426c.151.784.288,1.571.424,2.364.238,1.377.4,2.756.61,4.135.067.418.2.819.282,1.234s.041,1.734.334,2.033a5.075,5.075,0,0,1-.981-1.388c.464.072.555-.317.311-.465a3.789,3.789,0,0,1-.877-.694v-.012a.019.019,0,0,0-.012,0c-.319.023-.558-1.069-.624-1.272.328.142.659.282.987.424-.5-.566-2.428-2.332-1.856-3.247m.956-7.582c-.014-.043-.026-.09-.041-.13a3.9,3.9,0,0,1,2.442-1.417,8.978,8.978,0,0,1,.389.982,7.363,7.363,0,0,1-2.657.938c-.041-.125-.087-.25-.133-.372M70.2,25.053a2.833,2.833,0,0,1,2.027-1.516,7.578,7.578,0,0,1,.685,1.016,4.249,4.249,0,0,0-2.37,1.319,7.929,7.929,0,0,0-.343-.819m-.389-.555a3.264,3.264,0,0,0-.752-.493c.175-.86.482-1.78,1.446-1.966a.244.244,0,0,0,.052-.021,6.855,6.855,0,0,1,1.211.991A3.4,3.4,0,0,0,69.808,24.5m-6.929-2.067-.087-.014a37.917,37.917,0,0,0-6.1-.9,1.013,1.013,0,0,1-.264-.206,1.238,1.238,0,0,1-.221-1.591,1.067,1.067,0,0,1,1.077-.482c2.41.371,10.4,1.626,11.941,2.14a5.445,5.445,0,0,1,.6.244,2.967,2.967,0,0,0-1.348,2.134,29.842,29.842,0,0,0-5.6-1.321M74,27.847a5.187,5.187,0,0,1-2.646.807c-.072-.343-.148-.686-.241-1.02a7.791,7.791,0,0,0,2.657-.917A10.416,10.416,0,0,1,74,27.847m.317,1.937v0a4,4,0,0,1-2.614.392c-.07-.314-.139-.618-.212-.918a5.746,5.746,0,0,0,2.614-.761c.064.389.136.819.212,1.284m2.521,14.284c-.058.064.029-.029-.259.238-.493-.392-1.037-.758-1.568-1.1-.653-4.007-1.124-6.534-1.464-8.05-.172-.776-.3-1.287-.389-1.606s-.128-.451-.128-.451.006.531.177,2.088c.168,1.461.451,3.833,1.043,7.533-.1-.061-.209-.122-.317-.186-.2-1.307-1.083-7.057-2.094-11.735a4.712,4.712,0,0,0,2.6-.319c.84,4.96,2.271,12.868,2.4,13.591M75.085,29.924a.276.276,0,0,1,.1-.052,1.892,1.892,0,0,1,.793.526,5.688,5.688,0,0,1,.032-.584c.006-.055.021-.122.07-.146a.171.171,0,0,1,.134.014,6.519,6.519,0,0,1,2.872,2.631c.072-.279.148-.555.221-.831.366.3.854.52,1.185.854a5.467,5.467,0,0,1,.819,1.536,1.388,1.388,0,0,1,.151-.549.183.183,0,0,1,.088-.093.192.192,0,0,1,.168.043A3.511,3.511,0,0,1,82.807,34.5a.223.223,0,0,0,.157.128.291.291,0,0,0,.3.175.337.337,0,0,0,.055.058,6.836,6.836,0,0,0-.967,2.076c-.914-.108-.723,1.435-.921,2.059a.351.351,0,0,1-.037.075c-.032-.043-.067-.087-.1-.128a.351.351,0,0,0,.037-.113,9.717,9.717,0,0,0-1.072-4.815,9.375,9.375,0,0,0-.688-1.118l-.279-.36s.072.137.209.4.319.656.52,1.182A11.853,11.853,0,0,1,80.8,38.3c-.1-.122-.195-.247-.3-.366q-.636-.762-1.324-1.481a7.143,7.143,0,0,0-2.239-4.405,6.707,6.707,0,0,0-1.539-1.06,8.368,8.368,0,0,1,1.353,1.24,8.123,8.123,0,0,1,1.179,1.792,7.669,7.669,0,0,1,.6,1.771,28.427,28.427,0,0,0-2.985-2.556q-.218-1.255-.433-2.509c-.044-.244-.218-.642-.023-.8m8.471,5.4c.02.011.041.026.058.037a2.486,2.486,0,0,1,.435.36,14,14,0,0,1,.86-1.652,3.737,3.737,0,0,1,1.321-.947,4.349,4.349,0,0,1,.27.578c-.009-.023,1.008-1.336,1.121-1.437a6.166,6.166,0,0,1,1.624-.8,2.038,2.038,0,0,0,.316.694c.163-.139,2.161-1.76,2.076-1.121a.228.228,0,0,0,0,.043c-.014.009-.029.014-.043.023a.085.085,0,0,0,.067.154.1.1,0,0,0,.029-.006.225.225,0,0,0,.334.081,5.115,5.115,0,0,1,.488-.308c.415-.154.828-.34,1.252-.47.061-.012.119-.023.18-.032a2.917,2.917,0,0,1,.2.785c0,.046,0,.093,0,.139a.986.986,0,0,1-.337.7c-.186.174.064.511.279.357.043-.029.084-.061.128-.093-.017.1-.041.2-.049.311a1.418,1.418,0,0,1-.175.319c-.29.384-.746.485-1.048.761a5.663,5.663,0,0,0-.442.366c-.395.453-.609,1.008-1.072,1.452a3.671,3.671,0,0,0-.609.871c-.038.064-.081.125-.122.188a10.621,10.621,0,0,1-2.187.113c1.362-1.809,2.817-3.557,4.321-5.268a46.5,46.5,0,0,0-3.953,4.144,26.8,26.8,0,0,1,.543-3.345,9.528,9.528,0,0,0-1.132,3.938l.1.006c-.676.836-1.327,1.7-1.943,2.573a.389.389,0,0,1,.026-.046,9.819,9.819,0,0,1,.075-3.369,12.675,12.675,0,0,1,.372-1.382,6.78,6.78,0,0,0-.622,1.315,7.717,7.717,0,0,0-.267,4.06l.026-.006c-.192.285-.386.569-.572.86-.2.313-.386.627-.575.944a9.443,9.443,0,0,1-.485-1.194,6.485,6.485,0,0,1-.34-2.085,4.086,4.086,0,0,1,.224-1.31c.052-.145.11-.246.139-.322s.049-.107.049-.107-.023.032-.066.1a2.825,2.825,0,0,0-.192.3,3.759,3.759,0,0,0-.413,1.324A6.03,6.03,0,0,0,84,40.143a8.1,8.1,0,0,0,.6,1.6c-.047.081-.093.163-.137.244a.208.208,0,0,0-.079.139c-.1.168-.188.334-.284.505-.552-.331-1.333-.778-1.894-1.072-.168-.427-.662-1.26-.471-1.707a2.265,2.265,0,0,1,.552.389,2.6,2.6,0,0,1,.093-2.855c.157.212.314.421.468.633-.006-.2.514-2.817.706-2.7m11.988-3.206.041-.023c1.58,6.357,2.125,8.6,2.291,9.287-.009-.049.006-.012.084.261a.067.067,0,0,0-.023,0c0,.012,0,.009,0,0a11.9,11.9,0,0,1-8.471-2.227.3.3,0,0,0-.044-.023c.34-.421.657-.865,1.016-1.232a3.909,3.909,0,0,0,.543-.749c.4-.631.965-1.081,1.408-1.655.256-.331.276-.752.485-1.06.34-.5.868-.511,1.269-.889.56-.529.7-1.219,1.4-1.693m.743-.444a.441.441,0,0,0,.07-.157l9.9,4.541c.009,0,.015,0,.023.006a10.524,10.524,0,0,1-7.725,5.509c0-.032.177.622-2.4-9.757a.9.9,0,0,0,.134-.142m.206-.839c3.192-.816,6.325-2.169,9.423-3.258a10.11,10.11,0,0,1,.613,7.931L96.479,30.893c.006-.023.008-.043.015-.064m.894-.9c.331-.328.284-.749.438-1.152.314-.816.848-.991,1.42-1.513a17.115,17.115,0,0,0,1.4-2c.656-.816,1.278-1.417,1.795-2.2a13.157,13.157,0,0,1,3.2,3.953c-2.73.964-5.483,2.126-8.279,2.939a.2.2,0,0,1,.026-.023m-2.593,15.22a10.507,10.507,0,0,1-.738,1.391c-1.388.168-2.8.3-4.222.392A13.182,13.182,0,0,0,87.27,44.71a2.309,2.309,0,0,1,.218-.505,5.153,5.153,0,0,1,1.13-1.121c.072-.05.142-.1.215-.148a4.184,4.184,0,0,1,.773-.4,1.666,1.666,0,0,1,.389-.087.416.416,0,0,1,.18,0,1.388,1.388,0,0,1,.186.029,16.951,16.951,0,0,1,1.757.537l1.765.616a2.342,2.342,0,0,1,.758.348.893.893,0,0,1,.34.537,2.736,2.736,0,0,1-.186.639m.032,1.3a6.7,6.7,0,0,0,.514-1.092,3.278,3.278,0,0,0,.142-.575,1.919,1.919,0,0,0,.021-.232c.351.25.7.508,1.028.781.294.235.575.479.854.729q-1.259.217-2.559.389m7.5-.386q-.122,1.264-.246,2.564c-8.492,2.608-27.623,3.02-38.487.189-.146-1.2-.264-2.108-.346-2.657,11.163,3.761,31.015,2.5,39.079-.1m-27.64.392q-.091.135-.174.279a74.315,74.315,0,0,1-7.783-1.083c3.842-.665,5.433.522,7.956.8m14.657.514c-1.365.081-2.742.134-4.106.154.052-.049.1-.1.154-.148.206-.209.4-.41.6-.6,1.281-1.3,1.6-.442,3.357.592m-1.615-4.411c.032.029.067.058.1.087a7.4,7.4,0,0,1-.618.74,6.794,6.794,0,0,1-.668.56,7.148,7.148,0,0,0-.732-.244c-.052-.035-.107-.072-.162-.108a.844.844,0,0,1-.07-.052,10.408,10.408,0,0,0-1.077-.674c.064-.116.133-.238.148-.255.146-.154.157-.148.386-.11a7.423,7.423,0,0,0,2.692.055m.409-.639a2.1,2.1,0,0,0-.049-1.008,16.694,16.694,0,0,0,1.641,1.019,3.351,3.351,0,0,0-1.141.592,3.783,3.783,0,0,0-.482-.421v-.008a.184.184,0,0,0,.032-.175m.221-2.181a3.816,3.816,0,0,1-.522.464.229.229,0,0,0-.1.18.269.269,0,0,0-.032.154.12.12,0,0,0-.067.075,1.851,1.851,0,0,0,.017.656c.026.715-.3.863-.122,1.115a11.7,11.7,0,0,1-2.207-.467.288.288,0,0,0-.192-.142c.253-.415.505-.828.767-1.237.171-.267.348-.534.523-.8.8.035,1.449.023,1.931,0m2.018-2.6c-.233.311-.476.613-.735.912-.084.1-.195.1-.264.206-.3.456-.517.857-.8,1.228-.433-.084-1.043-.18-1.807-.255q.706-1.041,1.455-2.053l-.008.145a7.437,7.437,0,0,0,2.163-.183M78.114,43.549a13.187,13.187,0,0,1,1.867-1.478c.233-.125.18-.067.842-.247a3.091,3.091,0,0,1,1.475.546c.314.171,3.447,1.925,3.668,2.2a.567.567,0,0,1,.035.8,2.678,2.678,0,0,1-.354.406c-.038.032-.084.064-.119.093-.276.218-.511.424-.72.613-.27.25-.488.468-.665.659-3.052.014-6.052-.11-8.849-.337a21.023,21.023,0,0,1,2.82-3.25m.636-1.356c-.529.462-.958.883-1.382,1.315-.055-.311-.137-.755-.235-1.3a11.759,11.759,0,0,0,1.618-.014m1.8-3.421c.177.224.354.451.529.68a.675.675,0,0,0-.084.175,1.047,1.047,0,0,0-.018.418,1.855,1.855,0,0,0,.244,1.106l-.081.029a2.4,2.4,0,0,0-1.69.468,15.377,15.377,0,0,1-2.358.3c-.113-.622-.244-1.354-.389-2.158a13.848,13.848,0,0,0,3.848-1.023M76.061,36.2c-.151-.857-.3-1.728-.453-2.582.785.7,1.545,1.417,2.277,2.163-.648.177-1.257.313-1.824.418m2.181.046-.02-.067a.072.072,0,0,0,.02-.023c.651.679,1.281,1.37,1.879,2.094.026.029.05.061.076.09a19.812,19.812,0,0,1-3.549,1.156c-.157-.883-.328-1.841-.5-2.822a15.529,15.529,0,0,0,2.1-.427M67.166,45.039c.195-.163.5-.433.961-.813,3.209-2.626,3.365-2.23,4.2-1.809.319.163.653.34,1,.54.941.537,2.262,1.376,2.82,1.768a12.926,12.926,0,0,0-1.043,1.147c-2.288-.1-4.774-1.562-8.439-.238q-1.085-.218-2.027-.456l2.219-.4c.142-.023.284-.046.427-.072-.075.1-.145.189-.195.261-.148.212-.2.3-.2.3s.084-.061.279-.226m35.667-22.654a12.7,12.7,0,0,1,5.7,11.035c-.4,5.155-7.016,11.271-14.535,9.627-.558-.206-1.115-.418-1.682-.618a11.089,11.089,0,0,1-4.045-1.972,3.6,3.6,0,0,0,.749-.61s0,0,0,0c6.589,5.433,18.3,1.51,18.679-6.83a13.3,13.3,0,0,0-4.939-10.492c.023-.046.043-.1.067-.142m3.993,20.368a1.473,1.473,0,0,0-.087-.438,12.864,12.864,0,0,0,.787-17.169,14.091,14.091,0,0,0-2.57-2.57,3.457,3.457,0,0,0-1.679-.845c-.894-.067-1.152.961-1.745,1.469-.357.3-.755.418-1.016.854-.128.215-.122.511-.232.729a9.691,9.691,0,0,1-.836.987A7.327,7.327,0,0,1,98.573,27c-.273.244-.622.334-.845.642-.311.433-.284.99-.534,1.449-.348.645-1.106,1.1-1.275,1.838a1.252,1.252,0,0,1-.117.4c-.221.348-.517.143-.781.372-.142.122-.273.212-.4.319,0-.023-.006-.043-.012-.067a.378.378,0,0,0-.021-.035,2.424,2.424,0,0,0-.195-1.783.212.212,0,0,0-.279-.072,3.315,3.315,0,0,1-.508.253,3.55,3.55,0,0,0-1.524.383c-.03-.154-.061-.3-.081-.459a.144.144,0,0,0-.177-.1,6.786,6.786,0,0,0-1.987.918c-.006-.2-.032-.456-.279-.38a6.124,6.124,0,0,0-3,1.882c-1.1-.212-2.085,1.074-2.59,2.12a2.593,2.593,0,0,0-.36-.642.3.3,0,0,0-.389-.081s0-.006-.009-.012a.2.2,0,0,0-.154-.07,5.2,5.2,0,0,0-1.635-1.626.253.253,0,0,0-.273.023,3.85,3.85,0,0,0-1.844-1.519.233.233,0,0,0-.337.137c-.1.355-.834-1.457-3.3-1.844a.22.22,0,0,0-.264.267c.009.1.014.192.023.288a1.433,1.433,0,0,0-.546-.189c-.081-.473-.151-.906-.212-1.286a.34.34,0,0,0-.085-.517,10.862,10.862,0,0,0-.29-1.324.356.356,0,0,0-.093-.3,7.835,7.835,0,0,0-4.78-5.2c-1.594-.529-9.621-1.791-12.046-2.166a1.665,1.665,0,0,0-1.7.776,1.848,1.848,0,0,0,.29,2.317,1.685,1.685,0,0,0,1.051.546c.175.023.4.05.662.081q2.016.239,3.691.485a43.829,43.829,0,0,1,5.666,1.208,4.835,4.835,0,0,1,2.991,2.4,27.251,27.251,0,0,1,.8,2.735,3.584,3.584,0,0,0-1.406.1c-.4-.107-.006,1.458.081,1.734-.665-.058-.337,1.847-.035,2.488-.389.157-.247,1.624.822,3.238l-.023.008c-.107-.006-.267.131-.18.392a3.538,3.538,0,0,0,.58,1.426c-9.258.952-12.394,2.262-11.982,5.038.409,5.515,7.847,59.2,7.852,59.236a30.7,30.7,0,0,0-1.281,3.142,16.8,16.8,0,0,0-.392,1.737c-1.51,9.8,15.357,11.1,25.146,9.624a22.714,22.714,0,0,0,6.876-2.027,9.945,9.945,0,0,0,2.951-2.225,6.471,6.471,0,0,0,1.542-3.43,3.273,3.273,0,0,0,.049-.479c0-.163.009-.328-.006-.482a8.8,8.8,0,0,0-.1-.926,16.466,16.466,0,0,0-.4-1.757,30.906,30.906,0,0,0-1.309-3.328c1.086-9.737,7.213-59.424,7.274-59.927l-.075-.009" transform="translate(-24.509 -8.23)" fill="#b7923d"/>
      <path id="Pfad_11392" data-name="Pfad 11392" d="M131.645,59.712c0-.026-.023-.1-.061-.264.008.055.049.224.061.264" transform="translate(-58.217 -26.302)" fill="#b7923d"/>
      <path id="Pfad_11393" data-name="Pfad 11393" d="M93.438,161.7s.749.816,4.477,2.721a1.561,1.561,0,0,0,1.978-.035c.589-.389,1.161-.831,1.711-1.275a7.526,7.526,0,0,0,.772-.685,3.437,3.437,0,0,0-.851.334c-.781.377-1.5.825-2.181,1.234a9.779,9.779,0,0,0-.485-2.428,10.076,10.076,0,0,0,.043,2.573.081.081,0,0,1-.035-.006,4.881,4.881,0,0,1-.61-.29,25.92,25.92,0,0,0-4.82-2.143" transform="translate(-41.34 -71.482)" fill="#b7923d"/>
      <path id="Pfad_11394" data-name="Pfad 11394" d="M106.91,127.8a31.919,31.919,0,0,1-9.688-4.76,39.408,39.408,0,0,1-6.3-5.738c-.735-.825-1.443-1.675-2.1-2.561-.613-.828-1.493-1.67-.714-2.713.171-.229,1.713-1.452,1.675-1.606a14.418,14.418,0,0,0,2.887,4.9c3.285,3.868,10.289,8.477,16.213,9.374a30.28,30.28,0,0,1-1.966,3.1m-13.776-12.8a15.641,15.641,0,0,1-3.232-4.908c.482-.087.95-.212,1.423-.328.134-.032.11-.264-.032-.246a3.837,3.837,0,0,0-2.146.856c-.517.424-1.754,1.217-1.853,1.934a3.083,3.083,0,0,0,.442,1.255,17.467,17.467,0,0,0,1.879,2.971,33.38,33.38,0,0,0,7.126,6.987,35.116,35.116,0,0,0,3.343,2.1,23.984,23.984,0,0,0,6.566,2.529c.142.029.282.052.415.076.1-.09.206-.192.317-.305a14.324,14.324,0,0,0,2.146-3c.026-.041.046-.081.07-.119s.055-.093.081-.142c-.189-.043-.413-.1-.677-.174a36.818,36.818,0,0,1-15.867-9.488" transform="translate(-38.62 -48.45)" fill="#b7923d"/>
      <path id="Pfad_11395" data-name="Pfad 11395" d="M89.953,149.8a34.923,34.923,0,0,0,5.071.918c1.368.148,2.425.188,3.223.215,1.487.029,2.123-.029,2.158-.032a13.48,13.48,0,0,0-1.867-.284c-.74-.1-1.757-.221-3.125-.422a49.506,49.506,0,0,1-5.21-1.025,29.266,29.266,0,0,1-6.856-2.663v0a13.68,13.68,0,0,1,.18-1.658c.043-.256.093-.494.148-.72a18.608,18.608,0,0,0,2.172,1.513,23.982,23.982,0,0,0,4.423,2.036,36.631,36.631,0,0,0,4.405,1.226c1.2.241,2.125.389,2.829.477s1.185.133,1.486.154.427.026.427.026-.084-.038-.325-.114-.651-.186-1.292-.351-1.524-.375-2.715-.682-2.683-.709-4.521-1.344a29.72,29.72,0,0,1-6.674-3.247c.375-.084.747-.18,1.118-.279a16.223,16.223,0,0,0,4.623,2.555,17.144,17.144,0,0,0,2.625.726,14.065,14.065,0,0,0,2.7.276c-.883-.192-1.757-.392-2.619-.627a34.45,34.45,0,0,1-7.295-2.939c.467-.125.932-.255,1.382-.386a.157.157,0,0,0-.084-.3c-.531.1-1.081.148-1.609.25-.511.1-.95.386-1.466.476-.322.058-.354.851-.4,1.127a8.834,8.834,0,0,0-.128,1.472c-.006.177,0,.34.006.5.122.081.253.166.389.25.058.035.122.072.183.113.188.113.383.235.592.357.285.154.587.319.909.491a25.089,25.089,0,0,0,5.137,1.923" transform="translate(-36.604 -63.199)" fill="#b7923d"/>
      <path id="Pfad_11396" data-name="Pfad 11396" d="M93.62,83.682c.276.148.569.3.88.464.247.163.523.34.825.531l.073.047.139.1a5.831,5.831,0,0,0,.54.308,5.392,5.392,0,0,0,.732.343,3.258,3.258,0,0,0,1,.2l.076.009.064.008.029,0,.014-.023a5.66,5.66,0,0,0,2.762-1.025A10.094,10.094,0,0,0,102,83.694a9.094,9.094,0,0,0,1.449-1.641,7.1,7.1,0,0,0,.564-.979c.093-.206.128-.3.128-.3a1.8,1.8,0,0,0-.183.186c-.128.145-.34.377-.668.743a14.117,14.117,0,0,1-1.5,1.417c-.74.6-1.852,1.646-2.837,1.649a.43.43,0,0,1-.209-.037.443.443,0,0,1-.151-.16c-.409-.589-.831-1.17-1.223-1.769a8.772,8.772,0,0,1-1-1.35c.177.491.36.982.537,1.47a5.951,5.951,0,0,0,.351.822,6.757,6.757,0,0,1,.355.636.905.905,0,0,1,.041.706.238.238,0,0,1-.125.134.3.3,0,0,1-.151-.009,9.02,9.02,0,0,1-2.181-.981,16.411,16.411,0,0,1-1.446-.967c-1.382-.993-2.6-1.7-2.776-3.365a1.993,1.993,0,0,0,.066,1.347,7.469,7.469,0,0,0,2.573,2.434" transform="translate(-40.215 -35.351)" fill="#b7923d"/>
      <path id="Pfad_11397" data-name="Pfad 11397" d="M77.926,108c.023.041.046.081.072.122a22.575,22.575,0,0,0,1.551,2.291c.288.375.581.723.863,1.052s.549.627.854.921a2.581,2.581,0,0,0,.522.374,1.782,1.782,0,0,0,.29.122,2,2,0,0,0,.317.07,1.413,1.413,0,0,0,.217.017,12.479,12.479,0,0,0,5.428-1.916,32.581,32.581,0,0,1-4.467,1.237c-.043-.1-.093-.192-.128-.29a7.074,7.074,0,0,0,1.406-5.349,21.772,21.772,0,0,1-1.978,5.1c-.2.148-.56.616-1.1.215-.241-.217-.485-.514-.747-.807-.29-.34-.592-.7-.894-1.095a27.143,27.143,0,0,1-2.358-3.6l-.2-1.922c.209-.375,1.53-2.187,1.87-2.817-.5.462-1.618,1.748-1.94,2.143-.965-8.706-.807-7.318-.953-8.526,2.19,1.858,3.514,2.849,6.107,1.675a6.449,6.449,0,0,0,.965-.551,1.531,1.531,0,0,0-.2.023,11.047,11.047,0,0,1-2.582.6c-1.06-.125-.464-.758.473-3.421.279-.792.354-1.469,1.124-1.885,1.673-.9,3.635-1.127,5.073-2.358a9.108,9.108,0,0,0-1.986.613c-1.487.589-3.006,1.252-4.434.424a6.32,6.32,0,0,1-1.319-1.106,9.55,9.55,0,0,0-1.818-1.687,5.75,5.75,0,0,1-.848-.421c.767.743,1.49,1.556,2.288,2.265a7.725,7.725,0,0,1,1.5,1.586c.5.816.1,2.036-.163,2.866-.1.3-1.019,2.727-1.431,2.5-.16-.087-.322-.183-.494-.293-1-.636-1.765-1.191-2.361-1.655-.549-4.585-1.26-10-2.012-14.648.241,4.327.691,9.7,1.1,13.9-.241-.206,0,0-1.126-1A5.537,5.537,0,0,0,75.6,94.44c.273,2.8-.012.093,1.368,12.781.224,1.821.43,3.641.668,5.457.468,3.635.961,7.266,1.551,10.887-.2-3.662-.5-7.315-.827-10.966-.13-1.536-.284-3.067-.433-4.6" transform="translate(-32.92 -35.332)" fill="#b7923d"/>
      <path id="Pfad_11398" data-name="Pfad 11398" d="M131,96.806c.122-1.841.258-3.682.362-5.523.224-3.682.415-7.365.517-11.059-.482,3.662-.877,7.333-1.237,11-.188,1.832-.345,3.67-.517,5.506h0v0a.118.118,0,0,1,0,.026.011.011,0,0,1,0-.009.968.968,0,0,0-.008.1c0,.015,0,.032-.006.049v.006c-.046.592-.232,2.93-.865,10.852-.119,1.838-.255,3.677-.36,5.52-.226,3.682-.418,7.368-.517,11.058.485-3.662.88-7.329,1.24-11,.189-1.832.343-3.67.514-5.509l.464-5.512Z" transform="translate(-56.795 -35.494)" fill="#b7923d"/>
      <path id="Pfad_11399" data-name="Pfad 11399" d="M126.83,55.351a.3.3,0,0,0,.2-.357,18.073,18.073,0,0,0-.651-2.776,16.685,16.685,0,0,0,.085,2.93.288.288,0,0,0,.363.2" transform="translate(-55.899 -23.096)" fill="#b7923d"/>
      <path id="Pfad_11400" data-name="Pfad 11400" d="M132.839,48.856a.27.27,0,0,0,.395-.3,17.916,17.916,0,0,0-1.873-2.027c-.259-.215.7,1.211.74,1.278a3.017,3.017,0,0,0,.738,1.048" transform="translate(-58.099 -20.576)" fill="#b7923d"/>
      <path id="Pfad_11401" data-name="Pfad 11401" d="M140.725,50.776c.322.192.68-.331.313-.534-.5-.279-2.352-1.35-2.265-1.237a9.367,9.367,0,0,0,1.951,1.771" transform="translate(-61.397 -21.677)" fill="#b7923d"/>
      <path id="Pfad_11402" data-name="Pfad 11402" d="M136.24,41.719c-.015,0,1.045.54,1.284.647.319.146.659.448,1.019.355a.12.12,0,0,0,.084-.146c-.183-.558-1.716-.865-2.387-.856" transform="translate(-60.277 -18.458)" fill="#b7923d"/>
      <path id="Pfad_11403" data-name="Pfad 11403" d="M143.47,37.5c-.68-.319-1.609.221-1.966.325a2.121,2.121,0,0,0-.7.262c-.014.012-.009.035.008.035a10.183,10.183,0,0,1,1.452-.108c1.417.055,1.437-.406,1.208-.514" transform="translate(-62.291 -16.549)" fill="#b7923d"/>
      <path id="Pfad_11404" data-name="Pfad 11404" d="M140.251,31.818c-1.043.052-1.946.973-2.8,1.481-.023.009-.008.047.018.038.4-.145,2.3-.54,2.909-1.208a.184.184,0,0,0-.13-.311" transform="translate(-60.809 -14.077)" fill="#b7923d"/>
      <path id="Pfad_11405" data-name="Pfad 11405" d="M123.028,48.6c-.314.406-.549.86-.84,1.284-.2.3-.624.639-.461,1.025a.135.135,0,0,0,.165.093c.406-.084.444-.578.569-.912.186-.5.433-.97.593-1.478.006-.017-.017-.023-.026-.012" transform="translate(-53.84 -21.499)" fill="#b7923d"/>
      <path id="Pfad_11406" data-name="Pfad 11406" d="M132.466,64.927a.214.214,0,0,0,0,.427.214.214,0,0,0,0-.427" transform="translate(-58.516 -28.726)" fill="#b7923d"/>
      <path id="Pfad_11407" data-name="Pfad 11407" d="M136.916,63.833a.415.415,0,0,0-.569.166.429.429,0,1,0,.569-.166" transform="translate(-60.3 -28.218)" fill="#b7923d"/>
      <path id="Pfad_11408" data-name="Pfad 11408" d="M141.209,61.646a.23.23,0,0,0,0,.459.23.23,0,0,0,0-.459" transform="translate(-62.377 -27.274)" fill="#b7923d"/>
      <path id="Pfad_11409" data-name="Pfad 11409" d="M142.614,61.59a.368.368,0,0,0,.714-.18.371.371,0,0,0-.714.18" transform="translate(-63.091 -27.047)" fill="#b7923d"/>
      <path id="Pfad_11410" data-name="Pfad 11410" d="M146.645,57.266a.2.2,0,0,0,0,.409.2.2,0,0,0,0-.409" transform="translate(-64.793 -25.336)" fill="#b7923d"/>
      <path id="Pfad_11411" data-name="Pfad 11411" d="M148.841,55.083c-.043.032-.084.064-.125.1-.139.116.012.325.166.284a.451.451,0,0,0,.108-.032c.275-.093.072-.5-.148-.348" transform="translate(-65.773 -24.356)" fill="#b7923d"/>
      <path id="Pfad_11412" data-name="Pfad 11412" d="M91.186,115.453a.232.232,0,0,0,0,.464.232.232,0,0,0,0-.464" transform="translate(-40.244 -51.08)" fill="#b7923d"/>
      <path id="Pfad_11413" data-name="Pfad 11413" d="M97.573,122.831a.011.011,0,0,0,0-.009c-.188.05-.508.168-.473.422s.372.293.569.3a.369.369,0,0,0,.34-.511.353.353,0,0,0-.438-.2" transform="translate(-42.96 -54.337)" fill="#b7923d"/>
      <path id="Pfad_11414" data-name="Pfad 11414" d="M93.865,119.427a.176.176,0,0,0,0,.351.176.176,0,0,0,0-.351" transform="translate(-41.454 -52.838)" fill="#b7923d"/>
      <path id="Pfad_11415" data-name="Pfad 11415" d="M101.942,128.186c.122-.064.064-.433-.226-.351s-.117.525.226.351" transform="translate(-44.939 -56.553)" fill="#b7923d"/>
      <path id="Pfad_11416" data-name="Pfad 11416" d="M87.19,148.968a.184.184,0,0,0,0-.369.184.184,0,0,0,0,.369" transform="translate(-38.496 -65.745)" fill="#b7923d"/>
      <path id="Pfad_11417" data-name="Pfad 11417" d="M121.046,96.649c-.026.151.845,1.716-1.778,3.4a40.69,40.69,0,0,1-4.849,2.274,3.043,3.043,0,0,1-2.172.418,3.889,3.889,0,0,1-.163-1.386c.038-1.284-.479-3.31.288-4.446.859-1.277,2.7-1.684,3.984-2.41-1.409.334-2.931.97-4.339,1.278-.647.142-.647.023-1.19-.34-.435-.29-1.359-.677-1.644-1.1a5.26,5.26,0,0,0,1.5,1.582c1.542,1.077.79,3.833.785,5.431,0,.177,0,.354.017.537a.78.78,0,0,0-.1.25c-.529-.18-3.035-2.579-3.247-3.845l-.021-.1a1.785,1.785,0,0,0,0,.43c.157,1.531,2.768,4.17,3.641,4.594l.006.02a.054.054,0,0,1,0-.014,2.359,2.359,0,0,0,.868.238c1.243.11,5.683-2.085,6.714-2.782,3.194-2.1,1.7-3.991,1.7-4.022" transform="translate(-47.827 -41.734)" fill="#b7923d"/>
      <path id="Pfad_11418" data-name="Pfad 11418" d="M109.329,121.446c1.147.822,2.875,2.718,4.295,1.762a22.54,22.54,0,0,0,1.728-1.524c.642-.531.813-1.408,1.362-1.943q-1.071,1.045-2.207,2.021a8.46,8.46,0,0,1-.888.691c-.038.026-.076.05-.117.072a.18.18,0,0,1-.139.038.177.177,0,0,1-.1-.108,16.415,16.415,0,0,1-1.135-2.956,7.231,7.231,0,0,0-1.188-2.645,1.112,1.112,0,0,0,.035.209c.985,4.742,1.679,5.073,1.118,5.5-6.064-3.932-5.381-3.3-6.029-3.694a26.328,26.328,0,0,0,3.261,2.579" transform="translate(-46.928 -51.7)" fill="#b7923d"/>
      <path id="Pfad_11419" data-name="Pfad 11419" d="M113.916,147.574a5.588,5.588,0,0,1-2.486.923c-1.821-.029-3.6-1.664-5.073-2.546a9.251,9.251,0,0,0-1.316-.706s.262.27,1.11.97c.892.735,1.844,1.374,2.776,2.054.54.4,1.493.72,1.812,1.315a2.96,2.96,0,0,1,.273,1.008,14.142,14.142,0,0,1,.1,2.35,14.189,14.189,0,0,1,.293-1.815,3.41,3.41,0,0,1,.427-1.444,1.859,1.859,0,0,1,.36-.3c.84-.589,1.629-1.243,2.489-1.792a3,3,0,0,0,.979-.845c.235-.346.2-.81.4-1.13a5.269,5.269,0,0,1-2.143,1.954" transform="translate(-46.474 -64.261)" fill="#b7923d"/>
      <path id="Pfad_11420" data-name="Pfad 11420" d="M86.07,90.865a.711.711,0,0,0-.079.651.828.828,0,0,0,1.191.476.711.711,0,0,0,.395-.526.839.839,0,0,1-1.507-.6" transform="translate(-38.026 -40.202)" fill="#b7923d"/>
      <path id="Pfad_11421" data-name="Pfad 11421" d="M99.058,109.436a.819.819,0,0,0,.012.442.7.7,0,0,0,.311.383.687.687,0,0,0,.892-.192.535.535,0,0,0-.13-.761.5.5,0,0,1-.146.529.393.393,0,0,1-.386.02.44.44,0,0,1-.192-.38,3.118,3.118,0,0,1,.064-.665,1.079,1.079,0,0,0-.424.624" transform="translate(-43.816 -48.142)" fill="#b7923d"/>
      <path id="Pfad_11422" data-name="Pfad 11422" d="M100.721,102.073a.645.645,0,0,1-.386.34.4.4,0,0,1-.56-.316.623.623,0,0,1,.1-.5.542.542,0,0,0-.456.5.689.689,0,0,0,.331.711.7.7,0,0,0,.781-.081.546.546,0,0,0,.195-.647" transform="translate(-43.98 -44.948)" fill="#b7923d"/>
      <path id="Pfad_11423" data-name="Pfad 11423" d="M86.45,84.775a1.362,1.362,0,0,0,.514-.63c-.384.177-.845.493-1.2.273A.625.625,0,0,1,85.73,83.4a.677.677,0,0,0-.607.566.845.845,0,0,0,1.327.813" transform="translate(-37.654 -36.897)" fill="#b7923d"/>
      <path id="Pfad_11424" data-name="Pfad 11424" d="M110.84,113.862a.558.558,0,0,0,.95.523.429.429,0,0,0,.084-.566.455.455,0,0,1-.3.273.3.3,0,0,1-.241,0,.3.3,0,0,1-.133-.2.457.457,0,0,1,.078-.4c-.2-.037-.4.163-.438.372" transform="translate(-49.032 -50.21)" fill="#b7923d"/>
      <path id="Pfad_11425" data-name="Pfad 11425" d="M78.385,81.312a.681.681,0,0,0,.749-.244.529.529,0,0,0,.037-.671.6.6,0,0,1-.29.415.437.437,0,0,1-.348.061.419.419,0,0,1-.235-.259.588.588,0,0,1,.023-.505.532.532,0,0,0-.383.555.676.676,0,0,0,.447.647" transform="translate(-34.482 -35.443)" fill="#b7923d"/>
      <path id="Pfad_11426" data-name="Pfad 11426" d="M85.187,119.965a.434.434,0,0,0-.54.247.561.561,0,0,0,.828.726.436.436,0,0,0,.18-.566.46.46,0,0,1-.343.244c-.215.032-.328-.061-.322-.285a.441.441,0,0,1,.2-.366" transform="translate(-37.419 -53.062)" fill="#b7923d"/>
      <path id="Pfad_11427" data-name="Pfad 11427" d="M126.068,80.74a.812.812,0,0,0,.819-.145.683.683,0,0,0,.255-.686.926.926,0,0,1-.453.381.62.62,0,0,1-.448.02.537.537,0,0,1-.282-.322.628.628,0,0,1,.043-.56.579.579,0,0,0-.4.613.765.765,0,0,0,.465.7" transform="translate(-55.57 -35.141)" fill="#b7923d"/>
      <path id="Pfad_11428" data-name="Pfad 11428" d="M97.344,142.537a5.878,5.878,0,0,1-.1-.636c-.621.816-.006,1.655.627,1.446a.651.651,0,0,0,.351-.279.92.92,0,0,0,.117-.72,2.062,2.062,0,0,1-.4.488c-.27.206-.514.018-.6-.3" transform="translate(-42.912 -62.782)" fill="#b7923d"/>
      <path id="Pfad_11429" data-name="Pfad 11429" d="M87.206,126.732a.576.576,0,0,0-.145.322c-.128.877,1.214,1.022,1.435.224a1.171,1.171,0,0,1-.886.032.443.443,0,0,1-.186-.264.414.414,0,0,1,.087-.429.339.339,0,0,0-.3.116" transform="translate(-38.515 -56.016)" fill="#b7923d"/>
      <path id="Pfad_11430" data-name="Pfad 11430" d="M102.813,159.633a.411.411,0,0,0-.166.259.437.437,0,0,0,.076.342.57.57,0,0,0,.255.2.637.637,0,0,0,.558-.044.747.747,0,0,0,.322-.36c-.171-.008-.317.018-.433.018a.712.712,0,0,1-.276-.044.333.333,0,0,1-.142-.093.223.223,0,0,1,.079-.288.242.242,0,0,0-.273.012" transform="translate(-45.41 -70.605)" fill="#b7923d"/>
      <path id="Pfad_11431" data-name="Pfad 11431" d="M82.127,72.656a.554.554,0,0,0,.6.871.43.43,0,0,0,.351-.429c-.444.3-.9-.195-.47-.575a67.743,67.743,0,0,0,12.472,1c2.341-.026,4.684-.154,7.008-.409a61.087,61.087,0,0,0,6.917-1.139q-3.48.414-6.958.66c-2.323.157-4.646.258-6.972.273a128.215,128.215,0,0,1-13.945-.668q.614.122,1.228.23a.517.517,0,0,0-.233.183" transform="translate(-35.895 -31.846)" fill="#b7923d"/>
      <path id="Pfad_11432" data-name="Pfad 11432" d="M75.531,71.958a.743.743,0,0,0,.691-.035.776.776,0,0,0,.366-.482,2.594,2.594,0,0,1-.5.145.621.621,0,0,1-.36-.049.333.333,0,0,1-.2-.2.354.354,0,0,1,.148-.384.326.326,0,0,0-.319.052.519.519,0,0,0-.192.3.533.533,0,0,0,.075.392.653.653,0,0,0,.288.253" transform="translate(-33.252 -31.383)" fill="#b7923d"/>
      <path id="Pfad_11433" data-name="Pfad 11433" d="M125.028,114.9a.5.5,0,0,0,.255.084.522.522,0,0,0,.259-.058,1.042,1.042,0,0,0,.287-.238,1.594,1.594,0,0,0,.195-.27,1.275,1.275,0,0,0,.189-.627c-.877.691-1.1,1.2-1.15.088a.734.734,0,0,0-.27.642.564.564,0,0,0,.235.38" transform="translate(-55.21 -50.345)" fill="#b7923d"/>
      <path id="Pfad_11434" data-name="Pfad 11434" d="M102.2,118.042c-.435,1.008,1.281,1.928,1.856.926a2.166,2.166,0,0,1-1.856-.926" transform="translate(-45.185 -52.226)" fill="#b7923d"/>
      <path id="Pfad_11435" data-name="Pfad 11435" d="M85.516,167.682a35.138,35.138,0,0,0,15.8,1.519,31.329,31.329,0,0,0,5.2-1.124q-2.623.432-5.253.645a55.389,55.389,0,0,1-15.748-1.04" transform="translate(-37.835 -74.188)" fill="#b7923d"/>
      <path id="Pfad_11436" data-name="Pfad 11436" d="M75.989,176.469a3.312,3.312,0,0,0-.177,1.072,4.2,4.2,0,0,0,.526,2.045c.206-1.045-.046-2.187.255-4.022a2.074,2.074,0,0,0-.6.906" transform="translate(-33.542 -77.675)" fill="#b7923d"/>
      <path id="Pfad_11437" data-name="Pfad 11437" d="M112.8,135.012a.383.383,0,0,0,.319.006c.311-.087.09-.563-.319-.383a.22.22,0,0,0,0,.377" transform="translate(-49.859 -59.549)" fill="#b7923d"/>
      <path id="Pfad_11438" data-name="Pfad 11438" d="M116.935,138.283v.009c.015-.021.006-.009.029-.047a.144.144,0,0,0,.017-.07.35.35,0,1,0-.691-.075c-.038.328.459.476.645.183" transform="translate(-51.45 -60.941)" fill="#b7923d"/>
      <path id="Pfad_11439" data-name="Pfad 11439" d="M121.762,137.991a.16.16,0,0,0,0-.319.16.16,0,0,0,0,.319" transform="translate(-53.803 -60.911)" fill="#b7923d"/>
      <path id="Pfad_11440" data-name="Pfad 11440" d="M99.134,153.859a.19.19,0,0,0,0-.38.19.19,0,0,0,0,.38" transform="translate(-43.778 -67.904)" fill="#b7923d"/>
      <path id="Pfad_11441" data-name="Pfad 11441" d="M79.446,181.934a6.241,6.241,0,0,1-.427-1.408A7.875,7.875,0,0,1,78.9,179.1c0-.479.029-.964.067-1.46a14.357,14.357,0,0,0,.067-1.516,6.972,6.972,0,0,0-.54,1.437,6.069,6.069,0,0,0-.215,1.539,4.412,4.412,0,0,0,.27,1.557,2.882,2.882,0,0,0,.894,1.281" transform="translate(-34.634 -77.921)" fill="#b7923d"/>
      <path id="Pfad_11442" data-name="Pfad 11442" d="M133.022,175.045a9.87,9.87,0,0,1,.25,1.461,6.662,6.662,0,0,1-.035,1.464,6.508,6.508,0,0,1-.392,1.466,2.968,2.968,0,0,0,.863-1.356,4.049,4.049,0,0,0,.18-1.624,4.844,4.844,0,0,0-.413-1.565,4.788,4.788,0,0,0-.865-1.339c.139.514.29,1,.413,1.493" transform="translate(-58.671 -76.785)" fill="#b7923d"/>
    </g>
  </g>
</svg>
