<svg xmlns="http://www.w3.org/2000/svg" width="22.286" height="26" viewBox="0 0 22.286 26">
  <path id="Pfad_24642" data-name="Pfad 24642" d="M21.3-16.772a3.376,3.376,0,0,1,.7,1.1,3.349,3.349,0,0,1,.29,1.277V2.321a1.343,1.343,0,0,1-.406.987,1.343,1.343,0,0,1-.987.406H1.393a1.343,1.343,0,0,1-.987-.406A1.343,1.343,0,0,1,0,2.321V-20.893a1.343,1.343,0,0,1,.406-.987,1.343,1.343,0,0,1,.987-.406h13A3.349,3.349,0,0,1,15.67-22a3.376,3.376,0,0,1,1.1.7Zm-6.442-3.54v5.455h5.455a1.585,1.585,0,0,0-.319-.595l-4.541-4.541A1.585,1.585,0,0,0,14.857-20.312Zm5.571,22.17V-13H14.393a1.343,1.343,0,0,1-.987-.406A1.343,1.343,0,0,1,13-14.393v-6.036H1.857V1.857Zm-7.458-8.6a11.039,11.039,0,0,0,1.219.813,14.4,14.4,0,0,1,1.7-.1q2.133,0,2.568.711a.7.7,0,0,1,.029.754.042.042,0,0,1-.015.029l-.029.029V-4.5q-.087.551-1.03.551a5.985,5.985,0,0,1-1.669-.29,10.578,10.578,0,0,1-1.886-.769A26.127,26.127,0,0,0,8.169-3.8Q5.949,0,4.657,0a.844.844,0,0,1-.406-.1L3.9-.276Q3.888-.29,3.816-.348a.6.6,0,0,1-.087-.522A3.151,3.151,0,0,1,4.541-2.2,7.012,7.012,0,0,1,6.456-3.6a.212.212,0,0,1,.334.087.084.084,0,0,1,.029.058q.754-1.233,1.552-2.858a22.142,22.142,0,0,0,1.509-3.8,11.728,11.728,0,0,1-.443-2.314,5.642,5.642,0,0,1,.094-1.85q.16-.58.609-.58h.319a.612.612,0,0,1,.508.218,1.159,1.159,0,0,1,.131.987.315.315,0,0,1-.058.116.377.377,0,0,1,.015.116v.435a19,19,0,0,1-.2,2.786A7.34,7.34,0,0,0,12.971-6.747ZM4.614-.783A6.406,6.406,0,0,0,6.6-3.076a8.271,8.271,0,0,0-1.27,1.219A4.822,4.822,0,0,0,4.614-.783Zm5.775-13.348a4.314,4.314,0,0,0-.029,1.915q.015-.1.1-.638,0-.044.1-.624a.327.327,0,0,1,.058-.116.042.042,0,0,1-.015-.029.111.111,0,0,1-.015-.044.835.835,0,0,0-.189-.522.042.042,0,0,1-.015.029Zm-1.8,9.59A21.281,21.281,0,0,1,12.71-5.717a2.193,2.193,0,0,1-.189-.138,2.594,2.594,0,0,1-.232-.2A7.686,7.686,0,0,1,10.446-8.6a19.386,19.386,0,0,1-1.2,2.858Q8.807-4.933,8.589-4.541Zm9.373-.232a3.472,3.472,0,0,0-2.031-.348,5.488,5.488,0,0,0,1.8.406,1.406,1.406,0,0,0,.261-.015Q17.991-4.744,17.962-4.773Z" transform="translate(0 22.286)" fill="#b7913c"/>
</svg>
